<svg id="anim-2" viewBox="0 0 327 327" width="327" height="327" xmlns="http://www.w3.org/2000/svg">
    <defs>
        <linearGradient x1="115.585%" y1="-8.189%" x2="50%" y2="102.799%" id="anim-2a">
            <stop stop-color="#2B2B37" offset="0%"></stop>
            <stop stop-color="#5C5780" offset="100%"></stop>
        </linearGradient>
    </defs>
    <g transform="translate(1)" fill="none" fill-rule="evenodd">
        <circle class="scaled-1" fill="#FFF" fill-rule="nonzero" cx="161" cy="162" r="113"></circle>
        <circle class="ring-1" stroke="#2B2B37" opacity=".3" cx="162.5" cy="163.5" r="137.5"></circle>
        <circle class="ring-2" stroke="#D7DFE8" stroke-width=".5" opacity=".702" cx="162.5" cy="163.5" r="162.5"></circle>
        <g fill-rule="nonzero" class="scaled-2">
            <path d="M109.185 191.4a12.459 12.459 0 0 1 5.76-1.388c6.364 0 11.524 4.643 11.524 10.37 0 3.097-1.51 5.877-3.91 7.778m77.804 0c-2.395-1.9-3.9-4.68-3.9-7.778 0-5.727 5.156-10.37 11.52-10.37 2.1 0 4.07.506 5.762 1.39" fill="#D7DFE8"></path>
            <path d="M111.525 11.04c-35.922-14.72-73.91-14.72-109.83 0L0 11.726V70.04c0 26.023 17.52 48.71 43.128 54.84v1.665c0 7.42 6.05 13.456 13.477 13.456 7.426 0 13.477-6.03 13.477-13.45v-1.663c25.607-6.132 43.128-28.815 43.128-54.84v-58.32l-1.685-.683zM64.69 126.548c0 4.45-3.63 8.07-8.085 8.07-4.456 0-8.086-3.62-8.086-8.07v-5.382a2.704 2.704 0 0 1 2.69-2.703h10.78a2.71 2.71 0 0 1 2.7 2.703v5.382zm5.187-7.167c-.814-3.59-4.04-6.3-7.884-6.3H51.217c-3.844 0-7.07 2.71-7.885 6.307-22.146-5.92-37.94-26.163-37.94-49.34v-27.85c12.13-5.815 25.606-5.893 37.736-.11V72.73c0 5.936 5.39 10.763 10.78 10.763v5.385c0 4.45-3.62 8.05-8.08 8.05H40.44c-1.485 0-2.703-1.182-2.703-2.668v-5.41h-5.39v5.41c0 4.452 3.638 8.052 8.093 8.052h5.388c4.42 0 8.32-2.17 10.777-5.468 2.458 3.296 6.353 5.466 10.776 5.466h5.39c4.46 0 8.1-3.6 8.1-8.054v-5.41h-5.39v5.41c0 1.486-1.22 2.668-2.703 2.668h-5.39c-4.456 0-8.08-3.597-8.08-8.05V83.49c5.39 0 10.775-5.413 10.775-10.798h-5.39c0 2.693-2.42 5.385-5.39 5.385h-5.39c-2.965 0-5.39-2.383-5.39-5.35v-33.9l-1.435-.763c-13.03-6.938-28.214-7.525-41.69-1.785V15.34c33.692-13.27 68.734-13.27 102.427 0v20.94c-13.474-5.74-28.67-5.155-41.69 1.783l-1.435.762v12.328h5.392v-9.068c12.13-5.78 25.607-5.697 37.737.11V70.04c0 23.178-15.798 43.42-37.944 49.342z" fill="url(#anim-2a)" transform="translate(104 101)"></path>
            <path d="M142.025 155.444c0-5.72-4.65-10.37-10.37-10.37-5.72 0-10.37 4.65-10.37 10.37 0 5.72 4.65 10.37 10.37 10.37 5.72 0 10.37-4.65 10.37-10.37zm-10.37 5.186a5.192 5.192 0 0 1-5.186-5.186c0-2.858 2.32-5.185 5.18-5.185s5.183 2.32 5.183 5.18-2.328 5.183-5.187 5.183zm58.765-15.556c-5.72 0-10.37 4.65-10.37 10.37 0 5.72 4.65 10.37 10.37 10.37 5.72 0 10.37-4.65 10.37-10.37 0-5.72-4.65-10.37-10.37-10.37zm0 15.556a5.191 5.191 0 0 1-5.185-5.186 5.192 5.192 0 0 1 5.185-5.185c2.858 0 5.185 2.32 5.185 5.18s-2.327 5.183-5.185 5.183z" fill="#5C5780"></path>
        </g>
        <g class="star-container">
            <path class="star-1" d="M289 249.5c0-11.72-2.28-14-14-14 11.72 0 14-2.28 14-14 0 11.72 2.28 14 14 14-11.72 0-14 2.28-14 14z" fill="#3BEE81"></path>
            <path class="star-2" d="M50 100c0-11.72-2.28-14-14-14 11.72 0 14-2.28 14-14 0 11.72 2.28 14 14 14-11.72 0-14 2.28-14 14z" fill="#3BEE81"></path>
            <path class="star-3" d="M250 50c0-11.72-2.28-14-14-14 11.72 0 14-2.28 14-14 0 11.72 2.28 14 14 14-11.72 0-14 2.28-14 14z" fill="#3BEE81"></path>
            <path class="star-4" d="M30 200.5c0-11.72-2.28-14-14-14 11.72 0 14-2.28 14-14 0 11.72 2.28 14 14 14-11.72 0-14 2.28-14 14z" fill="#3BEE81"></path>
            <path class="star-5" d="M220 300c0-11.72-2.28-14-14-14 11.72 0 14-2.28 14-14 0 11.72 2.28 14 14 14-11.72 0-14 2.28-14 14z" fill="#3BEE81"></path>
        </g>
    </g>
</svg>