
<svg width="139" height="41" viewBox="0 0 139 41" fill="none" xmlns="http://www.w3.org/2000/svg">
    <path d="M133.852 41H5.14815C2.31667 41 0 38.6937 0 35.875V5.125C0 2.30625 2.31667 0 5.14815 0H133.852C136.683 0 139 2.30625 139 5.125V35.875C139 38.6937 136.683 41 133.852 41Z" fill="black"/>
    <path d="M53.749 25.3202C53.749 24.6371 53.8869 24.0905 54.0248 23.5441C54.1627 22.9975 54.5765 22.451 54.9903 22.0411C55.404 21.6312 55.8178 21.3579 56.3695 21.0846C56.9212 20.8114 57.4728 20.6748 58.1625 20.6748C58.7142 20.6748 59.1279 20.8115 59.5418 20.9481C59.9555 21.0847 60.3692 21.3579 60.6451 21.6312V20.9481H62.8519V29.6923H60.6451V29.0092C60.2313 29.2825 59.9555 29.5557 59.5418 29.6923C59.1279 29.8289 58.7142 29.9656 58.1625 29.9656C57.4728 29.9656 56.9212 29.8289 56.3695 29.5557C55.8178 29.2824 55.404 29.0092 54.9903 28.5992C54.5765 28.1894 54.3007 27.7795 54.0248 27.0964C53.749 26.4132 53.749 26.0033 53.749 25.3202ZM58.4383 27.9161C58.5763 27.9161 58.8521 27.9161 58.99 27.9161C59.1279 27.9161 59.4038 27.7795 59.5418 27.7795C59.6797 27.6429 59.9555 27.5063 60.0934 27.3697C60.2313 27.233 60.5072 26.9597 60.6451 26.8231V24.0905C60.5072 23.8173 60.2313 23.6807 60.0934 23.5441C59.9555 23.4075 59.6797 23.2708 59.5418 23.1341C59.4038 22.9974 59.1279 22.9975 58.99 22.9975C58.8521 22.9975 58.5763 22.9975 58.4383 22.9975C58.0246 22.9975 57.7488 22.9974 57.4728 23.1341C57.197 23.2708 56.9212 23.4074 56.7833 23.6807C56.5074 23.9539 56.3695 24.2272 56.2316 24.5004C56.0937 24.7736 56.0937 25.1835 56.0937 25.4568C56.0937 25.7301 56.0937 26.1399 56.2316 26.4132C56.3695 26.6865 56.5074 26.9597 56.7833 27.233C57.0591 27.5062 57.3349 27.6429 57.4728 27.7795C57.7488 27.9161 58.0246 27.9161 58.4383 27.9161ZM68.2309 22.9975C67.1275 22.9975 66.3 23.6806 66.3 24.7737V29.6923H64.0931V24.7737C64.0931 22.7242 65.8861 20.8115 68.2309 20.8115C70.5755 20.8115 72.3685 22.7242 72.3685 24.7737V29.6923H70.1618V24.7737C70.1618 23.6806 69.1963 22.9975 68.2309 22.9975ZM73.334 25.3202C73.334 24.6371 73.4719 24.0905 73.6098 23.5441C73.7477 22.9975 74.1615 22.451 74.5753 22.0411C74.9891 21.6312 75.4028 21.3579 75.9545 21.0846C76.5062 20.8114 77.0579 20.6748 77.7475 20.6748C78.2992 20.6748 78.713 20.8115 79.1267 20.9481C79.5405 21.0847 79.9543 21.3579 80.2301 21.6312V18.2155H82.4369V29.5557H80.2301V28.8725C79.8164 29.1458 79.5405 29.419 79.1267 29.5557C78.713 29.6923 78.2992 29.8289 77.7475 29.8289C77.0579 29.8289 76.5062 29.6923 75.9545 29.4191C75.4028 29.1458 74.9891 28.8725 74.5753 28.4627C74.1615 28.0528 73.8857 27.6429 73.6098 26.9597C73.334 26.2767 73.334 26.0033 73.334 25.3202ZM78.0234 27.9161C78.1613 27.9161 78.4371 27.9161 78.575 27.9161C78.713 27.9161 78.9888 27.7795 79.1267 27.7795C79.2646 27.6429 79.5405 27.5063 79.6784 27.3697C79.8164 27.233 80.0922 26.9597 80.2301 26.8231V24.0905C80.0922 23.8173 79.8164 23.6807 79.6784 23.5441C79.5405 23.4075 79.2646 23.2708 79.1267 23.1341C78.9888 22.9974 78.713 22.9975 78.575 22.9975C78.4371 22.9975 78.1613 22.9975 78.0234 22.9975C77.6095 22.9975 77.3337 22.9974 77.0579 23.1341C76.7821 23.2708 76.5062 23.4074 76.3683 23.6807C76.0924 23.9539 75.9545 24.2272 75.8166 24.5004C75.6786 24.7736 75.6786 25.1835 75.6786 25.4568C75.6786 25.7301 75.6786 26.1399 75.8166 26.4132C75.9545 26.6865 76.0924 26.9597 76.3683 27.233C76.6441 27.5062 76.92 27.6429 77.0579 27.7795C77.3337 27.9161 77.6095 27.9161 78.0234 27.9161ZM92.6431 27.9161C92.9189 27.9161 93.1948 27.9161 93.6086 27.7795C93.8844 27.6429 94.1603 27.5062 94.2982 27.233C94.574 26.9597 94.7119 26.6865 94.8498 26.4132C94.9878 26.1399 94.9878 25.7301 94.9878 25.4568C94.9878 25.1835 94.9878 24.7736 94.8498 24.5004C94.7119 24.2272 94.574 23.9539 94.2982 23.6807C94.0224 23.4074 93.7465 23.2708 93.6086 23.1341C93.3327 22.9974 93.0569 22.9975 92.6431 22.9975C92.3673 22.9975 92.0915 22.9974 91.6777 23.1341C91.4018 23.2708 91.126 23.4074 90.988 23.6807C90.7122 23.9539 90.5743 24.2272 90.4364 24.5004C90.2985 24.7736 90.2985 25.1835 90.2985 25.4568C90.2985 25.7301 90.2985 26.1399 90.4364 26.4132C90.5743 26.6865 90.7122 26.9597 90.988 27.233C91.2639 27.5062 91.5397 27.6429 91.6777 27.7795C91.9535 27.7795 92.3673 27.9161 92.6431 27.9161ZM92.6431 29.9656C92.0915 29.9656 91.4018 29.8289 90.8501 29.5557C90.2985 29.2824 89.7467 29.0092 89.333 28.5992C88.9192 28.1894 88.6434 27.7795 88.3676 27.0964C88.0916 26.5499 87.9537 26.0033 87.9537 25.3202C87.9537 24.7737 88.0916 24.0905 88.3676 23.5441C88.6434 22.9975 88.9192 22.451 89.333 22.0411C89.7467 21.6312 90.2985 21.3579 90.8501 21.0846C91.4018 20.8114 91.9535 20.6748 92.6431 20.6748C93.1948 20.6748 93.8844 20.8114 94.4361 21.0846C94.9878 21.3579 95.5395 21.6312 95.9533 22.0411C96.367 22.451 96.6428 22.8609 96.9188 23.5441C97.1946 24.0905 97.3325 24.6371 97.3325 25.3202C97.3325 26.0033 97.1946 26.5499 96.9188 27.0964C96.6428 27.6429 96.367 28.1894 95.9533 28.5992C95.5395 29.0092 94.9878 29.2824 94.4361 29.5557C93.8844 29.8289 93.3327 29.9656 92.6431 29.9656ZM99.2634 20.2649C99.1255 20.2649 98.8497 20.2649 98.7117 20.1283C98.5738 19.9917 98.4358 19.9917 98.2979 19.8551C98.16 19.7185 98.0221 19.5819 98.0221 19.4451C97.8842 19.3085 97.8842 19.1719 97.8842 18.8987C97.8842 18.762 97.8842 18.4887 98.0221 18.3521C98.16 18.2154 98.16 18.0788 98.2979 17.9422C98.4358 17.8056 98.5738 17.669 98.7117 17.669C98.8497 17.5323 98.9876 17.5323 99.2634 17.5323C99.4013 17.5323 99.6772 17.5323 99.8151 17.669C99.953 17.8056 100.091 17.8056 100.229 17.9422C100.367 18.0788 100.505 18.2154 100.505 18.3521C100.643 18.4887 100.643 18.6254 100.643 18.8987C100.643 19.0353 100.643 19.3085 100.505 19.4451C100.367 19.5819 100.367 19.7185 100.229 19.8551C100.091 19.9917 99.953 20.1283 99.8151 20.1283C99.5392 20.2649 99.5392 20.2649 99.2634 20.2649ZM98.16 21.0846H100.367V29.8289H98.16V21.0846ZM101.47 25.3202C101.47 24.6371 101.608 24.0905 101.746 23.5441C102.022 22.9975 102.298 22.451 102.711 22.0411C103.125 21.6312 103.539 21.3579 104.091 21.0846C104.642 20.8114 105.194 20.6748 105.883 20.6748C106.436 20.6748 106.85 20.8115 107.263 20.9481C107.677 21.0847 108.091 21.3579 108.367 21.6312V18.2155H110.573V29.5557H108.367V28.8725C107.953 29.1458 107.677 29.419 107.263 29.5557C106.85 29.6923 106.436 29.8289 105.883 29.8289C105.194 29.8289 104.642 29.6923 104.091 29.4191C103.539 29.1458 103.125 28.8725 102.711 28.4627C102.298 28.0528 102.022 27.6429 101.746 26.9597C101.47 26.5499 101.47 26.0033 101.47 25.3202ZM106.022 27.9161C106.16 27.9161 106.436 27.9161 106.574 27.9161C106.712 27.9161 106.987 27.7795 107.125 27.7795C107.263 27.6429 107.539 27.5063 107.677 27.3697C107.815 27.233 108.091 26.9597 108.229 26.8231V24.0905C108.091 23.8173 107.815 23.6807 107.677 23.5441C107.539 23.4075 107.263 23.2708 107.125 23.1341C106.987 22.9974 106.712 22.9975 106.574 22.9975C106.436 22.9975 106.16 22.9975 106.022 22.9975C105.607 22.9975 105.332 22.9974 105.056 23.1341C104.78 23.2708 104.504 23.4074 104.367 23.6807C104.091 23.9539 103.953 24.2272 103.815 24.5004C103.677 24.7736 103.677 25.1835 103.677 25.4568C103.677 25.7301 103.677 26.1399 103.815 26.4132C103.953 26.6865 104.091 26.9597 104.367 27.233C104.642 27.5062 104.918 27.6429 105.056 27.7795C105.469 27.9161 105.745 27.9161 106.022 27.9161ZM87.8158 22.9975C86.2987 22.9975 85.747 23.6806 85.747 24.7737V29.6923H83.5403V24.7737C83.5403 22.7242 84.7815 20.6748 87.8158 20.6748" fill="white"/>
    <path d="M34.8316 9.19334L35.9622 11.0797C33.939 12.0818 32.5703 13.9682 32.5703 16.1492H38.9971H45.4238C45.4238 13.9682 44.0552 12.0229 42.0319 11.0797L43.1625 9.19334C43.1625 9.19334 43.222 9.07545 43.103 9.0165C42.984 8.95756 42.9245 9.07546 42.9245 9.07546L41.7939 11.0207C40.9608 10.6671 39.9492 10.4313 38.9375 10.4313C37.9259 10.4313 36.9738 10.6671 36.0812 11.0207L34.9506 9.07546C34.9506 9.07546 34.8911 8.95756 34.7721 9.0165C34.8316 9.1344 34.8316 9.19334 34.8316 9.19334ZM35.9622 12.9071C36.3193 12.9071 36.5573 13.2018 36.5573 13.4966C36.5573 13.8503 36.2598 14.0861 35.9622 14.0861C35.6052 14.0861 35.3672 13.8503 35.3672 13.4966C35.3672 13.2018 35.6052 12.9071 35.9622 12.9071ZM42.0914 12.9071C42.4484 12.9071 42.6865 13.2018 42.6865 13.4966C42.6865 13.8503 42.389 14.0861 42.0914 14.0861C41.7344 14.0861 41.4964 13.8503 41.4964 13.4966C41.4964 13.2018 41.7344 12.9071 42.0914 12.9071Z" fill="#A4C639"/>
    <path d="M32.5107 16.9745V26.6421C32.5107 27.1137 33.1058 27.762 33.5819 27.762H35.129V31.0632C35.129 31.8885 35.7241 32.5958 36.4976 32.5958C37.2712 32.5958 37.8663 31.9474 37.8663 31.0632V27.762H40.0681V31.0632C40.0681 31.8885 40.6631 32.5958 41.4367 32.5958C42.2103 32.5958 42.8054 31.9474 42.8054 31.0632V27.762H44.3525C44.8285 27.762 45.4237 27.1137 45.4237 26.6421V16.9745H32.5107Z" fill="#A4C639"/>
    <path d="M30.3687 16.7388C31.1422 16.7388 31.7373 17.4461 31.7373 18.2714V23.9894C31.7373 24.8147 31.1422 25.522 30.3687 25.522C29.5951 25.522 29 24.8147 29 23.9894V18.2714C29 17.4461 29.6546 16.7388 30.3687 16.7388Z" fill="#A4C639"/>
    <path d="M47.6849 16.7388C48.4585 16.7388 49.0536 17.4461 49.0536 18.2714V23.9894C49.0536 24.8147 48.4585 25.522 47.6849 25.522C46.9113 25.522 46.3163 24.8147 46.3163 23.9894V18.2714C46.2568 17.4461 46.9113 16.7388 47.6849 16.7388Z" fill="#A4C639"/>
    <path d="M53.8144 10.4313H54.945C55.7186 10.4313 56.2542 10.5492 56.6112 10.726C56.9683 10.9029 57.2658 11.1976 57.5038 11.6102C57.7419 12.0229 57.8609 12.4945 57.8609 13.025C57.8609 13.4377 57.8013 13.7913 57.6823 14.086C57.5633 14.4398 57.3848 14.6755 57.1468 14.9114C56.9087 15.1471 56.6707 15.265 56.3732 15.383C56.0757 15.4419 55.6592 15.5008 54.945 15.5008H53.7549V10.4313H53.8144ZM54.826 11.3744V14.5576H55.3021C55.7781 14.5576 56.0757 14.4987 56.2542 14.3808C56.4327 14.2629 56.6112 14.086 56.7303 13.8503C56.8493 13.6145 56.9087 13.3198 56.9087 12.9661C56.9087 12.4355 56.7303 12.0229 56.4327 11.7281C56.1351 11.4334 55.7186 11.3155 55.1235 11.3155H54.826V11.3744Z" fill="white"/>
    <path d="M61.2529 10.3134C61.967 10.3134 62.6216 10.5491 63.0977 11.0797C63.5737 11.6102 63.8713 12.2587 63.8713 12.966C63.8713 13.7324 63.6332 14.3219 63.0977 14.8524C62.562 15.3829 61.967 15.6187 61.1934 15.6187C60.4198 15.6187 59.7653 15.3829 59.2892 14.8524C58.8132 14.3219 58.5156 13.6734 58.5156 12.966C58.5156 12.4944 58.6346 12.0228 58.8727 11.6102C59.1107 11.1976 59.4082 10.9028 59.8247 10.667C60.2414 10.4312 60.7769 10.3134 61.2529 10.3134ZM61.2529 11.2565C60.7769 11.2565 60.3603 11.4334 60.0628 11.7281C59.7653 12.0818 59.5867 12.4944 59.5867 12.966C59.5867 13.5555 59.7653 13.9681 60.1818 14.3219C60.4793 14.5576 60.8364 14.7345 61.2529 14.7345C61.729 14.7345 62.086 14.5576 62.4431 14.2629C62.8001 13.9681 62.9191 13.4965 62.9191 13.0249C62.9191 12.5533 62.7406 12.1407 62.4431 11.7871C62.1455 11.4334 61.729 11.2565 61.2529 11.2565Z" fill="white"/>
    <path d="M64.4658 10.4313H65.4179L66.132 13.6734L67.0247 10.4313H67.8577L68.8099 13.6734L69.5239 10.4313H70.476L69.3454 15.5008H68.3932L67.4412 12.1997L66.4891 15.5008H65.5369L64.4658 10.4313Z" fill="white"/>
    <path d="M71.249 10.4313H72.2012L74.4029 13.7913V10.4313H75.355V15.5008H74.4029L72.2012 12.1407V15.5008H71.249V10.4313Z" fill="white"/>
    <path d="M76.5459 10.4313H77.498V14.6166H78.9261V15.5598H76.5459V10.4313Z" fill="white"/>
    <path d="M82.0801 10.3134C82.7941 10.3134 83.4487 10.5491 83.9247 11.0797C84.4008 11.6102 84.6983 12.2587 84.6983 12.966C84.6983 13.7324 84.4603 14.3219 83.9247 14.8524C83.3892 15.3829 82.7941 15.6187 82.0205 15.6187C81.2469 15.6187 80.5923 15.3829 80.1164 14.8524C79.5808 14.3219 79.3428 13.6734 79.3428 12.966C79.3428 12.4944 79.4618 12.0228 79.6997 11.6102C79.9378 11.1976 80.2354 10.9028 80.6519 10.667C81.1874 10.4312 81.604 10.3134 82.0801 10.3134ZM82.0801 11.2565C81.604 11.2565 81.1874 11.4334 80.8899 11.7281C80.5923 12.0818 80.4139 12.4944 80.4139 12.966C80.4139 13.5555 80.5923 13.9681 81.009 14.3219C81.3065 14.5576 81.6635 14.7345 82.0801 14.7345C82.5561 14.7345 82.9131 14.5576 83.2702 14.2629C83.6272 13.9681 83.7463 13.4965 83.7463 13.0249C83.7463 12.5533 83.5677 12.1407 83.2702 11.7871C82.9727 11.4334 82.5561 11.2565 82.0801 11.2565Z" fill="white"/>
    <path d="M87.2567 10.4313H88.2683L90.232 15.5008H89.2204L88.8039 14.4398H86.7212L86.3046 15.5008H85.293L87.2567 10.4313ZM87.7328 11.7871L87.0187 13.5555H88.3874L87.7328 11.7871Z" fill="white"/>
    <path d="M90.9463 10.4313H92.0769C92.8504 10.4313 93.386 10.5492 93.743 10.726C94.1001 10.9029 94.3976 11.1976 94.6357 11.6102C94.8737 12.0229 94.9927 12.4945 94.9927 13.025C94.9927 13.4377 94.9332 13.7913 94.8142 14.086C94.6952 14.3808 94.5166 14.6755 94.2786 14.9114C94.0406 15.1471 93.8026 15.265 93.505 15.383C93.2075 15.4419 92.791 15.5008 92.0769 15.5008H90.8867V10.4313H90.9463ZM91.9578 11.3744V14.5576H92.4339C92.91 14.5576 93.2075 14.4987 93.386 14.3808C93.5646 14.2629 93.7431 14.086 93.8621 13.8503C93.9811 13.6145 94.0406 13.3198 94.0406 12.9661C94.0406 12.4355 93.8621 12.0229 93.5646 11.7281C93.2671 11.4334 92.8504 11.3155 92.2554 11.3155H91.9578V11.3744Z" fill="white"/>
    <path d="M99.5155 10.4313H100.527L102.491 15.5008H101.479L101.063 14.4398H98.98L98.5633 15.5008H97.5518L99.5155 10.4313ZM100.051 11.7871L99.3369 13.5555H100.706L100.051 11.7871Z" fill="white"/>
    <path d="M103.264 10.4313H104.275C104.811 10.4313 105.227 10.4902 105.466 10.6081C105.703 10.726 105.882 10.9029 106.06 11.0797C106.239 11.2566 106.299 11.6102 106.299 11.905C106.299 12.2586 106.18 12.5535 106.001 12.7892C105.823 13.025 105.584 13.2018 105.227 13.2608C105.049 13.3198 104.691 13.3197 104.216 13.3197V15.5008H103.264V10.4313ZM104.216 12.4355H104.513C104.751 12.4355 104.93 12.4355 105.049 12.3766C105.168 12.3176 105.227 12.2586 105.287 12.1997C105.346 12.1407 105.346 12.0229 105.346 11.905C105.346 11.7281 105.287 11.5513 105.108 11.4924C104.99 11.4334 104.811 11.3744 104.513 11.3744H104.216V12.4355Z" fill="white"/>
    <path d="M107.251 10.4313H108.262V12.1997L109.631 10.4313H110.821L109.035 12.6713L111 15.5008H109.868L108.262 13.2608V15.5008H107.251V10.4313Z" fill="white"/>
</svg>
