
<svg width="139" height="41" viewBox="0 0 139 41" fill="none" xmlns="http://www.w3.org/2000/svg">
    <path d="M133.852 41H5.14815C2.31667 41 0 38.6937 0 35.875V5.125C0 2.30625 2.31667 0 5.14815 0H133.852C136.683 0 139 2.30625 139 5.125V35.875C139 38.6937 136.683 41 133.852 41Z" fill="black"/>
    <path fill-rule="evenodd" clip-rule="evenodd" d="M36.6329 12.3612C37.3522 11.4627 37.8444 10.2404 37.7077 9C36.6667 9.04603 35.3648 9.71925 34.6151 10.598C33.9518 11.3723 33.3593 12.6415 33.5123 13.835C34.6817 13.9222 35.8824 13.2456 36.6329 12.3612ZM39.2667 20.1521C39.243 17.5226 41.4057 16.2333 41.5362 16.1555L41.5388 16.1539C40.2954 14.3431 38.368 14.0956 37.6908 14.0759C36.7004 13.9718 35.7282 14.3572 34.9338 14.6721C34.4299 14.872 33.9974 15.0434 33.6772 15.0434C33.3127 15.0434 32.8678 14.8648 32.3692 14.6647C31.7171 14.403 30.9733 14.1044 30.1978 14.1203C28.4367 14.1474 26.7891 15.1659 25.8856 16.7474C24.0208 19.9721 25.4115 24.7109 27.1981 27.3175C28.0919 28.5941 29.1362 30.0195 30.5031 29.9693C31.1232 29.9438 31.5631 29.7588 32.0176 29.5678C32.5432 29.3468 33.0882 29.1177 33.9537 29.1177C34.7701 29.1177 35.2919 29.3397 35.7928 29.5528C36.2728 29.757 36.7336 29.9529 37.4159 29.9372C38.8511 29.9142 39.7547 28.6549 40.6172 27.3668C41.6499 25.9037 42.0647 24.4628 42.0812 24.3887C42.0474 24.3772 39.2938 23.3275 39.2667 20.1521ZM56.7498 29.7861H58.6187L55.0759 18.8469H52.8983L49.3728 29.7861H51.1924L52.1676 26.5729H55.726L56.7498 29.7861ZM54.4916 22.3684L55.4174 25.2249H52.477L53.3864 22.3684C53.6251 21.4601 53.7987 20.7729 53.9065 20.3077H53.9394C54.2102 21.3894 54.3937 22.0766 54.4916 22.3684ZM67.6853 25.745C67.6853 27.0866 67.3224 28.1469 66.5965 28.9254C65.9464 29.6184 65.1391 29.9643 64.1754 29.9643C63.1352 29.9643 62.388 29.5911 61.9329 28.8448H61.9V33H60.1454V24.4947C60.1454 23.6514 60.1233 22.7858 60.0804 21.898H61.6235L61.7214 23.1483H61.7543C62.3394 22.2063 63.2274 21.7362 64.419 21.7362C65.3506 21.7362 66.1283 22.1035 66.7504 22.8393C67.3742 23.5758 67.6853 24.5441 67.6853 25.745ZM65.8979 25.8092C65.8979 25.0414 65.725 24.4085 65.3778 23.9104C64.9984 23.3908 64.489 23.1311 63.8504 23.1311C63.4175 23.1311 63.0241 23.2758 62.6728 23.561C62.3205 23.8487 62.0901 24.2244 61.9823 24.6896C61.928 24.9066 61.9008 25.0841 61.9008 25.2239V26.5391C61.9008 27.1128 62.0769 27.597 62.4291 27.9924C62.7813 28.3878 63.2389 28.5851 63.8018 28.5851C64.4627 28.5851 64.9769 28.3302 65.3448 27.8222C65.7135 27.3134 65.8979 26.6427 65.8979 25.8092ZM75.6786 28.9254C76.4053 28.1469 76.7682 27.0866 76.7682 25.745C76.7682 24.5441 76.4564 23.5758 75.835 22.8393C75.2112 22.1035 74.4335 21.7362 73.5028 21.7362C72.3104 21.7362 71.4224 22.2063 70.8381 23.1483H70.8052L70.7072 21.898H69.1642C69.207 22.7858 69.2292 23.6514 69.2292 24.4947V33H70.9837V28.8448H71.0167C71.4709 29.5911 72.2181 29.9643 73.2583 29.9643C74.222 29.9643 75.0294 29.6184 75.6786 28.9254ZM74.4599 23.9104C74.8071 24.4085 74.9808 25.0414 74.9808 25.8092C74.9808 26.6427 74.7965 27.3134 74.4278 27.8222C74.06 28.3302 73.5456 28.5851 72.8848 28.5851C72.3202 28.5851 71.8626 28.3869 71.5104 27.9924C71.1599 27.597 70.9837 27.1128 70.9837 26.5391V25.2239C70.9837 25.0841 71.0117 24.9066 71.0652 24.6896C71.173 24.2244 71.4026 23.8487 71.7549 23.561C72.1071 23.2758 72.4996 23.1311 72.9333 23.1311C73.5727 23.1311 74.0805 23.3908 74.4599 23.9104ZM86.923 26.7182C86.923 27.6488 86.5995 28.4058 85.9502 28.9902C85.2368 29.629 84.2435 29.9479 82.9671 29.9479C81.7886 29.9479 80.8439 29.721 80.1287 29.2664L80.5352 27.8058C81.3055 28.271 82.1507 28.5044 83.0715 28.5044C83.7324 28.5044 84.2468 28.3549 84.6162 28.0573C84.9841 27.7597 85.1677 27.3602 85.1677 26.8621C85.1677 26.4182 85.0162 26.0442 84.7126 25.7409C84.4105 25.4376 83.906 25.1556 83.2016 24.8951C81.2841 24.1807 80.3262 23.1343 80.3262 21.7583C80.3262 20.859 80.662 20.1217 81.3343 19.5479C82.0042 18.9733 82.898 18.6865 84.0155 18.6865C85.012 18.6865 85.84 18.8599 86.5008 19.2059L86.0622 20.6346C85.445 20.2992 84.7471 20.1315 83.9661 20.1315C83.3489 20.1315 82.8667 20.2836 82.521 20.5861C82.2289 20.8566 82.0824 21.1862 82.0824 21.5767C82.0824 22.009 82.2494 22.3665 82.5852 22.6477C82.8774 22.9074 83.4082 23.1886 84.1785 23.4919C85.1207 23.8708 85.8128 24.3139 86.2581 24.8219C86.7016 25.3283 86.923 25.962 86.923 26.7182ZM90.7902 23.2132H92.7241V21.8963H90.7902V19.9325L89.067 20.452V21.8963H87.9148V23.2115H89.067V27.1876C89.067 28.183 89.2628 28.8915 89.6521 29.3141C90.043 29.7358 90.5844 29.947 91.2774 29.947C91.8411 29.947 92.2962 29.8821 92.6419 29.753L92.5933 28.4221C92.3876 28.4764 92.1275 28.5035 91.8139 28.5035C91.1309 28.5035 90.7902 28.017 90.7902 27.0429V23.2132ZM101.449 25.7773C101.449 26.9897 101.102 27.9852 100.41 28.7637C99.6827 29.5651 98.7185 29.9646 97.5162 29.9646C96.3576 29.9646 95.4346 29.5807 94.7467 28.813C94.0588 28.0452 93.7148 27.0761 93.7148 25.908C93.7148 24.6857 94.0686 23.6845 94.7789 22.9061C95.4873 22.1268 96.4434 21.7371 97.6457 21.7371C98.8043 21.7371 99.737 22.121 100.441 22.8896C101.114 23.6352 101.449 24.5977 101.449 25.7773ZM99.6293 25.834C99.6293 25.1066 99.4739 24.4827 99.1589 23.9623C98.7905 23.3327 98.2651 23.0187 97.5834 23.0187C96.8782 23.0187 96.3422 23.3335 95.9747 23.9623C95.6597 24.4835 95.5035 25.1173 95.5035 25.8669C95.5035 26.5944 95.6597 27.2182 95.9747 27.7378C96.3536 28.3674 96.8839 28.6814 97.568 28.6814C98.2376 28.6814 98.7638 28.3608 99.1427 27.7213C99.4666 27.1912 99.6293 26.5607 99.6293 25.834ZM106.6 23.3908C106.794 23.3908 106.979 23.4073 107.153 23.4393V21.7682C107.023 21.7477 106.876 21.7362 106.714 21.7362C106.259 21.7362 105.837 21.8767 105.446 22.1587C105.047 22.4718 104.754 22.8894 104.569 23.4081H104.52L104.456 21.8989H102.928C102.971 22.6452 102.994 23.473 102.994 24.3822L102.977 29.786H104.731V25.6472C104.731 25.02 104.877 24.5006 105.17 24.0896C105.506 23.6235 105.982 23.3908 106.6 23.3908ZM115 25.4689C115 25.7828 114.979 26.0475 114.936 26.2637H109.672C109.693 27.043 109.947 27.639 110.436 28.05C110.879 28.4174 111.453 28.6015 112.157 28.6015C112.937 28.6015 113.648 28.4774 114.288 28.2284L114.562 29.4449C113.815 29.7704 112.932 29.9324 111.915 29.9324C110.69 29.9324 109.729 29.5723 109.029 28.8531C108.331 28.1338 107.981 27.168 107.981 25.9563C107.981 24.7669 108.307 23.7764 108.958 22.9865C109.639 22.1431 110.56 21.7214 111.719 21.7214C112.857 21.7214 113.718 22.1431 114.304 22.9865C114.767 23.6564 115 24.4849 115 25.4689ZM113.327 25.0143C113.339 24.4948 113.224 24.046 112.986 23.667C112.682 23.1796 112.216 22.9363 111.588 22.9363C111.014 22.9363 110.548 23.1738 110.192 23.6506C109.899 24.0296 109.725 24.4841 109.672 25.0135L113.327 25.0143ZM53.9664 14.3023C54.5466 13.8133 54.8371 13.085 54.8371 12.1175C54.8371 11.256 54.568 10.5943 54.0314 10.1315C53.5525 9.72217 52.8423 9.51749 51.9 9.51749C51.3668 9.51749 50.873 9.5553 50.4146 9.62928V14.9155C50.766 14.9583 51.1857 14.9797 51.6761 14.9797C52.6653 14.9797 53.429 14.7537 53.9664 14.3023ZM53.429 10.6979C53.7615 11.0333 53.9278 11.5141 53.9278 12.1413C53.9278 12.8433 53.7467 13.3776 53.3879 13.7442C53.0291 14.1108 52.5197 14.2942 51.8597 14.2942C51.5774 14.2942 51.3832 14.2867 51.2771 14.2703V10.2515C51.4688 10.2137 51.7 10.1956 51.9716 10.1956C52.611 10.1956 53.0965 10.3633 53.429 10.6979ZM59.6589 12.962C59.6589 13.558 59.4885 14.0462 59.1478 14.4292C58.7906 14.823 58.3175 15.0194 57.7266 15.0194C57.1571 15.0194 56.7036 14.8312 56.3654 14.4531C56.028 14.0758 55.8593 13.5998 55.8593 13.026C55.8593 12.426 56.033 11.9336 56.3819 11.5514C56.7308 11.1692 57.1999 10.9777 57.7907 10.9777C58.3602 10.9777 58.8178 11.1659 59.1643 11.5432C59.4934 11.9098 59.6589 12.3833 59.6589 12.962ZM58.7643 12.9899C58.7643 12.6324 58.687 12.3257 58.5331 12.0701C58.352 11.761 58.0944 11.6065 57.7595 11.6065C57.413 11.6065 57.1497 11.761 56.9686 12.0701C56.8139 12.3257 56.7374 12.6373 56.7374 13.0056C56.7374 13.3631 56.8147 13.6697 56.9686 13.9253C57.1554 14.2344 57.4155 14.389 57.7513 14.389C58.0804 14.389 58.3388 14.232 58.5248 13.9171C58.6845 13.6566 58.7643 13.3475 58.7643 12.9899ZM65.2773 11.0577H66.1239L64.9103 14.9318H64.1203L63.6174 13.2492C63.4899 12.8291 63.3862 12.4115 63.3056 11.9973H63.2899C63.215 12.4231 63.1113 12.8398 62.978 13.2492L62.444 14.9318H61.6449L60.5035 11.0569H61.3897L61.8283 12.899C61.9345 13.3347 62.0217 13.7498 62.0917 14.1427H62.1073C62.1715 13.8188 62.2777 13.4062 62.4274 12.9073L62.978 11.0577H63.6808L64.2083 12.8678C64.3359 13.3092 64.4396 13.7341 64.5194 14.1435H64.5432C64.6017 13.7448 64.6898 13.3199 64.8066 12.8678L65.2773 11.0577ZM70.595 14.9317H69.7326V12.7122C69.7326 12.0283 69.4725 11.6864 68.9507 11.6864C68.6948 11.6864 68.4883 11.7801 68.3278 11.9683C68.169 12.1566 68.0883 12.3785 68.0883 12.6325V14.9308H67.2258V12.1639C67.2258 11.8236 67.2151 11.4546 67.1946 11.0551H67.9525L67.9929 11.6609H68.0167C68.1171 11.4726 68.2669 11.3173 68.4636 11.1932C68.6972 11.0485 68.959 10.9753 69.2454 10.9753C69.6074 10.9753 69.9087 11.0921 70.1482 11.3263C70.446 11.6132 70.595 12.0415 70.595 12.6103V14.9317ZM72.1111 14.9317H72.9728V9.27874H72.1111V14.9317ZM78.0508 12.962C78.0508 13.558 77.8805 14.0462 77.5398 14.4292C77.1827 14.823 76.7086 15.0194 76.1186 15.0194C75.5483 15.0194 75.0948 14.8312 74.7574 14.4531C74.42 14.0758 74.2513 13.5998 74.2513 13.026C74.2513 12.426 74.4249 11.9336 74.7739 11.5514C75.1228 11.1692 75.5918 10.9777 76.1819 10.9777C76.7522 10.9777 77.209 11.1659 77.5562 11.5432C77.8854 11.9098 78.0508 12.3833 78.0508 12.962ZM77.1555 12.9899C77.1555 12.6324 77.0781 12.3257 76.9242 12.0701C76.744 11.761 76.4856 11.6065 76.1514 11.6065C75.8042 11.6065 75.5408 11.761 75.3606 12.0701C75.2059 12.3257 75.1294 12.6373 75.1294 13.0056C75.1294 13.3631 75.2067 13.6697 75.3606 13.9253C75.5475 14.2344 75.8075 14.389 76.1433 14.389C76.4725 14.389 76.73 14.232 76.916 13.9171C77.0764 13.6566 77.1555 13.3475 77.1555 12.9899ZM81.4499 14.9315H82.2243C82.1872 14.703 82.1682 14.3947 82.1682 14.0075V12.5805C82.1682 11.512 81.6597 10.9777 80.6458 10.9777C80.1208 10.9777 79.6756 11.0894 79.3151 11.3122L79.4904 11.8777C79.7817 11.687 80.1192 11.5909 80.5018 11.5909C81.0392 11.5909 81.3074 11.8457 81.3074 12.3562V12.4285C80.5891 12.4227 80.0311 12.5452 79.6344 12.7951C79.2369 13.045 79.0395 13.4059 79.0395 13.8793C79.0395 14.1925 79.1407 14.4563 79.3431 14.6684C79.5661 14.9019 79.8624 15.0194 80.2286 15.0194C80.7191 15.0194 81.0968 14.841 81.3618 14.4852H81.3857L81.4499 14.9315ZM81.3289 13.0022V13.5998C81.3289 13.6582 81.324 13.7091 81.3149 13.7511C81.2778 13.9377 81.1782 14.0898 81.0161 14.2098C80.8549 14.329 80.6779 14.389 80.4887 14.389C80.32 14.389 80.1784 14.3389 80.0673 14.2377C79.9562 14.1366 79.9019 13.9853 79.9019 13.7831C79.9019 13.2464 80.3775 12.9858 81.3289 13.0022ZM87.1256 14.9317H86.3602L86.3199 14.3094H86.296C86.0516 14.7828 85.6352 15.0196 85.0501 15.0196C84.5826 15.0196 84.1934 14.8363 83.8848 14.4697C83.5762 14.1031 83.4223 13.6271 83.4223 13.0426C83.4223 12.4155 83.5894 11.9075 83.9251 11.5195C84.2502 11.1578 84.6485 10.977 85.1225 10.977C85.6435 10.977 86.008 11.1521 86.2154 11.5031H86.2318V9.27874H87.0951V13.8877C87.0951 14.265 87.105 14.6127 87.1256 14.9317ZM86.2318 13.2975V12.6514C86.2318 12.5396 86.2236 12.4492 86.208 12.3801C86.1594 12.173 86.0549 11.9987 85.8961 11.8582C85.7356 11.7176 85.5422 11.6469 85.3192 11.6469C84.9974 11.6469 84.7456 11.7743 84.5604 12.03C84.3769 12.2856 84.284 12.612 84.284 13.0107C84.284 13.3937 84.372 13.7044 84.5489 13.9436C84.7357 14.1984 84.9875 14.3258 85.3028 14.3258C85.5858 14.3258 85.8121 14.2198 85.9842 14.0069C86.1504 13.8104 86.2318 13.5737 86.2318 13.2975ZM93.991 14.4292C94.3317 14.0462 94.502 13.558 94.502 12.962C94.502 12.3833 94.3366 11.9098 94.0074 11.5432C93.6618 11.1659 93.2034 10.9777 92.6348 10.9777C92.0431 10.9777 91.574 11.1692 91.2251 11.5514C90.8761 11.9336 90.7025 12.426 90.7025 13.026C90.7025 13.5998 90.8712 14.0758 91.2086 14.4531C91.5476 14.8312 92.0011 15.0194 92.5698 15.0194C93.1615 15.0194 93.6338 14.823 93.991 14.4292ZM93.3771 12.0701C93.531 12.3257 93.6083 12.6324 93.6083 12.9899C93.6083 13.3475 93.5277 13.6566 93.3688 13.9171C93.1828 14.232 92.9236 14.389 92.5945 14.389C92.2587 14.389 91.9986 14.2344 91.8118 13.9253C91.6579 13.6697 91.5806 13.3631 91.5806 13.0056C91.5806 12.6373 91.6571 12.3257 91.8118 12.0701C91.9937 11.761 92.257 11.6065 92.6027 11.6065C92.9384 11.6065 93.1952 11.761 93.3771 12.0701ZM99.1379 14.9317H98.2764V12.7122C98.2764 12.0283 98.0165 11.6864 97.4943 11.6864C97.2377 11.6864 97.0312 11.7801 96.8717 11.9683C96.7122 12.1566 96.6321 12.3785 96.6321 12.6325V14.9308H95.769V12.1639C95.769 11.8236 95.7593 11.4546 95.7383 11.0551H96.4961L96.5357 11.6609H96.56C96.6612 11.4726 96.811 11.3173 97.0069 11.1932C97.2417 11.0485 97.5024 10.9753 97.7898 10.9753C98.1509 10.9753 98.4521 11.0921 98.6918 11.3263C98.9905 11.6132 99.1379 12.0415 99.1379 12.6103V14.9317ZM103.993 11.7022H104.942V11.0561H103.992V10.0919L103.147 10.3467V11.0569H102.58V11.7022H103.147V13.656C103.147 14.1452 103.243 14.4937 103.435 14.7008C103.627 14.9079 103.892 15.0116 104.233 15.0116C104.509 15.0116 104.732 14.9795 104.903 14.9154L104.881 14.2618C104.779 14.289 104.651 14.3022 104.496 14.3022C104.162 14.3022 103.993 14.063 103.993 13.5845V11.7022ZM109.509 14.9317H108.645V12.7287C108.645 12.0341 108.385 11.6864 107.865 11.6864C107.465 11.6864 107.191 11.8878 107.041 12.2906C107.016 12.3752 107.002 12.4788 107.002 12.6005V14.9308H106.139V9.27874H107.002V11.614H107.018C107.289 11.1891 107.679 10.977 108.183 10.977C108.54 10.977 108.836 11.0937 109.07 11.328C109.363 11.6198 109.509 12.0538 109.509 12.6276V14.9317ZM114.186 13.2014C114.207 13.0953 114.219 12.9654 114.219 12.8109C114.219 12.3276 114.104 11.9207 113.873 11.5918C113.586 11.1776 113.162 10.9704 112.604 10.9704C112.034 10.9704 111.583 11.1776 111.248 11.5918C110.928 11.9798 110.77 12.4664 110.77 13.0509C110.77 13.6461 110.94 14.1203 111.284 14.4738C111.626 14.8273 112.099 15.004 112.7 15.004C113.201 15.004 113.634 14.9242 114.002 14.7648L113.867 14.1664C113.552 14.2888 113.203 14.3496 112.821 14.3496C112.476 14.3496 112.193 14.2593 111.974 14.0784C111.735 13.8762 111.611 13.5844 111.6 13.2014H114.186ZM113.229 11.9264C113.345 12.1122 113.402 12.3324 113.395 12.5881H111.6C111.628 12.3276 111.712 12.1047 111.855 11.9182C112.031 11.6839 112.26 11.5672 112.542 11.5672C112.85 11.5672 113.079 11.6872 113.229 11.9264Z" fill="white"/>
</svg>
