<svg width="30" height="16" fill="none" viewBox="-2 -2 30 16" id="apple-pay" x="392" y="250" xmlns="http://www.w3.org/2000/svg"><path d="M5.12 2.347c-.284.333-.739.595-1.193.558-.057-.45.165-.928.426-1.223.284-.342.78-.585 1.183-.604.047.468-.137.927-.416 1.27zm.411.647c-.658-.038-1.22.37-1.533.37-.317 0-.795-.352-1.316-.342a1.947 1.947 0 00-1.652.992c-.71 1.209-.184 2.998.502 3.981.336.487.738 1.02 1.268 1.002.502-.019.7-.323 1.307-.323.61 0 .785.323 1.315.314.55-.01.895-.487 1.231-.974.383-.553.54-1.091.55-1.12-.01-.009-1.061-.407-1.07-1.606-.01-1.002.828-1.48.866-1.508-.474-.693-1.212-.768-1.468-.786zm3.801-1.359v7.301h1.145V6.44h1.586c1.448 0 2.466-.983 2.466-2.407 0-1.423-.999-2.398-2.428-2.398H9.332zm1.145.956h1.321c.994 0 1.562.524 1.562 1.447 0 .922-.568 1.452-1.567 1.452h-1.316v-2.9zm6.144 6.401c.72 0 1.387-.36 1.69-.931h.023v.875h1.06V5.302c0-1.053-.851-1.732-2.162-1.732-1.217 0-2.116.688-2.15 1.634h1.033c.085-.45.506-.745 1.084-.745.7 0 1.093.323 1.093.918v.403l-1.43.084c-1.33.08-2.049.618-2.049 1.555 0 .946.743 1.574 1.808 1.574zm.308-.866c-.61 0-.999-.29-.999-.735 0-.459.374-.726 1.089-.768l1.273-.08v.412c0 .684-.587 1.171-1.363 1.171zm3.88 2.796c1.118 0 1.643-.422 2.102-1.7l2.012-5.582h-1.164l-1.35 4.313h-.023L21.037 3.64H19.84l1.94 5.315-.104.323c-.175.548-.46.759-.966.759-.09 0-.265-.01-.336-.019v.876c.067.018.35.028.436.028z" fill="#2B2B36"/></svg>