<svg width="144" height="45" fill="none" viewBox="-2 -2 144 45" id="appstore-big" x="189" xmlns="http://www.w3.org/2000/svg"><path opacity=".401" d="M134.747 40.296H5.763c-2.836 0-5.16-2.261-5.16-5.023V5.133C.604 2.374 2.928.112 5.764.112h128.984c2.837 0 5.16 2.262 5.16 5.023v30.14c0 2.76-2.323 5.022-5.16 5.022h-.001z" fill="#000"/><path fill-rule="evenodd" clip-rule="evenodd" d="M28.043 10.534c.888-1.11 1.496-2.619 1.327-4.15-1.286.056-2.894.888-3.82 1.973-.82.956-1.55 2.524-1.362 3.998 1.445.107 2.928-.728 3.855-1.82zm3.253 9.622c-.03-3.247 2.642-4.84 2.803-4.936l.003-.002c-1.536-2.236-3.916-2.541-4.753-2.566-1.223-.128-2.424.348-3.405.737-.623.246-1.157.458-1.552.458-.45 0-1-.22-1.616-.468-.805-.323-1.724-.692-2.682-.672-2.175.034-4.21 1.291-5.326 3.244-2.303 3.983-.586 9.835 1.621 13.054 1.104 1.577 2.394 3.337 4.082 3.275.766-.031 1.31-.26 1.87-.495.65-.273 1.323-.556 2.392-.556 1.009 0 1.653.274 2.272.537.593.252 1.162.494 2.005.475 1.772-.029 2.888-1.584 3.954-3.175 1.275-1.807 1.788-3.586 1.808-3.678-.042-.014-3.443-1.31-3.476-5.232zM52.89 32.054h2.308l-4.376-13.51h-2.69l-4.354 13.51h2.248l1.204-3.968h4.395l1.265 3.968zm-2.79-9.16l1.144 3.527h-3.632l1.123-3.528c.295-1.122.51-1.97.643-2.545h.04c.335 1.336.562 2.185.682 2.545zm16.297 4.17c0 1.656-.449 2.966-1.345 3.927-.803.856-1.8 1.283-2.99 1.283-1.285 0-2.208-.46-2.77-1.382h-.041v5.131h-2.167V25.52c0-1.041-.028-2.11-.08-3.207h1.905l.121 1.544h.041c.723-1.163 1.82-1.744 3.291-1.744 1.15 0 2.111.454 2.88 1.363.77.91 1.155 2.105 1.155 3.588zm-2.208.079c0-.949-.214-1.73-.642-2.345-.47-.642-1.098-.963-1.887-.963-.535 0-1.02.179-1.455.531-.435.355-.72.82-.852 1.394a2.83 2.83 0 00-.101.66v1.624c0 .709.217 1.307.652 1.795.435.488 1 .732 1.696.732.816 0 1.451-.315 1.906-.942.455-.629.683-1.457.683-2.486zm12.08 3.848c.898-.961 1.346-2.27 1.346-3.928 0-1.483-.385-2.679-1.152-3.588-.77-.909-1.731-1.363-2.881-1.363-1.473 0-2.57.581-3.291 1.745h-.04l-.122-1.545h-1.906c.053 1.097.08 2.166.08 3.207v10.504h2.168v-5.131h.04c.561.921 1.484 1.382 2.77 1.382 1.19 0 2.187-.427 2.988-1.283zm-1.505-6.193c.43.615.644 1.396.644 2.345 0 1.029-.228 1.857-.683 2.486-.455.627-1.09.942-1.906.942-.698 0-1.263-.245-1.698-.732-.433-.488-.65-1.086-.65-1.795V26.42c0-.173.034-.392.1-.66a2.46 2.46 0 01.852-1.394c.435-.352.92-.53 1.456-.53.79 0 1.417.32 1.885.962zm15.394 3.467c0 1.15-.4 2.084-1.202 2.806-.88.789-2.108 1.183-3.684 1.183-1.456 0-2.623-.28-3.506-.842l.502-1.804a5.947 5.947 0 003.133.863c.816 0 1.451-.184 1.908-.552.454-.367.68-.86.68-1.476a1.88 1.88 0 00-.561-1.385c-.373-.374-.996-.723-1.867-1.044-2.368-.883-3.551-2.175-3.551-3.874 0-1.11.415-2.021 1.245-2.73.828-.71 1.931-1.064 3.312-1.064 1.23 0 2.253.214 3.07.642l-.542 1.764c-.763-.414-1.625-.621-2.59-.621-.762 0-1.357.188-1.784.561-.361.334-.542.741-.542 1.224 0 .533.206.975.621 1.322.361.321 1.017.668 1.968 1.043 1.164.468 2.019 1.015 2.569 1.642.547.626.82 1.408.82 2.342zm4.776-4.328h2.39V22.31h-2.39v-2.425l-2.128.642v1.783h-1.423v1.625h1.423v4.91c0 1.23.242 2.104.723 2.626.483.52 1.151.782 2.007.782.697 0 1.259-.08 1.686-.24l-.06-1.643c-.255.067-.576.1-.963.1-.844 0-1.265-.6-1.265-1.804v-4.73zm13.166 3.166c0 1.498-.429 2.727-1.284 3.688-.898.99-2.089 1.484-3.574 1.484-1.431 0-2.571-.475-3.42-1.423-.85-.948-1.275-2.145-1.275-3.587 0-1.51.437-2.746 1.314-3.708.875-.962 2.056-1.443 3.541-1.443 1.431 0 2.583.474 3.452 1.423.832.92 1.246 2.11 1.246 3.566zm-2.248.07c0-.898-.192-1.669-.581-2.311-.455-.778-1.104-1.166-1.946-1.166-.871 0-1.533.39-1.987 1.166-.389.643-.582 1.426-.582 2.352 0 .898.193 1.669.582 2.31.468.778 1.123 1.166 1.968 1.166.827 0 1.477-.396 1.945-1.186.4-.655.601-1.433.601-2.33zm8.61-3.017c.24 0 .468.02.683.06v-2.064a3.49 3.49 0 00-.542-.04 2.62 2.62 0 00-1.566.522c-.494.387-.855.903-1.084 1.543h-.06l-.079-1.863h-1.888c.054.921.082 1.944.082 3.066l-.021 6.674h2.166v-5.111c0-.775.181-1.417.542-1.924.415-.576 1.004-.863 1.767-.863zm10.375 2.566c0 .388-.026.715-.079.982h-6.502c.026.962.34 1.698.944 2.206.547.454 1.256.681 2.126.681.963 0 1.841-.153 2.631-.46l.339 1.502c-.923.402-2.013.602-3.27.602-1.512 0-2.7-.445-3.564-1.333-.862-.889-1.294-2.081-1.294-3.578 0-1.469.402-2.692 1.206-3.667.842-1.042 1.979-1.563 3.41-1.563 1.406 0 2.47.521 3.193 1.563.572.827.86 1.85.86 3.065zm-2.067-.561c.015-.642-.127-1.196-.42-1.664-.376-.602-.952-.902-1.727-.902-.709 0-1.285.293-1.725.882-.361.468-.576 1.03-.642 1.683h4.514v.001zm-73.318-13.23c.716-.603 1.075-1.503 1.075-2.697 0-1.064-.332-1.882-.995-2.453-.591-.506-1.469-.758-2.632-.758-.66 0-1.269.046-1.835.138v6.528c.434.053.952.08 1.558.08 1.222 0 2.165-.28 2.829-.837zm-.664-4.45c.41.414.616 1.007.616 1.782 0 .867-.224 1.527-.667 1.98-.443.452-1.072.679-1.887.679-.349 0-.589-.01-.72-.03V7.93c.237-.047.523-.069.858-.069.79 0 1.39.207 1.8.62zm7.695 2.796c0 .736-.21 1.339-.631 1.812-.442.486-1.026.728-1.756.728-.703 0-1.263-.232-1.681-.699-.417-.466-.625-1.054-.625-1.762 0-.741.214-1.35.645-1.822.431-.472 1.01-.708 1.74-.708.704 0 1.269.232 1.697.698.407.453.61 1.038.61 1.753zm-1.105.034c0-.442-.096-.82-.286-1.136-.223-.382-.541-.573-.955-.573-.428 0-.753.191-.977.573-.191.316-.286.7-.286 1.155 0 .442.096.82.286 1.136.23.382.552.573.967.573.406 0 .725-.194.955-.583.197-.322.296-.703.296-1.145zm9.09-2.386v-.001zm-1.046 0h1.046l-1.499 4.784h-.976l-.62-2.078a15.553 15.553 0 01-.386-1.546h-.02c-.092.526-.22 1.04-.385 1.546l-.66 2.078h-.986l-1.41-4.785h1.095l.541 2.275c.132.538.24 1.05.326 1.536h.019c.08-.4.21-.91.395-1.526l.68-2.284h.868l.652 2.235c.158.545.286 1.07.384 1.576h.03a15.05 15.05 0 01.325-1.576l.581-2.235zm6.569 4.784h-1.066v-2.741c0-.845-.321-1.267-.965-1.267a.962.962 0 00-.77.348 1.235 1.235 0 00-.296.82v2.839H65.83v-3.417c0-.42-.013-.876-.038-1.37h.936l.05.749h.029c.124-.233.309-.425.552-.578.288-.179.612-.269.965-.269.448 0 .82.144 1.116.433.368.355.552.884.552 1.586v2.867zm1.872 0h1.064V6.728h-1.064v6.981zm7.337-2.432c0 .736-.21 1.339-.632 1.812-.44.486-1.026.728-1.755.728-.704 0-1.265-.232-1.681-.699-.417-.466-.626-1.054-.626-1.762 0-.741.215-1.35.646-1.822.431-.472 1.01-.708 1.74-.708.704 0 1.268.232 1.697.698.406.453.61 1.038.61 1.753zm-1.106.034c0-.442-.096-.82-.286-1.136-.223-.382-.542-.573-.955-.573-.428 0-.754.191-.976.573-.191.316-.286.7-.286 1.155 0 .442.096.82.286 1.136.23.382.552.573.966.573.407 0 .725-.194.955-.583.198-.322.296-.703.296-1.145zm5.304 2.398h.956a7.456 7.456 0 01-.069-1.141v-1.763c0-1.32-.628-1.98-1.88-1.98-.649 0-1.199.139-1.644.414l.217.698a2.23 2.23 0 011.249-.354c.664 0 .995.315.995.945v.09c-.887-.008-1.577.144-2.066.452-.492.309-.735.755-.735 1.34 0 .386.125.712.375.974.275.288.641.433 1.093.433.606 0 1.073-.22 1.4-.66h.03l.079.552zm-.15-2.383v.738a.907.907 0 01-.386.753c-.2.148-.418.222-.651.222a.746.746 0 01-.52-.187c-.138-.125-.205-.312-.205-.561 0-.663.587-.985 1.762-.965zm7.16 2.383h-.945l-.05-.768h-.03c-.301.584-.816.877-1.538.877-.578 0-1.058-.227-1.44-.68-.38-.452-.571-1.04-.571-1.762 0-.774.206-1.402.621-1.88.402-.448.894-.671 1.479-.671.644 0 1.094.216 1.35.65h.02V6.728h1.067v5.692c0 .466.012.895.037 1.289zm-1.104-2.018v-.798a1.212 1.212 0 00-.415-.98 1.048 1.048 0 00-.712-.26c-.398 0-.709.157-.937.473-.227.315-.342.718-.342 1.21 0 .474.109.857.328 1.153.23.314.541.472.93.472.35 0 .63-.131.842-.394a1.31 1.31 0 00.306-.876zm9.584 1.397c.42-.472.631-1.075.631-1.811 0-.715-.204-1.3-.61-1.753-.428-.466-.994-.698-1.696-.698-.731 0-1.31.236-1.741.708-.431.473-.646 1.08-.646 1.822 0 .708.209 1.296.625 1.762.419.467.98.7 1.681.7.731 0 1.315-.243 1.756-.73zm-.758-2.913c.19.316.285.694.285 1.136 0 .442-.1.823-.296 1.145-.23.389-.55.583-.956.583-.415 0-.736-.191-.967-.573-.19-.316-.285-.694-.285-1.136 0-.454.094-.84.285-1.155.225-.382.55-.573.977-.573.415 0 .732.191.957.573zm7.115 3.534h-1.064v-2.741c0-.845-.321-1.267-.966-1.267a.958.958 0 00-.769.348 1.23 1.23 0 00-.296.82v2.839h-1.066v-3.417c0-.42-.012-.876-.038-1.37h.936l.049.749h.03c.125-.233.31-.425.552-.578.29-.179.612-.269.967-.269.446 0 .818.144 1.114.433.369.355.551.884.551 1.586v2.867zm5.997-3.988h1.172v-.798h-1.173V7.732l-1.044.315v.877h-.7v.797h.7v2.413c0 .604.118 1.034.356 1.29.237.256.564.384.985.384.341 0 .617-.04.828-.12l-.028-.806c-.125.033-.283.05-.475.05-.412 0-.621-.296-.621-.887V9.721zm6.813 3.988h-1.067v-2.72c0-.859-.321-1.288-.964-1.288-.494 0-.832.249-1.017.746a1.355 1.355 0 00-.049.383v2.878h-1.065v-6.98h1.065v2.884h.02c.335-.525.816-.787 1.439-.787.441 0 .806.144 1.096.434.361.36.542.896.542 1.604v2.846zm5.777-2.137c.025-.13.04-.291.04-.482 0-.597-.142-1.1-.427-1.506-.354-.511-.878-.767-1.567-.767-.704 0-1.262.256-1.675.767-.395.48-.591 1.08-.591 1.802 0 .735.21 1.321.635 1.758.423.436 1.007.654 1.749.654.619 0 1.154-.098 1.608-.295l-.166-.74a3.54 3.54 0 01-1.292.227c-.427 0-.776-.111-1.046-.335-.296-.25-.449-.61-.463-1.083h3.195zm-1.183-1.574c.144.229.214.501.206.817h-2.218c.035-.322.139-.597.316-.828.217-.289.5-.433.848-.433.381 0 .663.148.848.444z" fill="#fff"/></svg>