<svg width="90" height="21" fill="none" viewBox="-2 -2 90 21" id="bestchange" x="333" y="157" xmlns="http://www.w3.org/2000/svg"><path d="M35.088 17H2.092C.936 17 0 16.114 0 15.02V1.98C0 .886.936 0 2.092 0h32.996v17z" fill="url(#dpaint0_linear)"/><path d="M83.908 17h-48.82V0h48.82C85.064 0 86 .886 86 1.98v13.046C86 16.114 85.064 17 83.908 17z" fill="url(#dpaint1_linear)"/><path d="M10.719 10.31c0 .646-.096 1.16-.282 1.544-.186.385-.434.678-.73.873a2.518 2.518 0 01-.99.398 6.09 6.09 0 01-1.074.097H4.155V3.85h3.84c.495 0 .894.078 1.21.234a2 2 0 01.75.612c.186.254.31.534.379.84.068.307.096.613.089.906-.014.853-.24 1.433-.681 1.739.289.13.523.365.708.703.18.346.269.821.269 1.427zM8.572 6.475c0-.293-.034-.514-.11-.657-.076-.144-.22-.215-.44-.215H6.034V7.47h1.809c.282 0 .468-.091.571-.267.103-.182.158-.43.158-.73zm.262 3.85c0-.26-.021-.47-.07-.619a.996.996 0 00-.171-.358.477.477 0 00-.234-.17.82.82 0 00-.248-.039H6.034v2.248h1.919c.33 0 .564-.085.688-.248.13-.17.193-.436.193-.814zm9.412 2.898h-6.289V3.85h6.178v1.817H13.83v1.726h3.962V9.21H13.83v2.182h4.416v1.83zm7.279-2.768c0 1.974-1.122 2.964-3.365 2.964-1.087 0-1.92-.293-2.49-.873-.571-.586-.853-1.485-.853-2.703h1.823c.014.267.048.52.096.742.048.228.138.417.261.58.124.163.283.287.482.378.2.091.454.137.764.137.509 0 .874-.091 1.1-.267.228-.176.345-.528.345-1.036 0-.267-.049-.462-.138-.58-.09-.117-.234-.208-.427-.28a4.308 4.308 0 00-.798-.182c-.31-.046-.667-.117-1.066-.222a6.845 6.845 0 01-.86-.293 2.127 2.127 0 01-.695-.462c-.2-.202-.35-.463-.46-.782-.111-.319-.166-.742-.166-1.263 0-.385.048-.717.151-.997.097-.28.234-.521.4-.716a2.16 2.16 0 01.57-.476c.22-.124.44-.215.668-.28.227-.065.454-.11.68-.13.228-.02.441-.033.627-.033.647 0 1.177.098 1.576.287.405.189.715.443.942.742.227.306.378.652.454 1.03.076.384.117.761.117 1.133h-1.789a8.354 8.354 0 01-.069-.521 1.321 1.321 0 00-.13-.495.833.833 0 00-.324-.333c-.158-.097-.405-.15-.743-.15-.261 0-.481.02-.653.066a.968.968 0 00-.4.195.66.66 0 00-.199.339 2.067 2.067 0 00-.055.495c0 .228.055.39.158.488.104.098.303.183.592.254.303.079.606.144.915.196.31.052.606.117.895.189.289.071.557.17.805.293.247.124.467.286.653.501.186.215.337.489.44.821.117.332.166.75.166 1.244zm6.831-4.794h-2.263v7.562h-1.878V5.66H25.95V3.85h6.398v1.81h.007z" fill="#fff"/><path d="M44.493 9.777c-.041.488-.13.95-.269 1.394a3.46 3.46 0 01-.598 1.152 2.758 2.758 0 01-1.025.789c-.42.195-.929.293-1.527.293-.688 0-1.273-.111-1.755-.332a2.943 2.943 0 01-1.17-.965c-.295-.423-.516-.944-.646-1.563-.138-.618-.207-1.322-.207-2.117 0-.729.076-1.393.22-1.98.145-.586.372-1.087.682-1.504.31-.41.701-.73 1.17-.951.474-.222 1.038-.332 1.692-.332.66 0 1.197.097 1.616.293.42.195.75.45 1.005.762.248.312.427.67.537 1.068.11.397.185.801.234 1.198h-1.776a7.039 7.039 0 00-.144-.599 1.4 1.4 0 00-.234-.495 1.127 1.127 0 00-.426-.332c-.18-.085-.42-.124-.723-.124-.364 0-.674.059-.922.17a1.33 1.33 0 00-.605.547c-.151.254-.262.586-.33.996-.07.41-.097.919-.097 1.524 0 .613.048 1.101.138 1.486.09.377.22.677.385.885.165.215.365.359.606.437.24.078.502.117.798.117.302 0 .536-.046.715-.13a.983.983 0 00.42-.372 1.93 1.93 0 00.24-.573c.063-.221.118-.469.18-.749h1.816v.007zm7.533 3.445h-1.87V9.178h-2.822v4.044h-1.871V3.85h1.871v3.497h2.821V3.85h1.871v9.372zm7.892 0h-1.961l-.516-1.934h-2.49l-.51 1.934H52.55L55.26 3.85h1.858l2.8 9.372zm-2.945-3.68l-.77-3.015-.792 3.015h1.562zm8.442 3.68l-2.862-5.705v5.705h-1.871V3.85h1.837L65.4 9.516V3.85h1.858v9.372h-1.844zm10.286 0h-1.52v-.95c-.111.227-.249.41-.414.553a2.102 2.102 0 01-.536.339 2.455 2.455 0 01-.606.17 3.945 3.945 0 01-.612.045c-.688 0-1.266-.124-1.727-.378a3.032 3.032 0 01-1.115-1.042c-.282-.443-.481-.97-.598-1.576a10.296 10.296 0 01-.179-1.955c0-3.178 1.259-4.767 3.784-4.767.626 0 1.149.097 1.582.286.434.19.785.45 1.053.762.268.32.461.684.578 1.088.117.41.179.834.179 1.264h-1.913c0-.19-.014-.385-.041-.587a1.347 1.347 0 00-.186-.534 1.056 1.056 0 00-.447-.384c-.2-.098-.468-.15-.812-.15-.344 0-.64.052-.874.163-.24.11-.433.28-.584.515-.152.234-.262.54-.33.912-.07.37-.104.82-.104 1.341 0 .573.028 1.068.09 1.479.061.41.165.742.316.99.151.254.35.436.599.554.247.117.564.175.949.175.22 0 .427-.032.626-.097.2-.066.372-.17.516-.306.145-.137.261-.32.344-.535.083-.214.117-.475.11-.781h-1.761V8.09h3.646v5.132h-.013zm7.45 0h-6.274V3.85h6.165v1.817h-4.294v1.726h3.95V9.21h-3.95v2.182h4.404v1.83z" fill="#363636"/><defs><linearGradient id="dpaint0_linear" x1="17.544" y1="17" x2="17.544" y2="0" gradientUnits="userSpaceOnUse"><stop stop-color="#1C1C1C"/><stop offset="1" stop-color="#4B4B4B"/></linearGradient><linearGradient id="dpaint1_linear" x1="60.544" y1="17" x2="60.544" y2="0" gradientUnits="userSpaceOnUse"><stop stop-color="#BCBCBC"/><stop offset="1" stop-color="#F3F3F3"/></linearGradient></defs></svg>