
<svg width="1255" height="626" fill="none" xmlns="http://www.w3.org/2000/svg"><g opacity=".53" filter="url(#filter0_f)"><circle cx="498.947" cy="346.151" r="5.745" fill="#525371"/></g><g opacity=".53" filter="url(#filter1_f)"><circle cx="374.83" cy="333.08" r="4.83" fill="#525371"/></g><g opacity=".53" filter="url(#filter2_f)"><circle cx="588.459" cy="330.939" r="5.745" transform="rotate(75 588.459 330.939)" fill="#525371"/></g><g opacity=".53" filter="url(#filter3_f)"><circle cx="806.016" cy="406.525" r="4.83" transform="rotate(75 806.016 406.525)" fill="#525371"/></g><g filter="url(#filter4_f)"><circle cx="511.425" cy="299.029" r="4.83" fill="#525371"/></g><g filter="url(#filter5_f)"><circle cx="596.731" cy="301.696" r="4.83" transform="rotate(75 596.731 301.696)" fill="#66678C"/></g><g filter="url(#filter6_f)"><circle cx="825.264" cy="379.317" r="4.83" transform="rotate(75 825.264 379.317)" fill="#66678C"/></g><g opacity=".37" filter="url(#filter7_f)"><circle cx="396.46" cy="354.455" r="6.233" fill="#525371"/></g><g opacity=".37" filter="url(#filter8_f)"><circle cx="153.414" cy="327.041" r="4.83" fill="#525371"/></g><g opacity=".37" filter="url(#filter9_f)"><circle cx="575.8" cy="256.312" r="12.365" transform="rotate(75 575.8 256.312)" fill="#525371" fill-opacity=".32"/></g><g opacity=".37" filter="url(#filter10_f)"><circle cx="609.366" cy="133.904" r="20.892" transform="rotate(75 609.366 133.904)" fill="#525371" fill-opacity=".32"/></g><g opacity=".37" filter="url(#filter11_f)"><circle cx="293.028" cy="317.278" r="25.334" transform="rotate(75 293.028 317.278)" fill="#525371" fill-opacity=".32"/></g><g opacity=".37" filter="url(#filter12_f)"><circle cx="778.589" cy="328.532" r="4.83" transform="rotate(75 778.589 328.532)" fill="#525371"/></g><g opacity=".37" filter="url(#filter13_f)"><circle cx="696.22" cy="128.583" r="4.83" transform="rotate(75 696.22 128.583)" fill="#525371"/></g><g opacity=".37" filter="url(#filter14_f)"><circle cx="430.928" cy="388.426" r="3.149" fill="#9697C0"/></g><g opacity=".37" filter="url(#filter15_f)"><circle cx="486.149" cy="288.399" r="3.149" fill="#525371"/></g><g opacity=".37" filter="url(#filter16_f)"><circle cx="592.773" cy="214.342" r="8.062" transform="rotate(75 592.773 214.342)" fill="#525371" fill-opacity=".32"/></g><g opacity=".37" filter="url(#filter17_f)"><circle cx="759.938" cy="309.056" r="3.149" transform="rotate(75 759.938 309.056)" fill="#525371"/></g><g opacity=".37" filter="url(#filter18_f)"><circle cx="623.65" cy="135.88" r="3.149" transform="rotate(75 623.65 135.88)" fill="#525371"/></g><g opacity=".86" filter="url(#filter19_f)"><circle cx="419.149" cy="214.399" r="3.149" fill="#525371"/></g><g opacity=".86" filter="url(#filter20_f)"><circle cx="546.859" cy="211.044" r="6.185" transform="rotate(75 546.859 211.044)" fill="#525371" fill-opacity=".32"/></g><g opacity=".6" filter="url(#filter21_f)"><circle cx="684.074" cy="178.471" r="4.383" transform="rotate(-15 684.074 178.471)" fill="#525371"/></g><g opacity=".86" filter="url(#filter22_f)"><circle cx="754.727" cy="273.637" r="3.149" transform="rotate(-15 754.727 273.637)" fill="#525371"/></g><g filter="url(#filter23_f)"><circle cx="622.209" cy="368.104" r="2.799" transform="rotate(75 622.209 368.104)" fill="#525371"/></g><g filter="url(#filter24_f)"><circle cx="834.388" cy="437.769" r="2.353" transform="rotate(75 834.388 437.769)" fill="#525371"/></g><g opacity=".35" filter="url(#filter25_f)"><circle cx="537.28" cy="315.193" r="4.83" fill="#525371"/></g><g opacity=".35" filter="url(#filter26_f)"><circle cx="623.42" cy="365.798" r="5.745" transform="rotate(75 623.42 365.798)" fill="#525371"/></g><g opacity=".35" filter="url(#filter27_f)"><circle cx="835.407" cy="435.829" r="4.83" transform="rotate(75 835.407 435.829)" fill="#525371"/></g><g opacity=".57" filter="url(#filter28_f)"><circle cx="512.883" cy="298.6" r="8.049" fill="#525371"/></g><g opacity=".57" filter="url(#filter29_f)"><circle cx="386.533" cy="257.651" r="6.475" fill="#525371"/></g><g opacity=".57" filter="url(#filter30_f)"><circle cx="641.255" cy="329.906" r="9.575" transform="rotate(75 641.255 329.906)" fill="#525371"/></g><g opacity=".57" filter="url(#filter31_f)"><circle cx="848.584" cy="406.146" r="6.169" transform="rotate(75 848.584 406.146)" fill="#525371"/></g><g opacity=".35" filter="url(#filter32_f)"><circle cx="237.572" cy="333.677" r="4.83" fill="#525371"/></g><g opacity=".32" filter="url(#filter33_f)"><circle cx="682.041" cy="237.462" r="8.223" transform="rotate(75 682.041 237.462)" fill="#797A9F"/></g><g opacity=".32" filter="url(#filter34_f)"><circle cx="878.717" cy="323.607" r="8.223" transform="rotate(75 878.717 323.607)" fill="#797A9F"/></g><g opacity=".57" filter="url(#filter35_f)"><circle cx="161.394" cy="276.389" r="3.151" fill="#525371"/></g><g opacity=".57" filter="url(#filter36_f)"><circle cx="632.901" cy="236.988" r="3.151" transform="rotate(75 632.901 236.988)" fill="#525371"/></g><g opacity=".57" filter="url(#filter37_f)"><circle cx="829.577" cy="323.132" r="3.151" transform="rotate(75 829.577 323.132)" fill="#525371"/></g><g opacity=".48" filter="url(#filter38_f)"><circle cx="535.271" cy="317.791" r="2.353" fill="#EEEFFF" fill-opacity=".6"/></g><g filter="url(#filter39_f)"><circle cx="551.653" cy="402.206" r="1.596" fill="#B4B6DF" fill-opacity=".5"/></g><g filter="url(#filter40_f)"><circle cx="792.764" cy="386.827" r="1.596" fill="#B4B6DF" fill-opacity=".6"/></g><g filter="url(#filter41_f)"><circle cx="609.339" cy="181.15" r="1.596" transform="rotate(-90 609.339 181.15)" fill="#B4B6DF" fill-opacity=".6"/></g><g filter="url(#filter42_f)"><circle cx="806.016" cy="267.294" r="1.596" transform="rotate(-90 806.016 267.294)" fill="#B4B6DF" fill-opacity=".5"/></g><g filter="url(#filter43_f)"><circle cx="732.217" cy="314.506" r="1.596" fill="#B4B6DF" fill-opacity=".5"/></g><g filter="url(#filter44_f)"><circle cx="511.425" cy="236.482" r=".873" fill="#B4B6DF" fill-opacity=".4"/></g><g filter="url(#filter45_f)"><circle cx="613.317" cy="240.618" r="1.138" fill="#B4B6DF" fill-opacity=".6"/></g><g filter="url(#filter46_f)"><circle cx="803.006" cy="321.744" r=".873" fill="#B4B6DF"/></g><g filter="url(#filter47_f)"><circle cx="441.24" cy="278.388" r=".873" fill="#fff" fill-opacity=".6"/></g><g opacity=".3" filter="url(#filter48_f)"><circle cx="667.767" cy="182.018" r="3.767" transform="rotate(-90 667.767 182.018)" fill="#B4B6DF"/></g><g filter="url(#filter49_f)"><circle cx="752.139" cy="276.345" r="2.706" transform="rotate(-90 752.139 276.345)" fill="#B4B6DF" fill-opacity=".3"/></g><g filter="url(#filter50_f)"><circle cx="680.72" cy="231.646" r="2.353" fill="#8182A8"/></g><g filter="url(#filter51_f)"><circle cx="877.397" cy="317.791" r="2.353" fill="#8182A8"/></g><g filter="url(#filter52_f)"><circle cx="237.906" cy="334.544" r="2.353" fill="#B4B6DF" fill-opacity=".3"/></g><g filter="url(#filter53_f)" fill="#353544"><path d="M569.89 329.228c-13.774-4.407-28.466 3.053-32.817 16.654a25.498 25.498 0 00-1.223 8.183l7.455 2.385 6.63-20.724 11.093 21.2 21.328-10.826-6.631 20.723 7.455 2.386a25.557 25.557 0 003.754-7.373c4.362-13.598-3.27-28.2-17.044-32.608z"/><path d="M550.536 350.519l-4.183 13.072-11.065-3.54c2.336 8.588 9.143 15.998 18.643 19.037 9.5 3.04 19.344.958 26.232-4.679l-11.065-3.541 4.182-13.072-14.794 7.056-7.95-14.333z"/></g><g opacity=".6" filter="url(#filter54_f)"><path d="M213.674 288.272l4.553-14.793-4.959 1.514 1.316-3.643 4.554-1.415 6.363-20.934a1.071 1.071 0 011.021-.751h6.498c.714 0 1.219.689 1.022 1.366l-5.169 17.279 4.664-1.317-.849 3.52-4.812 1.452-3.36 10.732h17.107c.517 0 .886.492.751.985l-1.489 5.439a.779.779 0 01-.751.566h-26.46z" fill="#373748"/></g><g opacity=".61" filter="url(#filter55_f)"><path d="M310.502 242.193c-1.418-3.457-4.881-4.277-9.167-3.688l-1.223-5.313-3.254.742 1.205 5.295c-.852.191-1.73.345-2.6.563l-1.206-5.267-3.255.742 1.223 5.313c-.698.177-6.563 1.501-6.563 1.501l.797 3.457s2.394-.596 2.366-.543c1.323-.303 1.926.367 2.197.991l3.364 14.561c.034.421-.058 1.134-.974 1.351.053.028-2.366.534-2.366.534l.241 4.015s5.81-1.307 6.571-1.474l1.239 5.375 3.255-.742-1.238-5.412c.896-.181 1.766-.371 2.609-.563l1.23 5.384 3.254-.742-1.239-5.367c5.011-1.06 8.607-4.084 8.018-8.869-.38-2.882-3.474-5.33-6.095-5.67 1.659-1.377 2.536-3.429 1.611-6.174zm-1.903 12.536c.509 4.738-6.105 5.137-8.308 5.64l-1.704-7.115c2.211-.503 9.046-2.712 10.012 1.475zm-3.714-9.721c.569 4.212-5.098 4.548-6.929 4.963l-1.551-6.458c1.84-.405 7.201-2.432 8.48 1.495z" fill="#353544"/></g><g filter="url(#filter56_f)" fill="#353544"><path d="M431.313 300.584l-5.151 24.724 14.953 3.201 9.707-11.856-19.509-16.069zM442.025 331.1l9.778-11.653-6.241 21.731-3.537-10.078zM427.142 328.103l14.883 2.997 3.537 10.078-18.42-13.075z"/></g><g opacity=".66" filter="url(#filter57_f)" fill="#3A3A4C"><path d="M455.649 245.918l4.875-10.013 10.013 4.875 2.834-5.821-15.834-7.709-7.709 15.834 5.821 2.834zM447.831 247.202L445 253.016l5.814 2.831 2.831-5.814-5.814-2.831zM467.771 256.906l-10.013-4.875-2.834 5.821 15.834 7.709 7.709-15.834-5.821-2.834-4.875 10.013zM477.483 236.969l-2.831 5.814 5.814 2.831 2.831-5.814-5.814-2.831z"/><path d="M462.635 242.016l5.902 2.874-2.873 5.902-5.902-2.873.485-1.048.268-.499 2.12-4.356z"/></g><g filter="url(#filter58_f)"><path fill-rule="evenodd" clip-rule="evenodd" d="M317.27 314.246c1.795 13.269-7.506 25.479-20.774 27.274-13.269 1.795-25.48-7.506-27.274-20.774-1.795-13.269 7.506-25.48 20.774-27.274 13.269-1.795 25.479 7.506 27.274 20.774zm-34.597 23.952a9.583 9.583 0 00-.288-.568c-.232-.431-.438-.814-.567-1.537a28.563 28.563 0 01-.421-.237c.284-.107.568-.215.848-.331a12.739 12.739 0 00-.651-.455 45.57 45.57 0 00.77-.477 6.81 6.81 0 00-.142-.154 4.274 4.274 0 01-.307-.352c.009-.124.074-.233.14-.343.064-.108.129-.216.142-.341.053-.424-.218-.769-.468-1.087a6.828 6.828 0 01-.116-.151 55.702 55.702 0 00-.776-.901c-.489-.563-.979-1.124-1.43-1.718-.277-.352-.43-.766-.583-1.181-.103-.278-.206-.557-.347-.817-.058-.108-.119-.216-.18-.324-.309-.548-.621-1.104-.703-1.739-.05-.325-.121-.649-.191-.973-.136-.626-.273-1.252-.267-1.894.091-1.091.207-2.179.321-3.268.018-.902-.144-1.793-.304-2.677l-.05-.272c-.248-1.585.31-3.276 1.489-4.374.43-.443.913-.827 1.396-1.21.363-.289.726-.577 1.067-.891.251-.267.258-.652.263-1.005l.003-.138c-.03-1.039-.33-2.027-.63-3.015-.223-.732-.445-1.465-.558-2.22-.103-.573-.083-1.199.274-1.687l.495-.152c.867.415 1.447 1.224 1.993 1.984l.011.016c.49.605 1.175.925 1.863 1.246.496.231.993.463 1.418.802.684-.151 1.38-.237 2.076-.324l.117-.014c.721-.09 1.418-.293 2.114-.495.675-.196 1.35-.392 2.048-.486.109-.019.22-.037.331-.054.49-.076.99-.153 1.408-.424.554-1.006 1.159-1.982 1.763-2.958.531-.857 1.062-1.713 1.559-2.59.085-.106.166-.223.248-.342.265-.383.54-.782 1.021-.859.288-.047.525.129.747.294.046.034.091.068.136.099 1.733 1.545 2.854 3.7 3.316 5.962.073.516.062 1.037.051 1.557-.016.752-.032 1.503.206 2.235l.354-.041.444-.053.075.569c.177.148.356.31.34.563.24.138.466.302.653.509-.014.196.062.365.139.534.05.111.1.223.126.343l.239.066.276.073-.29.3c.367.295.718.615.977 1.013l-.157.157-.182.186.002.003c.152.257.311.527.289.838.168.298.415.527.662.755.098.091.195.182.288.277.471.571.782 1.238 1.094 1.904.306.657.613 1.313 1.071 1.879l.177.211c.902 1.072 1.81 2.153 2.475 3.391.563 1.154.764 2.449.67 3.723-.054.558-.406.748-.669.889-.288.156-.469.253-.034.713.185.312.433.577.68.842.34.364.679.726.849 1.206a23.136 23.136 0 002.403-13.828c-1.72-12.721-13.428-21.638-26.149-19.917-12.721 1.72-21.638 13.428-19.917 26.148 1.06 7.841 5.914 14.236 12.46 17.587zm-1.258-31.321c-.095-.399-.191-.797-.277-1.198-.04-.17-.084-.341-.128-.512-.192-.751-.388-1.516-.248-2.287a27.857 27.857 0 001.928 3.648c.026.052.057.105.089.16.148.256.316.545.141.818-.325.45-.675.89-1.088 1.264a33.969 33.969 0 00-.417-1.893zm15.308-2.973c.319-.602.639-1.204.934-1.818.148-.441.369-.849.59-1.258.256-.474.513-.947.654-1.472.587.641 1.09 1.358 1.53 2.107.737 1.346.891 2.907.893 4.414.028 1.449.299 3.051 1.431 4.06-.695-.305-1.409-.576-2.123-.847-1.625-.618-3.255-1.237-4.676-2.256a1.023 1.023 0 01-.491-.527c.252-.248.377-.569.502-.89.04-.103.08-.206.124-.306a76.8 76.8 0 01.632-1.207zm-15.958 12.641c-.168-.51-.13-1.073.04-1.577.314-.909 1.745-1.224 2.335-.418.344.505.446 1.205.181 1.766-.367.481-.831 1.022-1.502.976-.442-.213-.508-.813-.557-1.258l-.003-.032c-.037-.593.566-.879 1.04-1.046-.196-.271-.489-.159-.754-.056-.061.023-.12.046-.177.063-.567.285-.649 1.028-.603 1.582zm9.589-2.503c.045-.073.089-.146.131-.218.73-.897 1.995-.732 2.987-.478.21.133.444.215.677.297.169.059.339.119.5.198.149.184.046.4-.054.611-.047.1-.094.198-.112.291-.506.786-1.357 1.338-2.249 1.587-.451-.459-.893-1.018-.869-1.695.055-.352.368-.494.659-.627l.136-.063c-.178-.421-.703-.233-1.066-.102l-.107.038c-.632.182-.786.948-.666 1.513l.03.125c.09.38.199.842.65.889-.107.046-.237.101-.338.004a2.439 2.439 0 00-.35-.1c-.237-.056-.475-.112-.644-.29-.077-.724.318-1.375.685-1.98zm-10.052 8.519c.028-.794.48-1.476.959-2.077.099-.172.189-.349.279-.526.177-.35.354-.699.601-1.009.001.354-.201.631-.405.91-.189.26-.38.521-.408.847 1.222-.529 2.654-.893 3.945-.384.626.322 1.05 1.253.534 1.846-.133.185-.265.375-.396.566-.59.854-1.195 1.731-2.103 2.25-1.023.336-1.852-.565-2.444-1.267.136-.221.369-.318.601-.415.108-.045.216-.09.313-.148-.179-.111-.384-.145-.59-.18a2.103 2.103 0 01-.464-.116 5.532 5.532 0 00-.422-.297zm2.652 4.36c-.439.031-.915.066-1.29-.206.102-.02.205-.033.308-.045.176-.022.352-.043.52-.098.157-.069.3-.163.443-.258a2.48 2.48 0 01.547-.297c.768-.155 1.541-.085 2.313-.014.313.029.625.057.937.071.212.012.424.039.636.066.495.063.991.127 1.484-.002.789-.13 1.483-.504 2.176-.879.517-.279 1.034-.559 1.592-.737-.049.198-.125.392-.282.53-.911.883-2.087 1.406-3.239 1.896a3.815 3.815 0 01-2.159.223 20.903 20.903 0 01-1.495-.135c-.805-.092-1.61-.184-2.422-.12l-.069.005zm2.686 8.193c-.839-.513-1.5-1.277-2.086-2.055.493.242.919.591 1.343.939l.284.231c.201-.018.264-.144.19-.377.517.329 1.047.645 1.632.839.114.041.231.091.35.142.47.201.972.416 1.447.157l.073-.201c.832.196 1.717.275 2.565.147a.966.966 0 00-.539-.47l.566-.113c1.686-.335 3.376-.672 4.985-1.291.039-.136-.012-.235-.152-.299.415-.214.83-.427 1.246-.639.864-.442 1.729-.884 2.583-1.344-.282-.227-.632-.118-.97-.013-.156.048-.31.096-.453.109l-.015-.057-.015-.056c.436-.219.782-.556 1.127-.893.186-.181.371-.362.571-.525.319-.267.621-.556.922-.844.494-.472.987-.944 1.557-1.324.14-.104.308-.156.473-.207l.064-.02c.007.196-.148.277-.302.358-.076.04-.152.08-.209.133-.565.462-1.041 1.013-1.516 1.565-.381.441-.762.883-1.189 1.279.134.129.318.121.498.112.205-.009.403-.018.513.179-.558.254-1.102.537-1.646.82-.592.309-1.184.617-1.795.888.13.137.313.16.491.182l.062.008c-.95.746-2.084 1.193-3.204 1.634-.187.074-.374.147-.56.222-.508.183-1.042.264-1.576.346-.252.039-.504.077-.753.127l.109.414c-.51.106-1.026.067-1.542.029-.494-.037-.988-.074-1.476.016.1.091.201.181.303.27l-.054.062-.089.1c-.642-.035-1.254-.252-1.837-.509-.248-.079-.484-.191-.72-.302-.386-.183-.772-.365-1.205-.401l.006.118c.011.175.021.352-.057.514z" fill="#404156" fill-opacity=".56"/></g><path d="M484.117 372.927c1.569-.818 3.485 1.08 2.649 2.648-.484 1.278-2.32 1.618-3.258.644-.992-.935-.668-2.783.609-3.292zm-16.879 1.819c.953-.392 2.16.481 2.062 1.52.102 1.128-1.277 1.959-2.249 1.423-1.287-.499-1.14-2.589.187-2.942v-.001zm34.569 2.974c-1.489-.18-1.725-2.522-.291-2.995 1.113-.543 2.133.475 2.296 1.529-.233.901-.987 1.725-2.005 1.465v.001zm-30.729 4.209c1.594-1.008 3.868.493 3.623 2.344-.083 1.87-2.566 2.952-3.967 1.689-1.353-.993-1.149-3.27.344-4.032v-.001zm24.329 1.07c.712-1.83 3.593-1.888 4.402-.102.8 1.388-.184 3.107-1.609 3.579-1.888.352-3.681-1.688-2.792-3.475l-.001-.002zm-13.323 3.372c-.016-1.575 1.419-2.748 2.916-2.856.993.199 2.075.623 2.501 1.624.794 1.383.089 3.285-1.345 3.92-.656.367-1.432.23-2.146.187-1.092-.536-2.011-1.587-1.926-2.874v-.001zm-25.101 2.295c1.456-.895 3.42.739 2.869 2.32-.304 1.368-2.143 1.924-3.194 1.051-1.123-.818-.944-2.786.325-3.371zm53.901-.003c1.235-.959 3.273.141 3.126 1.699.083 1.423-1.679 2.495-2.905 1.763-1.351-.607-1.488-2.685-.221-3.463v.001zm-21.741 2.83c2.038-.732 4.459.144 5.621 1.961 1.533 2.222.717 5.605-1.661 6.88-2.464 1.508-6.063.23-6.973-2.522-1.033-2.464.472-5.547 3.013-6.319zm-11.959.244c2.259-1.066 5.299-.173 6.39 2.139 1.284 2.249.291 5.381-2.004 6.543-2.299 1.305-5.542.316-6.653-2.1-1.249-2.335-.141-5.507 2.267-6.582zm-11.975 4.094c.173-1.456 1.545-2.403 2.93-2.501 1.493.18 2.685 1.339 2.847 2.851-.098 1.496-1.254 2.958-2.838 2.948-1.744.151-3.272-1.584-2.939-3.297v-.001zm35.369-2.183c1.79-1.042 4.276.475 4.196 2.531.123 2.179-2.628 3.715-4.41 2.436-1.852-1.064-1.708-4.06.214-4.967zm-28.261 7.678c2.093-.576 4.487.41 5.514 2.335 1.123 1.936.664 4.627-1.082 6.048-2.241 2.083-6.372 1.247-7.565-1.597-1.37-2.607.294-6.1 3.133-6.786zm22.683-.011c2.035-.582 4.426.201 5.52 2.056 1.446 2.121.756 5.283-1.398 6.65-2.256 1.587-5.75.754-6.991-1.728-1.505-2.567.01-6.195 2.869-6.978zm-36.148 2.419c1.808-.684 3.813 1.312 3.08 3.104-.447 1.633-2.749 2.238-3.938 1.033-1.391-1.13-.876-3.646.858-4.137zm49.015 2.602c-.052-1.498 1.044-2.825 2.581-2.909 1.238.196 2.442 1.195 2.344 2.543.114 1.781-2.032 2.991-3.549 2.155-.711-.362-1.076-1.091-1.376-1.79v.001zm-57.906-1.724c1.088-.475 2.434.468 2.186 1.676-.058 1.368-2.078 1.894-2.82.751-.656-.792-.264-2.016.634-2.427zm68.596-.029c.766-.545 1.995-.153 2.299.742.514.977-.43 2.317-1.53 2.151-1.544.141-2.045-2.213-.769-2.893zm-40.331 6.567c2.863-.745 5.94 1.641 5.958 4.59.187 2.979-2.844 5.62-5.774 4.932-2.265-.364-4.042-2.546-3.969-4.835-.006-2.189 1.646-4.224 3.786-4.687h-.001zm11.338-.006c2.905-.812 6.074 1.618 6.028 4.633.154 2.924-2.783 5.477-5.652 4.897-2.7-.35-4.692-3.316-3.938-5.936.38-1.746 1.839-3.166 3.562-3.594zm-21.86 1.814c2.011-.343 3.896 1.901 3.081 3.809-.595 2.035-3.556 2.587-4.865.925-1.535-1.596-.389-4.513 1.784-4.734zm33.248.093c1.793-.751 3.993.799 3.856 2.745.072 2.143-2.645 3.62-4.399 2.369-1.987-1.123-1.624-4.425.543-5.114zm9.293 9.321c-.702-1.309.573-3.043 2.026-2.801.724-.012 1.23.558 1.692 1.037.095.775.255 1.699-.389 2.298-.874 1.106-2.854.791-3.329-.533v-.001zm-53.267-2.436c1.357-.904 3.312.444 3.006 2.032-.162 1.404-1.929 2.206-3.096 1.411-1.25-.723-1.204-2.783.09-3.442v-.001zm26.827 2.94c1.778-.784 4.042.763 3.874 2.721.132 2.164-2.67 3.662-4.407 2.362-1.929-1.116-1.608-4.398.534-5.084l-.001.001zm-12.427 2.897c1.514-.796 3.546.58 3.408 2.276.046 1.391-1.312 2.577-2.685 2.371-1.138-.024-1.879-1.044-2.244-2.013.019-1.057.454-2.234 1.521-2.632v-.002zm25.169.026c1.557-.962 3.77.42 3.623 2.232.04 1.894-2.461 3.108-3.911 1.863-1.404-.975-1.233-3.319.288-4.095zm4.377 10.821c-.691-1.048.123-2.311 1.248-2.549.904.184 1.86.864 1.67 1.912-.132 1.419-2.207 1.854-2.918.637zm-34.744-.91c.276-.831.944-1.656 1.922-1.44 1.425.101 1.849 2.249.601 2.911-1.122.757-2.423-.279-2.523-1.471zm16.762.953c.273-1.229 1.863-1.826 2.912-1.174.691.298.894 1.073 1.072 1.731a32.4 32.4 0 00-.263 1.03c-.429.509-.979 1.018-1.695.999-1.327.156-2.525-1.345-2.026-2.586z" fill="#353544"/><defs><filter id="filter0_f" x="490.202" y="337.406" width="17.49" height="17.49" filterUnits="userSpaceOnUse" color-interpolation-filters="sRGB"><feFlood flood-opacity="0" result="BackgroundImageFix"/><feBlend in="SourceGraphic" in2="BackgroundImageFix" result="shape"/><feGaussianBlur stdDeviation="1.5" result="effect1_foregroundBlur"/></filter><filter id="filter1_f" x="367" y="325.25" width="15.659" height="15.659" filterUnits="userSpaceOnUse" color-interpolation-filters="sRGB"><feFlood flood-opacity="0" result="BackgroundImageFix"/><feBlend in="SourceGraphic" in2="BackgroundImageFix" result="shape"/><feGaussianBlur stdDeviation="1.5" result="effect1_foregroundBlur"/></filter><filter id="filter2_f" x="579.713" y="322.191" width="17.493" height="17.493" filterUnits="userSpaceOnUse" color-interpolation-filters="sRGB"><feFlood flood-opacity="0" result="BackgroundImageFix"/><feBlend in="SourceGraphic" in2="BackgroundImageFix" result="shape"/><feGaussianBlur stdDeviation="1.5" result="effect1_foregroundBlur"/></filter><filter id="filter3_f" x="798.185" y="398.695" width="15.662" height="15.662" filterUnits="userSpaceOnUse" color-interpolation-filters="sRGB"><feFlood flood-opacity="0" result="BackgroundImageFix"/><feBlend in="SourceGraphic" in2="BackgroundImageFix" result="shape"/><feGaussianBlur stdDeviation="1.5" result="effect1_foregroundBlur"/></filter><filter id="filter4_f" x="503.596" y="291.199" width="15.659" height="15.659" filterUnits="userSpaceOnUse" color-interpolation-filters="sRGB"><feFlood flood-opacity="0" result="BackgroundImageFix"/><feBlend in="SourceGraphic" in2="BackgroundImageFix" result="shape"/><feGaussianBlur stdDeviation="1.5" result="effect1_foregroundBlur"/></filter><filter id="filter5_f" x="588.9" y="293.867" width="15.662" height="15.662" filterUnits="userSpaceOnUse" color-interpolation-filters="sRGB"><feFlood flood-opacity="0" result="BackgroundImageFix"/><feBlend in="SourceGraphic" in2="BackgroundImageFix" result="shape"/><feGaussianBlur stdDeviation="1.5" result="effect1_foregroundBlur"/></filter><filter id="filter6_f" x="817.433" y="371.488" width="15.662" height="15.662" filterUnits="userSpaceOnUse" color-interpolation-filters="sRGB"><feFlood flood-opacity="0" result="BackgroundImageFix"/><feBlend in="SourceGraphic" in2="BackgroundImageFix" result="shape"/><feGaussianBlur stdDeviation="1.5" result="effect1_foregroundBlur"/></filter><filter id="filter7_f" x="387.228" y="345.223" width="18.465" height="18.465" filterUnits="userSpaceOnUse" color-interpolation-filters="sRGB"><feFlood flood-opacity="0" result="BackgroundImageFix"/><feBlend in="SourceGraphic" in2="BackgroundImageFix" result="shape"/><feGaussianBlur stdDeviation="1.5" result="effect1_foregroundBlur"/></filter><filter id="filter8_f" x="145.584" y="319.211" width="15.659" height="15.659" filterUnits="userSpaceOnUse" color-interpolation-filters="sRGB"><feFlood flood-opacity="0" result="BackgroundImageFix"/><feBlend in="SourceGraphic" in2="BackgroundImageFix" result="shape"/><feGaussianBlur stdDeviation="1.5" result="effect1_foregroundBlur"/></filter><filter id="filter9_f" x="560.432" y="240.945" width="30.736" height="30.736" filterUnits="userSpaceOnUse" color-interpolation-filters="sRGB"><feFlood flood-opacity="0" result="BackgroundImageFix"/><feBlend in="SourceGraphic" in2="BackgroundImageFix" result="shape"/><feGaussianBlur stdDeviation="1.5" result="effect1_foregroundBlur"/></filter><filter id="filter10_f" x="585.469" y="110.008" width="47.794" height="47.794" filterUnits="userSpaceOnUse" color-interpolation-filters="sRGB"><feFlood flood-opacity="0" result="BackgroundImageFix"/><feBlend in="SourceGraphic" in2="BackgroundImageFix" result="shape"/><feGaussianBlur stdDeviation="1.5" result="effect1_foregroundBlur"/></filter><filter id="filter11_f" x="264.688" y="288.938" width="56.681" height="56.681" filterUnits="userSpaceOnUse" color-interpolation-filters="sRGB"><feFlood flood-opacity="0" result="BackgroundImageFix"/><feBlend in="SourceGraphic" in2="BackgroundImageFix" result="shape"/><feGaussianBlur stdDeviation="1.5" result="effect1_foregroundBlur"/></filter><filter id="filter12_f" x="770.759" y="320.703" width="15.662" height="15.662" filterUnits="userSpaceOnUse" color-interpolation-filters="sRGB"><feFlood flood-opacity="0" result="BackgroundImageFix"/><feBlend in="SourceGraphic" in2="BackgroundImageFix" result="shape"/><feGaussianBlur stdDeviation="1.5" result="effect1_foregroundBlur"/></filter><filter id="filter13_f" x="688.389" y="120.754" width="15.662" height="15.662" filterUnits="userSpaceOnUse" color-interpolation-filters="sRGB"><feFlood flood-opacity="0" result="BackgroundImageFix"/><feBlend in="SourceGraphic" in2="BackgroundImageFix" result="shape"/><feGaussianBlur stdDeviation="1.5" result="effect1_foregroundBlur"/></filter><filter id="filter14_f" x="424.779" y="382.277" width="12.298" height="12.298" filterUnits="userSpaceOnUse" color-interpolation-filters="sRGB"><feFlood flood-opacity="0" result="BackgroundImageFix"/><feBlend in="SourceGraphic" in2="BackgroundImageFix" result="shape"/><feGaussianBlur stdDeviation="1.5" result="effect1_foregroundBlur"/></filter><filter id="filter15_f" x="480" y="282.25" width="12.298" height="12.298" filterUnits="userSpaceOnUse" color-interpolation-filters="sRGB"><feFlood flood-opacity="0" result="BackgroundImageFix"/><feBlend in="SourceGraphic" in2="BackgroundImageFix" result="shape"/><feGaussianBlur stdDeviation="1.5" result="effect1_foregroundBlur"/></filter><filter id="filter16_f" x="581.709" y="203.277" width="22.128" height="22.128" filterUnits="userSpaceOnUse" color-interpolation-filters="sRGB"><feFlood flood-opacity="0" result="BackgroundImageFix"/><feBlend in="SourceGraphic" in2="BackgroundImageFix" result="shape"/><feGaussianBlur stdDeviation="1.5" result="effect1_foregroundBlur"/></filter><filter id="filter17_f" x="753.788" y="302.906" width="12.299" height="12.299" filterUnits="userSpaceOnUse" color-interpolation-filters="sRGB"><feFlood flood-opacity="0" result="BackgroundImageFix"/><feBlend in="SourceGraphic" in2="BackgroundImageFix" result="shape"/><feGaussianBlur stdDeviation="1.5" result="effect1_foregroundBlur"/></filter><filter id="filter18_f" x="617.501" y="129.73" width="12.299" height="12.299" filterUnits="userSpaceOnUse" color-interpolation-filters="sRGB"><feFlood flood-opacity="0" result="BackgroundImageFix"/><feBlend in="SourceGraphic" in2="BackgroundImageFix" result="shape"/><feGaussianBlur stdDeviation="1.5" result="effect1_foregroundBlur"/></filter><filter id="filter19_f" x="413" y="208.25" width="12.298" height="12.298" filterUnits="userSpaceOnUse" color-interpolation-filters="sRGB"><feFlood flood-opacity="0" result="BackgroundImageFix"/><feBlend in="SourceGraphic" in2="BackgroundImageFix" result="shape"/><feGaussianBlur stdDeviation="1.5" result="effect1_foregroundBlur"/></filter><filter id="filter20_f" x="537.673" y="201.855" width="18.373" height="18.373" filterUnits="userSpaceOnUse" color-interpolation-filters="sRGB"><feFlood flood-opacity="0" result="BackgroundImageFix"/><feBlend in="SourceGraphic" in2="BackgroundImageFix" result="shape"/><feGaussianBlur stdDeviation="1.5" result="effect1_foregroundBlur"/></filter><filter id="filter21_f" x="676.689" y="171.086" width="14.769" height="14.769" filterUnits="userSpaceOnUse" color-interpolation-filters="sRGB"><feFlood flood-opacity="0" result="BackgroundImageFix"/><feBlend in="SourceGraphic" in2="BackgroundImageFix" result="shape"/><feGaussianBlur stdDeviation="1.5" result="effect1_foregroundBlur"/></filter><filter id="filter22_f" x="748.577" y="267.488" width="12.299" height="12.299" filterUnits="userSpaceOnUse" color-interpolation-filters="sRGB"><feFlood flood-opacity="0" result="BackgroundImageFix"/><feBlend in="SourceGraphic" in2="BackgroundImageFix" result="shape"/><feGaussianBlur stdDeviation="1.5" result="effect1_foregroundBlur"/></filter><filter id="filter23_f" x="617.409" y="363.305" width="9.599" height="9.599" filterUnits="userSpaceOnUse" color-interpolation-filters="sRGB"><feFlood flood-opacity="0" result="BackgroundImageFix"/><feBlend in="SourceGraphic" in2="BackgroundImageFix" result="shape"/><feGaussianBlur stdDeviation="1" result="effect1_foregroundBlur"/></filter><filter id="filter24_f" x="830.035" y="433.414" width="8.707" height="8.707" filterUnits="userSpaceOnUse" color-interpolation-filters="sRGB"><feFlood flood-opacity="0" result="BackgroundImageFix"/><feBlend in="SourceGraphic" in2="BackgroundImageFix" result="shape"/><feGaussianBlur stdDeviation="1" result="effect1_foregroundBlur"/></filter><filter id="filter25_f" x="529.45" y="307.363" width="15.659" height="15.659" filterUnits="userSpaceOnUse" color-interpolation-filters="sRGB"><feFlood flood-opacity="0" result="BackgroundImageFix"/><feBlend in="SourceGraphic" in2="BackgroundImageFix" result="shape"/><feGaussianBlur stdDeviation="1.5" result="effect1_foregroundBlur"/></filter><filter id="filter26_f" x="614.674" y="357.051" width="17.493" height="17.493" filterUnits="userSpaceOnUse" color-interpolation-filters="sRGB"><feFlood flood-opacity="0" result="BackgroundImageFix"/><feBlend in="SourceGraphic" in2="BackgroundImageFix" result="shape"/><feGaussianBlur stdDeviation="1.5" result="effect1_foregroundBlur"/></filter><filter id="filter27_f" x="827.576" y="428" width="15.662" height="15.662" filterUnits="userSpaceOnUse" color-interpolation-filters="sRGB"><feFlood flood-opacity="0" result="BackgroundImageFix"/><feBlend in="SourceGraphic" in2="BackgroundImageFix" result="shape"/><feGaussianBlur stdDeviation="1.5" result="effect1_foregroundBlur"/></filter><filter id="filter28_f" x="501.834" y="287.551" width="22.099" height="22.099" filterUnits="userSpaceOnUse" color-interpolation-filters="sRGB"><feFlood flood-opacity="0" result="BackgroundImageFix"/><feBlend in="SourceGraphic" in2="BackgroundImageFix" result="shape"/><feGaussianBlur stdDeviation="1.5" result="effect1_foregroundBlur"/></filter><filter id="filter29_f" x="368.059" y="239.176" width="36.95" height="36.95" filterUnits="userSpaceOnUse" color-interpolation-filters="sRGB"><feFlood flood-opacity="0" result="BackgroundImageFix"/><feBlend in="SourceGraphic" in2="BackgroundImageFix" result="shape"/><feGaussianBlur stdDeviation="6" result="effect1_foregroundBlur"/></filter><filter id="filter30_f" x="619.678" y="308.328" width="43.154" height="43.154" filterUnits="userSpaceOnUse" color-interpolation-filters="sRGB"><feFlood flood-opacity="0" result="BackgroundImageFix"/><feBlend in="SourceGraphic" in2="BackgroundImageFix" result="shape"/><feGaussianBlur stdDeviation="6" result="effect1_foregroundBlur"/></filter><filter id="filter31_f" x="830.413" y="387.977" width="36.342" height="36.342" filterUnits="userSpaceOnUse" color-interpolation-filters="sRGB"><feFlood flood-opacity="0" result="BackgroundImageFix"/><feBlend in="SourceGraphic" in2="BackgroundImageFix" result="shape"/><feGaussianBlur stdDeviation="6" result="effect1_foregroundBlur"/></filter><filter id="filter32_f" x="229.742" y="325.848" width="15.659" height="15.659" filterUnits="userSpaceOnUse" color-interpolation-filters="sRGB"><feFlood flood-opacity="0" result="BackgroundImageFix"/><feBlend in="SourceGraphic" in2="BackgroundImageFix" result="shape"/><feGaussianBlur stdDeviation="1.5" result="effect1_foregroundBlur"/></filter><filter id="filter33_f" x="669.815" y="225.238" width="24.451" height="24.451" filterUnits="userSpaceOnUse" color-interpolation-filters="sRGB"><feFlood flood-opacity="0" result="BackgroundImageFix"/><feBlend in="SourceGraphic" in2="BackgroundImageFix" result="shape"/><feGaussianBlur stdDeviation="2" result="effect1_foregroundBlur"/></filter><filter id="filter34_f" x="866.492" y="311.383" width="24.451" height="24.451" filterUnits="userSpaceOnUse" color-interpolation-filters="sRGB"><feFlood flood-opacity="0" result="BackgroundImageFix"/><feBlend in="SourceGraphic" in2="BackgroundImageFix" result="shape"/><feGaussianBlur stdDeviation="2" result="effect1_foregroundBlur"/></filter><filter id="filter35_f" x="149.243" y="264.238" width="24.301" height="24.301" filterUnits="userSpaceOnUse" color-interpolation-filters="sRGB"><feFlood flood-opacity="0" result="BackgroundImageFix"/><feBlend in="SourceGraphic" in2="BackgroundImageFix" result="shape"/><feGaussianBlur stdDeviation="4.5" result="effect1_foregroundBlur"/></filter><filter id="filter36_f" x="620.75" y="224.836" width="24.303" height="24.303" filterUnits="userSpaceOnUse" color-interpolation-filters="sRGB"><feFlood flood-opacity="0" result="BackgroundImageFix"/><feBlend in="SourceGraphic" in2="BackgroundImageFix" result="shape"/><feGaussianBlur stdDeviation="4.5" result="effect1_foregroundBlur"/></filter><filter id="filter37_f" x="817.426" y="310.98" width="24.303" height="24.303" filterUnits="userSpaceOnUse" color-interpolation-filters="sRGB"><feFlood flood-opacity="0" result="BackgroundImageFix"/><feBlend in="SourceGraphic" in2="BackgroundImageFix" result="shape"/><feGaussianBlur stdDeviation="4.5" result="effect1_foregroundBlur"/></filter><filter id="filter38_f" x="530.918" y="313.438" width="8.706" height="8.706" filterUnits="userSpaceOnUse" color-interpolation-filters="sRGB"><feFlood flood-opacity="0" result="BackgroundImageFix"/><feBlend in="SourceGraphic" in2="BackgroundImageFix" result="shape"/><feGaussianBlur stdDeviation="1" result="effect1_foregroundBlur"/></filter><filter id="filter39_f" x="549.057" y="399.609" width="5.192" height="5.192" filterUnits="userSpaceOnUse" color-interpolation-filters="sRGB"><feFlood flood-opacity="0" result="BackgroundImageFix"/><feBlend in="SourceGraphic" in2="BackgroundImageFix" result="shape"/><feGaussianBlur stdDeviation=".5" result="effect1_foregroundBlur"/></filter><filter id="filter40_f" x="790.167" y="384.23" width="5.192" height="5.192" filterUnits="userSpaceOnUse" color-interpolation-filters="sRGB"><feFlood flood-opacity="0" result="BackgroundImageFix"/><feBlend in="SourceGraphic" in2="BackgroundImageFix" result="shape"/><feGaussianBlur stdDeviation=".5" result="effect1_foregroundBlur"/></filter><filter id="filter41_f" x="606.743" y="178.555" width="5.192" height="5.192" filterUnits="userSpaceOnUse" color-interpolation-filters="sRGB"><feFlood flood-opacity="0" result="BackgroundImageFix"/><feBlend in="SourceGraphic" in2="BackgroundImageFix" result="shape"/><feGaussianBlur stdDeviation=".5" result="effect1_foregroundBlur"/></filter><filter id="filter42_f" x="803.42" y="264.699" width="5.192" height="5.192" filterUnits="userSpaceOnUse" color-interpolation-filters="sRGB"><feFlood flood-opacity="0" result="BackgroundImageFix"/><feBlend in="SourceGraphic" in2="BackgroundImageFix" result="shape"/><feGaussianBlur stdDeviation=".5" result="effect1_foregroundBlur"/></filter><filter id="filter43_f" x="729.621" y="311.91" width="5.192" height="5.192" filterUnits="userSpaceOnUse" color-interpolation-filters="sRGB"><feFlood flood-opacity="0" result="BackgroundImageFix"/><feBlend in="SourceGraphic" in2="BackgroundImageFix" result="shape"/><feGaussianBlur stdDeviation=".5" result="effect1_foregroundBlur"/></filter><filter id="filter44_f" x="509.553" y="234.609" width="3.745" height="3.745" filterUnits="userSpaceOnUse" color-interpolation-filters="sRGB"><feFlood flood-opacity="0" result="BackgroundImageFix"/><feBlend in="SourceGraphic" in2="BackgroundImageFix" result="shape"/><feGaussianBlur stdDeviation=".5" result="effect1_foregroundBlur"/></filter><filter id="filter45_f" x="611.18" y="238.48" width="4.275" height="4.275" filterUnits="userSpaceOnUse" color-interpolation-filters="sRGB"><feFlood flood-opacity="0" result="BackgroundImageFix"/><feBlend in="SourceGraphic" in2="BackgroundImageFix" result="shape"/><feGaussianBlur stdDeviation=".5" result="effect1_foregroundBlur"/></filter><filter id="filter46_f" x="801.134" y="319.871" width="3.745" height="3.745" filterUnits="userSpaceOnUse" color-interpolation-filters="sRGB"><feFlood flood-opacity="0" result="BackgroundImageFix"/><feBlend in="SourceGraphic" in2="BackgroundImageFix" result="shape"/><feGaussianBlur stdDeviation=".5" result="effect1_foregroundBlur"/></filter><filter id="filter47_f" x="439.367" y="276.516" width="3.745" height="3.745" filterUnits="userSpaceOnUse" color-interpolation-filters="sRGB"><feFlood flood-opacity="0" result="BackgroundImageFix"/><feBlend in="SourceGraphic" in2="BackgroundImageFix" result="shape"/><feGaussianBlur stdDeviation=".5" result="effect1_foregroundBlur"/></filter><filter id="filter48_f" x="663" y="177.25" width="9.533" height="9.533" filterUnits="userSpaceOnUse" color-interpolation-filters="sRGB"><feFlood flood-opacity="0" result="BackgroundImageFix"/><feBlend in="SourceGraphic" in2="BackgroundImageFix" result="shape"/><feGaussianBlur stdDeviation=".5" result="effect1_foregroundBlur"/></filter><filter id="filter49_f" x="748.434" y="272.641" width="7.412" height="7.412" filterUnits="userSpaceOnUse" color-interpolation-filters="sRGB"><feFlood flood-opacity="0" result="BackgroundImageFix"/><feBlend in="SourceGraphic" in2="BackgroundImageFix" result="shape"/><feGaussianBlur stdDeviation=".5" result="effect1_foregroundBlur"/></filter><filter id="filter50_f" x="676.367" y="227.293" width="8.706" height="8.706" filterUnits="userSpaceOnUse" color-interpolation-filters="sRGB"><feFlood flood-opacity="0" result="BackgroundImageFix"/><feBlend in="SourceGraphic" in2="BackgroundImageFix" result="shape"/><feGaussianBlur stdDeviation="1" result="effect1_foregroundBlur"/></filter><filter id="filter51_f" x="873.044" y="313.438" width="8.706" height="8.706" filterUnits="userSpaceOnUse" color-interpolation-filters="sRGB"><feFlood flood-opacity="0" result="BackgroundImageFix"/><feBlend in="SourceGraphic" in2="BackgroundImageFix" result="shape"/><feGaussianBlur stdDeviation="1" result="effect1_foregroundBlur"/></filter><filter id="filter52_f" x="233.553" y="330.191" width="8.706" height="8.706" filterUnits="userSpaceOnUse" color-interpolation-filters="sRGB"><feFlood flood-opacity="0" result="BackgroundImageFix"/><feBlend in="SourceGraphic" in2="BackgroundImageFix" result="shape"/><feGaussianBlur stdDeviation="1" result="effect1_foregroundBlur"/></filter><filter id="filter53_f" x="532.288" y="324.961" width="58.874" height="58.524" filterUnits="userSpaceOnUse" color-interpolation-filters="sRGB"><feFlood flood-opacity="0" result="BackgroundImageFix"/><feBlend in="SourceGraphic" in2="BackgroundImageFix" result="shape"/><feGaussianBlur stdDeviation="1.5" result="effect1_foregroundBlur"/></filter><filter id="filter54_f" x="210.268" y="245.25" width="35.134" height="46.023" filterUnits="userSpaceOnUse" color-interpolation-filters="sRGB"><feFlood flood-opacity="0" result="BackgroundImageFix"/><feBlend in="SourceGraphic" in2="BackgroundImageFix" result="shape"/><feGaussianBlur stdDeviation="1.5" result="effect1_foregroundBlur"/></filter><filter id="filter55_f" x="282.662" y="230.191" width="35.387" height="43.156" filterUnits="userSpaceOnUse" color-interpolation-filters="sRGB"><feFlood flood-opacity="0" result="BackgroundImageFix"/><feBlend in="SourceGraphic" in2="BackgroundImageFix" result="shape"/><feGaussianBlur stdDeviation="1.5" result="effect1_foregroundBlur"/></filter><filter id="filter56_f" x="422.162" y="296.586" width="33.641" height="48.594" filterUnits="userSpaceOnUse" color-interpolation-filters="sRGB"><feFlood flood-opacity="0" result="BackgroundImageFix"/><feBlend in="SourceGraphic" in2="BackgroundImageFix" result="shape"/><feGaussianBlur stdDeviation="2" result="effect1_foregroundBlur"/></filter><filter id="filter57_f" x="441" y="223.25" width="46.297" height="46.31" filterUnits="userSpaceOnUse" color-interpolation-filters="sRGB"><feFlood flood-opacity="0" result="BackgroundImageFix"/><feBlend in="SourceGraphic" in2="BackgroundImageFix" result="shape"/><feGaussianBlur stdDeviation="2" result="effect1_foregroundBlur"/></filter><filter id="filter58_f" x="268" y="292.25" width="50.492" height="50.492" filterUnits="userSpaceOnUse" color-interpolation-filters="sRGB"><feFlood flood-opacity="0" result="BackgroundImageFix"/><feBlend in="SourceGraphic" in2="BackgroundImageFix" result="shape"/><feGaussianBlur stdDeviation=".5" result="effect1_foregroundBlur"/></filter></defs></svg>