<svg fill="none" viewBox="-2 -2 28 28" width="28" height="28" id="coinify" x="151" y="85" xmlns="http://www.w3.org/2000/svg"><circle cx="12" cy="12" r="12" fill="#EDC675"/><path d="M18.425 10.764c-.98.078-1.953.155-2.924.23-.369.027-.737.055-1.106.08-.07.007-.165-.084-.221-.153a4.668 4.668 0 01-.214-.29c-.127-.181-.253-.361-.417-.5-.68-.567-1.48-.719-2.327-.424a2.63 2.63 0 00-.73.384c-.498.376-.792.917-.892 1.593-.172 1.165.577 2.294 1.724 2.634a2.386 2.386 0 002.063-.337c.322-.227.593-.538.781-.92a.323.323 0 01.086-.112c.07-.055.155-.049.257-.04h.002l2.098.165h.001l1.419.112c.225.018.45.039.675.06l.354.031c-.147.935-.493 1.767-.921 2.576l1.348-1.344 2.434-2.425.085-.085-3.866-3.864.003.005-.004-.004c.441.808.77 1.646.927 2.578l-.635.05zM3.281 13.28c.847.847 1.69 1.688 2.53 2.53-1.376-2.556-1.362-5.083 0-7.626L3.638 10.36l-.002.002L2 12l1.281 1.28zm5.85 5.351c2.25.916 4.486.757 6.736-.5l-1.107 1.103-2.185 2.18-.587.586h-.001l-3.83-3.832.003.002-.001-.002c.324.177.648.331.972.463zm6.746-12.757l.002.001-2.248-2.246-1.374-1.371L12 2c-1.3 1.297-2.573 2.568-3.847 3.837 2.59-1.426 5.152-1.406 7.727.04l-.002-.003z" fill="#fff"/></svg>