
<svg width="139" height="41" viewBox="0 0 139 41" fill="none" xmlns="http://www.w3.org/2000/svg">
    <path d="M133.852 41H5.14815C2.31667 41 0 38.6937 0 35.875V5.125C0 2.30625 2.31667 0 5.14815 0H133.852C136.683 0 139 2.30625 139 5.125V35.875C139 38.6937 136.683 41 133.852 41Z" fill="black"/>
    <path d="M51.1808 11.9724C51.1808 12.7133 50.9593 13.3043 50.5163 13.7365C50.0202 14.2569 49.3645 14.5215 48.5671 14.5215C47.7963 14.5215 47.1495 14.2569 46.609 13.7277C46.0685 13.1985 45.8027 12.5369 45.8027 11.7608C45.8027 10.9757 46.0685 10.323 46.609 9.79383C47.1495 9.26461 47.7963 9 48.5671 9C48.9481 9 49.3114 9.07056 49.6569 9.22051C50.0024 9.37045 50.2771 9.5645 50.4897 9.81147L50.0202 10.2789C49.6658 9.86439 49.1873 9.6527 48.5671 9.6527C48.0089 9.6527 47.5216 9.84675 47.114 10.2437C46.7065 10.6318 46.5027 11.1433 46.5027 11.7696C46.5027 12.3958 46.7065 12.9074 47.114 13.2955C47.5216 13.6836 48.0089 13.8864 48.5671 13.8864C49.1607 13.8864 49.6569 13.6924 50.0556 13.2955C50.3125 13.0397 50.4632 12.6781 50.4986 12.2194H48.5671V11.5755H51.1454C51.1631 11.7167 51.1808 11.849 51.1808 11.9724Z" fill="white" stroke="white" stroke-width="0.254038" stroke-miterlimit="10"/>
    <path d="M55.2661 9.76733H52.8473V11.4432H55.0269V12.0782H52.8473V13.7541H55.2661V14.4068H52.165V9.11462H55.2661V9.76733Z" fill="white" stroke="white" stroke-width="0.254038" stroke-miterlimit="10"/>
    <path d="M58.1453 14.4068H57.4631V9.76733H55.9746V9.11462H59.625V9.76733H58.1365V14.4068H58.1453Z" fill="white" stroke="white" stroke-width="0.254038" stroke-miterlimit="10"/>
    <path d="M62.2734 14.4068V9.11462H62.9557V14.4068H62.2734Z" fill="white" stroke="white" stroke-width="0.254038" stroke-miterlimit="10"/>
    <path d="M65.9862 14.4068H65.3039V9.76733H63.8154V9.11462H67.4658V9.76733H65.9773V14.4068H65.9862Z" fill="white" stroke="white" stroke-width="0.254038" stroke-miterlimit="10"/>
    <path d="M74.3852 13.7189C73.8624 14.2569 73.2157 14.5215 72.436 14.5215C71.6563 14.5215 71.0095 14.2569 70.4867 13.7189C69.964 13.1808 69.707 12.5281 69.707 11.7608C69.707 10.9934 69.964 10.3319 70.4867 9.80265C71.0095 9.26461 71.6563 9 72.436 9C73.2068 9 73.8536 9.26461 74.3852 9.80265C74.9079 10.3407 75.1737 10.9934 75.1737 11.7608C75.1649 12.5369 74.9079 13.1896 74.3852 13.7189ZM70.9918 13.2778C71.3816 13.6748 71.8689 13.8688 72.436 13.8688C73.003 13.8688 73.4903 13.6748 73.8802 13.2778C74.27 12.8809 74.4738 12.3782 74.4738 11.7608C74.4738 11.1433 74.2789 10.6406 73.8802 10.2437C73.4903 9.84675 73.003 9.64388 72.436 9.64388C71.8689 9.64388 71.3816 9.83793 70.9918 10.2348C70.6019 10.6406 70.3981 11.1433 70.3981 11.7608C70.3981 12.3782 70.6019 12.8809 70.9918 13.2778Z" fill="white" stroke="white" stroke-width="0.254038" stroke-miterlimit="10"/>
    <path d="M76.1309 14.4068V9.11462H76.9637L79.5509 13.2337H79.5775L79.5509 12.2106V9.11462H80.2331V14.4068H79.5243L76.822 10.0937H76.7954L76.822 11.1168V14.4068H76.1309Z" fill="white" stroke="white" stroke-width="0.254038" stroke-miterlimit="10"/>
    <path d="M69.5393 22.1245C67.4572 22.1245 65.756 23.7034 65.756 25.8732C65.756 28.0341 67.4572 29.6218 69.5393 29.6218C71.6214 29.6218 73.3226 28.0341 73.3226 25.8732C73.3226 23.7034 71.6214 22.1245 69.5393 22.1245ZM69.5393 28.1488C68.3963 28.1488 67.4129 27.2139 67.4129 25.8732C67.4129 24.5237 68.3963 23.5975 69.5393 23.5975C70.6823 23.5975 71.6657 24.5237 71.6657 25.8732C71.6657 27.2139 70.6734 28.1488 69.5393 28.1488ZM61.2817 22.1245C59.1995 22.1245 57.4984 23.7034 57.4984 25.8732C57.4984 28.0341 59.1995 29.6218 61.2817 29.6218C63.3638 29.6218 65.0649 28.0341 65.0649 25.8732C65.0649 23.7034 63.3638 22.1245 61.2817 22.1245ZM61.2817 28.1488C60.1387 28.1488 59.1552 27.2139 59.1552 25.8732C59.1552 24.5237 60.1387 23.5975 61.2817 23.5975C62.4246 23.5975 63.4081 24.5237 63.4081 25.8732C63.4081 27.2139 62.4246 28.1488 61.2817 28.1488ZM51.4646 23.28V24.8677H55.2922C55.177 25.7585 54.8758 26.42 54.4239 26.8699C53.8657 27.4255 52.9974 28.0341 51.4735 28.0341C49.1167 28.0341 47.2738 26.1466 47.2738 23.8004C47.2738 21.4542 49.1167 19.5667 51.4735 19.5667C52.7405 19.5667 53.6708 20.0606 54.353 20.7045L55.4783 19.5843C54.5214 18.6758 53.2544 17.979 51.4646 17.979C48.2395 17.979 45.5283 20.5898 45.5283 23.8092C45.5283 27.0198 48.2395 29.6394 51.4646 29.6394C53.2101 29.6394 54.5214 29.0749 55.5491 28.0077C56.6035 26.9581 56.9313 25.4763 56.9313 24.2855C56.9313 23.9151 56.9047 23.5711 56.8427 23.2888H51.4646V23.28ZM91.6099 24.5148C91.2998 23.6769 90.3429 22.1245 88.3848 22.1245C86.4445 22.1245 84.8319 23.6416 84.8319 25.8732C84.8319 27.9724 86.4267 29.6218 88.5709 29.6218C90.2986 29.6218 91.2998 28.5722 91.7074 27.9636L90.4227 27.108C89.9974 27.7343 89.4126 28.1488 88.5709 28.1488C87.7292 28.1488 87.1267 27.7607 86.7457 27.011L91.7871 24.9382L91.6099 24.5148ZM86.471 25.7673C86.4267 24.3208 87.5963 23.5799 88.438 23.5799C89.0936 23.5799 89.6518 23.9062 89.8379 24.3737L86.471 25.7673ZM82.3776 29.4013H84.0345V18.3759H82.3776V29.4013ZM79.6664 22.9625H79.6044C79.2323 22.5215 78.5235 22.1245 77.6198 22.1245C75.7325 22.1245 74.0048 23.7739 74.0048 25.8908C74.0048 27.99 75.7325 29.6306 77.6198 29.6306C78.5146 29.6306 79.2323 29.2337 79.6044 28.7751H79.6576V29.3131C79.6576 30.7508 78.8868 31.5182 77.6463 31.5182C76.6363 31.5182 76.0072 30.7949 75.7503 30.1863L74.3061 30.7861C74.7225 31.7828 75.8211 33 77.6463 33C79.5867 33 81.2258 31.8622 81.2258 29.0926V22.3539H79.6576V22.9625H79.6664ZM77.7615 28.1488C76.6186 28.1488 75.6617 27.1962 75.6617 25.8908C75.6617 24.5678 76.6186 23.6064 77.7615 23.6064C78.8867 23.6064 79.7728 24.5766 79.7728 25.8908C79.7816 27.1962 78.8956 28.1488 77.7615 28.1488ZM99.3714 18.3759H95.4109V29.4013H97.0678V25.2205H99.3803C101.214 25.2205 103.013 23.8974 103.013 21.7982C103.013 19.699 101.197 18.3759 99.3714 18.3759ZM99.4068 23.6857H97.0589V19.9018H99.4068C100.647 19.9018 101.347 20.925 101.347 21.7894C101.347 22.6538 100.647 23.6857 99.4068 23.6857ZM109.631 22.1069C108.435 22.1069 107.195 22.6361 106.681 23.7916L108.152 24.4002C108.462 23.7916 109.047 23.5887 109.658 23.5887C110.517 23.5887 111.386 24.1003 111.395 25.0088V25.1234C111.093 24.9559 110.455 24.7001 109.667 24.7001C108.081 24.7001 106.477 25.5645 106.477 27.1786C106.477 28.6516 107.771 29.6042 109.224 29.6042C110.331 29.6042 110.952 29.1102 111.333 28.5281H111.386V29.3837H112.981V25.1587C112.989 23.2006 111.519 22.1069 109.631 22.1069ZM109.428 28.1488C108.887 28.1488 108.134 27.8754 108.134 27.2139C108.134 26.3671 109.073 26.0408 109.888 26.0408C110.615 26.0408 110.96 26.1995 111.395 26.4112C111.271 27.4255 110.385 28.1488 109.428 28.1488ZM118.802 22.3451L116.906 27.1257H116.852L114.886 22.3451H113.105L116.055 29.0308L114.372 32.7442H116.099L120.645 22.3451H118.802ZM103.917 29.4013H105.573V18.3759H103.917V29.4013Z" fill="white"/>
    <path d="M18.4164 9.59128C18.1594 9.86471 18.0088 10.2881 18.0088 10.8261V30.3366C18.0088 30.8835 18.1594 31.3069 18.4164 31.5715L18.4784 31.6332L29.4561 20.7137V20.5814V20.4491L18.4784 9.52954L18.4164 9.59128Z" fill="url(#paint0_linear)"/>
    <path d="M33.1153 24.356L29.4561 20.7132V20.5809V20.4486L33.1153 16.8058L33.195 16.8499L37.5276 19.3019C38.7681 19.9987 38.7681 21.1454 37.5276 21.851L33.195 24.303L33.1153 24.356Z" fill="url(#paint1_linear)"/>
    <path d="M33.1957 24.3118L29.4567 20.5808L18.417 31.5709C18.8246 32.0031 19.4979 32.056 20.2599 31.6238L33.1957 24.3118Z" fill="url(#paint2_linear)"/>
    <path d="M33.1948 16.8588L20.2501 9.53791C19.4882 9.10572 18.8148 9.15864 18.4072 9.59083L29.4558 20.5809L33.1948 16.8588Z" fill="url(#paint3_linear)"/>
    <path opacity="0.2" d="M33.114 24.2238L20.2491 31.5005C19.5314 31.9062 18.8846 31.8798 18.4771 31.5093L18.415 31.5711L18.4771 31.6328C18.8935 32.0033 19.5314 32.0297 20.2491 31.624L33.1938 24.3031L33.114 24.2238Z" fill="black"/>
    <path opacity="0.12" d="M18.4154 31.4475C18.1584 31.1741 18.0078 30.7507 18.0078 30.2126V30.345C18.0078 30.8918 18.1584 31.3152 18.4154 31.5798L18.4774 31.5181L18.4154 31.4475Z" fill="black"/>
    <path opacity="0.12" d="M37.5286 21.7274L33.1074 24.2236L33.1872 24.303L37.5198 21.8509C38.14 21.4981 38.4501 21.0395 38.4501 20.5808C38.4058 20.9954 38.0957 21.4099 37.5286 21.7274Z" fill="black"/>
    <path opacity="0.25" d="M20.2505 9.66193L37.5278 19.4348C38.0859 19.7524 38.4049 20.1581 38.4581 20.5815C38.4581 20.1228 38.148 19.6553 37.5278 19.3113L20.2505 9.53844C19.0101 8.84164 18 9.42378 18 10.835V10.9673C18 9.54726 19.0189 8.96512 20.2505 9.66193Z" fill="white"/>
    <defs>
        <linearGradient id="paint0_linear" x1="28.4811" y1="10.6231" x2="13.6787" y2="25.4924" gradientUnits="userSpaceOnUse">
            <stop stop-color="#00A0FF"/>
            <stop offset="0.00657445" stop-color="#00A1FF"/>
            <stop offset="0.2601" stop-color="#00BEFF"/>
            <stop offset="0.5122" stop-color="#00D2FF"/>
            <stop offset="0.7604" stop-color="#00DFFF"/>
            <stop offset="1" stop-color="#00E3FF"/>
        </linearGradient>
        <linearGradient id="paint1_linear" x1="39.144" y1="20.5822" x2="17.7052" y2="20.5822" gradientUnits="userSpaceOnUse">
            <stop stop-color="#FFE000"/>
            <stop offset="0.4087" stop-color="#FFBD00"/>
            <stop offset="0.7754" stop-color="#FFA500"/>
            <stop offset="1" stop-color="#FF9C00"/>
        </linearGradient>
        <linearGradient id="paint2_linear" x1="31.164" y1="22.6061" x2="11.0907" y2="42.7701" gradientUnits="userSpaceOnUse">
            <stop stop-color="#FF3A44"/>
            <stop offset="1" stop-color="#C31162"/>
        </linearGradient>
        <linearGradient id="paint3_linear" x1="15.6315" y1="3.09583" x2="24.5952" y2="12.0999" gradientUnits="userSpaceOnUse">
            <stop stop-color="#32A071"/>
            <stop offset="0.0685" stop-color="#2DA771"/>
            <stop offset="0.4762" stop-color="#15CF74"/>
            <stop offset="0.8009" stop-color="#06E775"/>
            <stop offset="1" stop-color="#00F076"/>
        </linearGradient>
    </defs>
</svg>
