<svg width="28" height="28" fill="none" viewBox="-2 -2 28 28" id="guardarian" x="151" y="113" xmlns="http://www.w3.org/2000/svg"><circle cx="12" cy="12" r="12" fill="url(#ipaint0_linear)"/><path d="M16.522 11.747c.876 1.169-1.689 3.428-1.112 2.495H9.946c-.591-.773-.997-1.618-1.193-2.495h7.77z" fill="url(#ipaint1_linear)"/><path d="M14.939 18.482a14.15 14.15 0 01-2.505 1.598l-.434.219-.437-.218C7.453 18.018 5 14.465 5 10.57V6h2.507v4.572c0 .291.02.582.059.871.316 2.366 1.912 4.548 4.425 6.017a.034.034 0 00.008.006l.006-.004.01-.007a9.047 9.047 0 002.924 1.027z" fill="url(#ipaint2_linear)"/><path d="M18.922 11.747a9.325 9.325 0 01-.735 2.617c-.688 1.544-1.792 2.95-3.247 4.119a9.05 9.05 0 01-2.921-1.027 11.264 11.264 0 001.04-.693 9.076 9.076 0 003.463-5.016h2.4z" fill="url(#ipaint3_linear)"/><path d="M19 6.001H7.507v2.506H19V6z" fill="url(#ipaint4_linear)"/><path d="M19 8.507v2.065c0 .085-.003.17-.005.256h-2.509c.003-.085.004-.171.004-.256V8.507H19z" fill="url(#ipaint5_linear)"/><defs><linearGradient id="ipaint0_linear" x1="4" y1="17.5" x2="23.5" y2="7" gradientUnits="userSpaceOnUse"><stop stop-color="#17369A"/><stop offset="1" stop-color="#1238B1"/></linearGradient><linearGradient id="ipaint1_linear" x1="19.055" y1="14.563" x2="9.495" y2="11.986" gradientUnits="userSpaceOnUse"><stop offset=".14" stop-color="#ADADAD"/><stop offset=".29" stop-color="#CBCBCB"/><stop offset=".43" stop-color="#E2E2E2"/><stop offset=".59" stop-color="#F2F2F2"/><stop offset=".77" stop-color="#FCFCFC"/><stop offset="1" stop-color="#fff"/></linearGradient><linearGradient id="ipaint2_linear" x1="15.525" y1="22.726" x2="2.012" y2="3.879" gradientUnits="userSpaceOnUse"><stop stop-color="#ADADAD"/><stop offset=".17" stop-color="#CBCBCB"/><stop offset=".34" stop-color="#E2E2E2"/><stop offset=".52" stop-color="#F2F2F2"/><stop offset=".73" stop-color="#FCFCFC"/><stop offset="1" stop-color="#fff"/></linearGradient><linearGradient id="ipaint3_linear" x1="12.174" y1="19.874" x2="18.593" y2="11.738" gradientUnits="userSpaceOnUse"><stop offset=".15" stop-color="#ADADAD"/><stop offset=".29" stop-color="#CBCBCB"/><stop offset=".44" stop-color="#E2E2E2"/><stop offset=".6" stop-color="#F2F2F2"/><stop offset=".77" stop-color="#FCFCFC"/><stop offset="1" stop-color="#fff"/></linearGradient><linearGradient id="ipaint4_linear" x1="6.402" y1="13.763" x2="11.826" y2="8.61" gradientUnits="userSpaceOnUse"><stop offset=".14" stop-color="#ADADAD"/><stop offset=".43" stop-color="#C9C9C9"/><stop offset="1" stop-color="#fff"/></linearGradient><linearGradient id="ipaint5_linear" x1="17.743" y1="7.192" x2="17.743" y2="10.828" gradientUnits="userSpaceOnUse"><stop offset=".09" stop-color="#ADADAD"/><stop offset=".24" stop-color="#CBCBCB"/><stop offset=".425" stop-color="#E2E2E2"/><stop offset=".537" stop-color="#F2F2F2"/><stop offset="1" stop-color="#fff"/></linearGradient></defs></svg>