<svg id="anim-3" viewBox="0 0 330 327" width="330" height="327" xmlns="http://www.w3.org/2000/svg">
    <defs>
        <linearGradient x1="0%" y1="50%" y2="50%" id="anim-3a">
            <stop stop-color="#1A6DFF" offset="0%"></stop>
            <stop stop-color="#C822FF" offset="100%"></stop>
        </linearGradient>
        <linearGradient x1="115.585%" y1="-8.189%" x2="50%" y2="102.799%" id="anim-3b">
            <stop stop-color="#2B2B37" offset="0%"></stop>
            <stop stop-color="#5C5780" offset="100%"></stop>
        </linearGradient>
    </defs>
    <g transform="translate(0 1)" fill="none" fill-rule="evenodd">
        <circle class="scaled-1" fill="#FFF" fill-rule="nonzero" cx="165" cy="161" r="113"></circle>
        <circle class="ring-1" stroke="#2B2B37" opacity=".3" cx="166.5" cy="162.5" r="137.5"></circle>
        <circle class="ring-2" stroke="#D7DFE8" stroke-width=".5" opacity=".702" cx="166.5" cy="162.5" r="162.5"></circle>
        <g fill-rule="nonzero" class="scaled-2">
            <path fill="url(#anim-3a)" d="M33.824 18.36h114.034v13.53H33.824z" transform="translate(90 106)"></path>
            <path fill="#D7DFE8" d="M121.89 127.26h115v10.63h-115zm7.925 43.488h-21.647c-1.494 0-2.706-1.155-2.706-2.577v-10.304c0-1.423 1.212-2.577 2.706-2.577h21.647c1.494 0 2.706 1.153 2.706 2.576v10.308c0 1.423-1.21 2.578-2.702 2.578z"></path>
            <path d="M139.526 0H39.49c-7.26 0-13.164 5.862-13.164 13.068v13.068H13.163C5.905 26.136 0 32 0 39.206v62.726C0 109.138 5.905 115 13.163 115H113.2c7.26 0 13.163-5.862 13.163-13.068V88.864h13.163c7.258 0 13.163-5.863 13.163-13.07V13.07c0-7.208-5.91-13.07-13.167-13.07zm-18.428 101.932c0 4.323-3.543 7.84-7.897 7.84H13.167c-4.354 0-7.898-3.517-7.898-7.84V39.205c0-4.323 3.544-7.84 7.898-7.84H113.2c4.355 0 7.898 3.517 7.898 7.84v62.727zM113.2 26.136H31.59V20.91h115.834v10.454H123.73v.08c-2.4-3.2-6.21-5.308-10.53-5.308zm34.224 49.66c0 4.322-3.544 7.84-7.898 7.84h-13.163V65.34h10.53v-5.226h-10.53v-5.228h10.53V49.66h-10.53V39.204c0-.894-.092-1.77-.266-2.614h21.327v39.205zM31.59 15.68v-2.614c0-4.323 3.544-7.84 7.9-7.84h100.036c4.354 0 7.898 3.517 7.898 7.84v2.614H31.59z" fill="url(#anim-3b)" transform="translate(90 106)"></path>
            <path fill="#403E56" d="M174.076 155.286h27.06v5.798h-27.06z"></path>
            <path fill="#575277" d="M183.74 181.378h15.46v5.798h-15.46zm-25.127 0h15.462v5.798h-15.462zm-27.058 0h15.462v5.798h-15.462zm-26.093 0h15.462v5.798h-15.462z"></path>
            <path fill="#5C5780" d="M105.462 196.84h41.555v5.798h-41.555zm68.614 0h27.06v5.798h-27.06z"></path>
            <path fill="#403E56" d="M174.076 165.916h27.06v4.832h-27.06z"></path>
        </g>
        <g class="star-container">
            <path class="star-1" d="M289 249.5c0-11.72-2.28-14-14-14 11.72 0 14-2.28 14-14 0 11.72 2.28 14 14 14-11.72 0-14 2.28-14 14z" fill="#3BEE81"></path>
            <path class="star-2" d="M50 100c0-11.72-2.28-14-14-14 11.72 0 14-2.28 14-14 0 11.72 2.28 14 14 14-11.72 0-14 2.28-14 14z" fill="#3BEE81"></path>
            <path class="star-3" d="M250 50c0-11.72-2.28-14-14-14 11.72 0 14-2.28 14-14 0 11.72 2.28 14 14 14-11.72 0-14 2.28-14 14z" fill="#3BEE81"></path>
            <path class="star-4" d="M30 200.5c0-11.72-2.28-14-14-14 11.72 0 14-2.28 14-14 0 11.72 2.28 14 14 14-11.72 0-14 2.28-14 14z" fill="#3BEE81"></path>
            <path class="star-5" d="M220 300c0-11.72-2.28-14-14-14 11.72 0 14-2.28 14-14 0 11.72 2.28 14 14 14-11.72 0-14 2.28-14 14z" fill="#3BEE81"></path>
        </g>
    </g>
</svg>