<svg id="anim-1" viewBox="0 0 335 327" width="335" height="327" xmlns="http://www.w3.org/2000/svg">
    <defs>
        <linearGradient x1="115.585%" y1="-8.189%" x2="50%" y2="102.799%" id="anim-1a">
            <stop stop-color="#2B2B37" offset="0%"></stop>
            <stop stop-color="#5C5780" offset="100%"></stop>
        </linearGradient>
    </defs>
    <g transform="translate(0 1)" fill="none" fill-rule="evenodd">
        <circle class="scaled-1" fill="#FFF" fill-rule="nonzero" cx="170" cy="161" r="113"></circle>
        <circle class="ring-1" stroke="#2B2B37" opacity=".3" cx="171.5" cy="162.5" r="137.5"></circle>
        <circle class="ring-2" stroke="#D7DFE8" stroke-width=".5" opacity=".702" cx="171.5" cy="162.5" r="162.5"></circle>
        <g fill-rule="nonzero" class="scaled-2">
            <path d="M147.724 78.947c2.91 0 5.276-2.36 5.276-5.263V68.42c0-2.902-2.366-5.262-5.276-5.262h-7.914v-5.263c0-2.903-2.366-5.263-5.276-5.263h-7.913V7.896c0-4.353-3.55-7.895-7.91-7.895H7.92C3.55 0 0 3.55 0 7.9v84.21C0 96.458 3.55 100 7.914 100h139.81c2.91 0 5.276-2.36 5.276-5.263v-5.263c0-2.903-2.366-5.263-5.276-5.263h-7.914v-5.26h7.914zm0-10.526v5.27h-15.827v-5.27h15.827zM126.62 89.48v5.263h-15.827V89.48h15.828zM76.5 84.21v-5.263h15.828v5.264H76.5zm-4.875-7.268c-2.564 1.295-5.418 2.005-8.315 2.005-10.18 0-18.465-8.265-18.465-18.42 0-10.156 8.286-18.422 18.465-18.422 7.234 0 13.652 4.2 16.662 10.527H76.5c-2.91 0-5.276 2.36-5.276 5.263v5.263c0 2.903 2.366 5.263 5.276 5.263h7.914v5.27H76.5c-2.197 0-4.08 1.35-4.875 3.26zm39.168-3.258V68.42h15.828v5.264H110.8zM89.69 68.42h15.827v5.264H89.69V68.42zm7.913-5.262v-5.263h15.828v5.263H97.61zm-5.275 0H76.5v-5.263h15.828v5.263zm5.275 21.053v-5.26h15.828v5.27H97.61zm36.93-21.05h-15.826V57.9h15.827v5.263zm-13.188-23.92c-6.613-1.11-11.834-6.32-12.952-12.92h10.314c1.456 0 2.638 1.18 2.638 2.63v10.29zm0-17.7c-.828-.29-1.71-.48-2.638-.48H7.914c-.93 0-1.81.19-2.638.486v-3.12c0-1.45 1.182-2.63 2.638-2.63h110.793c1.456 0 2.638 1.18 2.638 2.63v3.118zM7.915 5.26h110.792c1.456 0 2.638 1.18 2.638 2.632v3.116c-.828-.294-1.71-.484-2.638-.484H7.914c-.93 0-1.81.19-2.638.485V7.89c0-1.453 1.182-2.632 2.638-2.632zm-2.64 23.684c0-1.452 1.183-2.63 2.64-2.63h10.313c-1.118 6.596-6.34 11.804-12.952 12.92v-10.29zm0 63.158v-10.29C11.89 82.93 17.11 88.138 18.23 94.738H7.914c-1.456 0-2.638-1.18-2.638-2.632zm18.284 2.632c-1.2-9.504-8.76-17.044-18.29-18.24v-31.94c9.53-1.194 17.09-8.734 18.282-18.24h79.504c1.2 9.502 8.755 17.045 18.283 18.24v8.076H85.69c-3.316-9.393-12.25-15.79-22.386-15.79-13.092 0-23.74 10.624-23.74 23.684S50.216 84.21 63.31 84.21c2.707 0 5.382-.5 7.914-1.392v1.393c0 2.91 2.366 5.27 5.276 5.27h7.914v5.266H23.56zm66.13-5.263h15.82v5.27H89.69v-5.27zm58.03 0v5.27h-15.83v-5.27h15.824zm-13.19-5.26H118.7v-5.26h15.827v5.267z" fill="url(#anim-1a)" transform="translate(99 111)"></path>
            <path d="M163 184c-7.73 0-14-5.82-14-13s6.27-13 14-13v26z" fill="#D7DFE8"></path>
        </g>
        <g class="star-container">
            <path class="star-1" d="M289 249.5c0-11.72-2.28-14-14-14 11.72 0 14-2.28 14-14 0 11.72 2.28 14 14 14-11.72 0-14 2.28-14 14z" fill="#3BEE81"></path>
            <path class="star-2" d="M50 100c0-11.72-2.28-14-14-14 11.72 0 14-2.28 14-14 0 11.72 2.28 14 14 14-11.72 0-14 2.28-14 14z" fill="#3BEE81"></path>
            <path class="star-3" d="M250 50c0-11.72-2.28-14-14-14 11.72 0 14-2.28 14-14 0 11.72 2.28 14 14 14-11.72 0-14 2.28-14 14z" fill="#3BEE81"></path>
            <path class="star-4" d="M30 200.5c0-11.72-2.28-14-14-14 11.72 0 14-2.28 14-14 0 11.72 2.28 14 14 14-11.72 0-14 2.28-14 14z" fill="#3BEE81"></path>
            <path class="star-5" d="M220 300c0-11.72-2.28-14-14-14 11.72 0 14-2.28 14-14 0 11.72 2.28 14 14 14-11.72 0-14 2.28-14 14z" fill="#3BEE81"></path>
        </g>
    </g>
</svg>