<svg width="189" height="30" viewBox="-2 -2 189 30" id="logotype-sub" xmlns="http://www.w3.org/2000/svg"><g fill="none" fill-rule="evenodd"><path d="M24.477 17.2c.898 0 1.657-.232 2.276-.695.62-.463 1-1.083 1.14-1.86H26.82c-.133.488-.41.874-.83 1.157-.42.283-.924.425-1.513.425-.813 0-1.457-.31-1.934-.932-.477-.62-.715-1.46-.715-2.52 0-1.062.237-1.904.712-2.525.475-.62 1.118-.932 1.93-.932.583 0 1.085.16 1.507.478.42.318.703.75.843 1.298h1.073a3.048 3.048 0 00-1.137-1.987c-.633-.507-1.395-.76-2.285-.76-1.148 0-2.056.395-2.724 1.188-.668.793-1.002 1.873-1.002 3.24 0 1.364.335 2.442 1.005 3.235.67.793 1.578 1.19 2.727 1.19zm5.906-.2h1.008v-3.914c0-.445.157-.813.47-1.102.312-.29.71-.433 1.19-.433.1 0 .224.008.368.02.145.015.237.028.276.04V10.6a3.272 3.272 0 00-.238-.02 3.626 3.626 0 00-.266-.01c-.418 0-.79.098-1.12.293-.327.196-.538.447-.632.756h-.094v-.936h-.96V17zm5.96 2.285c.558 0 .99-.133 1.297-.398.307-.266.595-.766.865-1.5l2.466-6.703H39.9l-1.73 5.197h-.093l-1.734-5.196h-1.09l2.338 6.322-.117.375c-.132.384-.287.652-.462.807-.175.154-.408.23-.697.23-.07 0-.142 0-.217-.005a1.733 1.733 0 01-.205-.023v.86a2.18 2.18 0 00.31.032l.143.003zm9.902-8.713c.805 0 1.45.297 1.93.89.483.595.725 1.388.725 2.38 0 .988-.242 1.78-.724 2.376-.482.595-1.126.893-1.93.893-.45 0-.848-.092-1.196-.28a1.83 1.83 0 01-.78-.78h-.093v3.06H43.17v-8.426h.96v1.054h.094c.203-.363.483-.648.84-.855.358-.207.752-.31 1.18-.31zm-.24 5.63c.582 0 1.036-.208 1.362-.626.327-.418.49-.996.49-1.734s-.163-1.317-.49-1.735c-.326-.418-.778-.627-1.356-.627-.57 0-1.022.212-1.358.636-.336.424-.504 1-.504 1.726 0 .722.168 1.297.504 1.722.336.426.787.64 1.353.64zm5.75-7.153v1.634h-1.02v.843h1.02v3.832c0 .6.14 1.033.423 1.294.284.262.75.393 1.398.393a3.013 3.013 0 00.592-.059v-.85l-.238.018c-.064.004-.14.006-.23.006-.33 0-.568-.084-.716-.252-.148-.168-.223-.437-.223-.808v-3.575h1.408v-.843H52.76V9.05h-1.006zm7.294 8.06c-.9 0-1.61-.29-2.13-.875-.523-.584-.783-1.38-.783-2.393 0-1.016.26-1.815.782-2.397.52-.582 1.23-.873 2.13-.873.897 0 1.607.29 2.13.873.52.582.78 1.38.78 2.397 0 1.012-.26 1.81-.78 2.393-.523.584-1.233.876-2.13.876zm0-.907c.596 0 1.057-.207 1.382-.62.324-.415.486-.995.486-1.74 0-.75-.162-1.332-.486-1.744-.325-.413-.786-.62-1.383-.62-.6 0-1.06.207-1.384.62-.324.41-.486.992-.486 1.742 0 .746.162 1.326.486 1.74.324.414.785.62 1.383.62zm10.57-3.586c-.086-.562-.357-1.044-.812-1.444-.455-.4-1.067-.6-1.837-.6-.882 0-1.585.294-2.108.884-.524.59-.785 1.377-.785 2.36 0 1.005.262 1.805.788 2.4.525.596 1.23.894 2.112.894.758 0 1.365-.19 1.822-.573.456-.383.73-.863.82-1.44H68.6a1.381 1.381 0 01-.565.82c-.284.19-.638.286-1.064.286-.56 0-1.01-.215-1.347-.644-.336-.43-.503-1.01-.503-1.742 0-.714.167-1.283.5-1.705.334-.422.785-.633 1.35-.633.454 0 .818.112 1.094.334.275.223.454.49.536.803h1.02zm7.447-1.933H76.06v3.738c0 .555-.148.988-.443 1.3-.295.313-.722.47-1.28.47-.504 0-.868-.136-1.093-.408-.225-.27-.337-.69-.337-1.257v-3.843H71.9v4.09c0 .746.182 1.322.547 1.728.365.406.9.61 1.608.61.485 0 .893-.096 1.225-.288.332-.19.576-.463.733-.814h.093V17h.96v-6.316zM79.817 17h1.006v-3.914c0-.445.157-.813.47-1.102.312-.29.708-.433 1.19-.433.1 0 .223.008.368.02.145.015.237.028.276.04V10.6a3.142 3.142 0 00-.237-.02 3.72 3.72 0 00-.268-.01c-.418 0-.79.098-1.12.293-.327.196-.538.447-.632.756h-.093v-.936h-.96V17zm5.536 0h1.008v-3.914c0-.445.157-.813.47-1.102.312-.29.71-.433 1.19-.433.1 0 .224.008.368.02.145.015.237.028.276.04V10.6a3.272 3.272 0 00-.238-.02 3.626 3.626 0 00-.266-.01c-.418 0-.79.098-1.12.293-.328.196-.538.447-.632.756h-.094v-.936h-.96V17zm7.764-5.537c-.504 0-.918.17-1.242.51-.324.34-.506.79-.545 1.347h3.48c-.01-.558-.17-1.007-.48-1.347-.31-.34-.713-.51-1.213-.51zm1.664 3.902h1.01c-.153.543-.462.97-.927 1.28-.465.31-1.043.466-1.734.466-.876 0-1.57-.293-2.08-.88-.513-.588-.77-1.382-.77-2.382 0-.993.26-1.786.775-2.382.515-.596 1.207-.894 2.074-.894.85 0 1.52.284 2.01.853.487.568.73 1.343.73 2.323v.387h-4.54v.047c.027.625.204 1.12.53 1.488.327.367.757.55 1.292.55.407 0 .746-.073 1.02-.22.273-.146.476-.357.61-.635zM98.304 17h1.008v-3.738c0-.555.15-.99.452-1.307.3-.316.703-.475 1.207-.475.503 0 .877.137 1.12.41.245.274.367.696.367 1.266V17h1.008v-4.09c0-.75-.19-1.327-.57-1.73-.382-.406-.928-.608-1.64-.608-.483 0-.88.098-1.19.293a1.85 1.85 0 00-.707.815h-.094v-.996h-.96V17zm13.08-4.383c-.087-.562-.358-1.044-.813-1.444-.455-.4-1.067-.6-1.837-.6-.883 0-1.586.294-2.11.884-.523.59-.784 1.377-.784 2.36 0 1.005.26 1.805.787 2.4.525.596 1.23.894 2.112.894.757 0 1.364-.19 1.82-.573.458-.383.732-.863.822-1.44h-1.02a1.381 1.381 0 01-.565.82c-.284.19-.638.286-1.064.286-.562 0-1.012-.215-1.347-.644-.336-.43-.504-1.01-.504-1.742 0-.714.167-1.283.5-1.705.335-.422.785-.633 1.35-.633.454 0 .82.112 1.094.334.275.223.454.49.536.803h1.02zm2.876 6.668c.558 0 .99-.133 1.297-.398.306-.266.595-.766.864-1.5l2.468-6.703h-1.072l-1.73 5.197h-.093l-1.734-5.196h-1.09l2.337 6.322-.117.375c-.133.384-.287.652-.463.807-.176.154-.408.23-.697.23-.07 0-.143 0-.217-.005a1.709 1.709 0 01-.205-.023v.86c.047.008.096.015.15.02.052.006.105.01.157.012l.144.003zm16.43-3.234h-4.184v-2.905h3.967v-.938h-3.967V9.494h4.183v-.95h-5.24V17h5.24v-.95zm4.87-1.435L137.052 17h1.195l-2.173-3.2 2.144-3.116h-1.143l-1.483 2.35h-.094l-1.5-2.35h-1.2l2.185 3.158-2.16 3.158h1.142l1.5-2.385h.094zm9.85-1.998c-.087-.562-.357-1.044-.813-1.444-.455-.4-1.067-.6-1.836-.6-.882 0-1.585.294-2.11.884-.522.59-.784 1.377-.784 2.36 0 1.005.263 1.805.788 2.4.525.596 1.23.894 2.112.894.758 0 1.366-.19 1.823-.573.456-.383.73-.863.82-1.44h-1.02a1.383 1.383 0 01-.566.82c-.283.19-.638.286-1.063.286-.562 0-1.01-.215-1.347-.644-.336-.43-.504-1.01-.504-1.742 0-.714.166-1.283.5-1.705.334-.422.784-.633 1.35-.633.454 0 .818.112 1.093.334.276.223.454.49.536.803h1.02zM147.805 17h1.008v-3.738c0-.535.15-.966.45-1.292.302-.326.735-.49 1.302-.49.476 0 .838.14 1.087.42.248.28.372.698.372 1.256V17h1.007v-4.09c0-.742-.196-1.317-.588-1.725-.393-.41-.923-.613-1.59-.613-.486 0-.89.098-1.217.293-.326.196-.57.467-.73.815h-.093V8.176h-1.008V17zm9.862-.773c.52 0 .95-.152 1.292-.455.34-.302.512-.678.512-1.127v-.58l-1.7.11c-.92.063-1.382.407-1.382 1.032 0 .32.12.57.364.75.242.18.546.27.914.27zm-.188.884c-.613 0-1.122-.168-1.526-.506-.405-.337-.607-.795-.607-1.374 0-1.156.768-1.78 2.303-1.87l1.822-.11v-.574c0-.805-.476-1.207-1.43-1.207-.378 0-.693.067-.943.204a.936.936 0 00-.48.58h-1.02c.066-.508.327-.915.784-1.222.457-.306 1.022-.46 1.694-.46.77 0 1.362.187 1.778.56.416.373.624.888.624 1.544V17h-.96v-.932h-.095a2.077 2.077 0 01-.808.774 2.37 2.37 0 01-1.137.27zm5.713-.11h1.008v-3.738c0-.555.152-.99.452-1.307.3-.316.703-.475 1.207-.475.503 0 .877.137 1.12.41.246.274.368.696.368 1.266V17h1.007v-4.09c0-.75-.19-1.327-.57-1.73-.382-.406-.928-.608-1.64-.608-.483 0-.88.098-1.19.293-.31.196-.547.467-.707.815h-.094v-.996h-.96V17zm10.407-.984c.586 0 1.045-.206 1.377-.62.332-.41.498-.96.498-1.648 0-.687-.167-1.237-.5-1.65-.335-.41-.793-.618-1.375-.618-.586 0-1.037.207-1.354.62-.316.41-.474.96-.474 1.648s.158 1.237.474 1.65c.317.412.768.618 1.354.618zm.047 3.41c-.762 0-1.374-.157-1.837-.472-.463-.314-.733-.733-.812-1.257h1.067c.055.258.22.464.492.618.273.155.637.232 1.09.232.566 0 1.01-.132 1.327-.396.318-.262.478-.627.478-1.09v-1.244h-.094c-.2.348-.47.617-.815.806-.343.19-.732.284-1.166.284-.816 0-1.462-.29-1.936-.87-.474-.58-.71-1.343-.71-2.288 0-.945.237-1.71.714-2.297.476-.585 1.12-.878 1.933-.878.442 0 .845.1 1.21.302.366.2.638.472.818.812h.093v-1.002h.96v6.427c0 .708-.252 1.27-.757 1.69-.505.417-1.19.626-2.053.626zm8.08-7.963c-.504 0-.918.17-1.242.51-.324.34-.506.79-.545 1.347h3.48c-.01-.558-.17-1.007-.48-1.347-.308-.34-.713-.51-1.213-.51zm1.664 3.902h1.01c-.153.543-.462.97-.927 1.28-.464.31-1.043.466-1.734.466-.876 0-1.57-.293-2.08-.88-.513-.588-.77-1.382-.77-2.382 0-.993.26-1.786.775-2.382.515-.596 1.207-.894 2.074-.894.85 0 1.52.284 2.01.853.487.568.73 1.343.73 2.323v.387h-4.54v.047c.028.625.204 1.12.53 1.488.327.367.757.55 1.293.55.406 0 .746-.073 1.02-.22.272-.146.476-.357.608-.635z" fill="#5C5780"/><path d="M.5.5v24.083" stroke="#5C5780" stroke-linecap="square"/></g></svg>