<svg width="151" height="132" fill="none" viewBox="-2 -2 151 132" id="mail" y="30"><g clip-path="url(#lclip0)"><path fill="url(#lpaint0_linear)" d="M119.604 125.003h-92.6c-5.478 0-9.912-4.423-9.912-9.89V61.8c0-5.465 4.434-9.89 9.912-9.89h13.738v4.772H27.004c-2.826 0-5.13 2.299-5.13 5.118v53.27c0 2.82 2.304 5.118 5.13 5.118h92.6c2.826 0 5.13-2.299 5.13-5.118V61.8c0-2.82-2.304-5.118-5.13-5.118h-13.65V51.91h13.65c5.478 0 9.912 4.425 9.912 9.89v53.27c0 5.509-4.434 9.933-9.912 9.933z"/><path fill="#3BEE81" d="M14.202 13.214c11.161 0 13.332-2.15 13.332-13.214 0 11.063 2.17 13.214 13.333 13.214-11.163 0-13.333 2.151-13.333 13.215 0-11.064-2.17-13.215-13.332-13.215zM.512 31.074c6.938 0 8.288-1.337 8.288-8.214 0 6.877 1.35 8.214 8.287 8.214-6.938 0-8.287 1.337-8.287 8.215 0-6.878-1.35-8.215-8.288-8.215z"/><path fill="url(#lpaint1_linear)" d="M73.303 88.08c-3.478 0-6.912-.91-9.999-2.689l-43.822-25.55 2.391-4.121 43.822 25.55a15.146 15.146 0 0015.216 0l43.822-25.55 2.391 4.121-43.822 25.55a19.988 19.988 0 01-9.999 2.69v-.001z"/><path fill="url(#lpaint2_linear)" d="M108.335 69.436h-4.782v-41.6a3.778 3.778 0 00-3.782-3.774H46.906a3.78 3.78 0 00-3.782 3.774v41.036h-4.782V27.836c0-4.729 3.87-8.546 8.564-8.546h52.866c4.739 0 8.564 3.817 8.564 8.546v41.6h-.001z"/><path fill="#D8DFE9" d="M95.078 36.765H50.56a2.474 2.474 0 01-2.478-2.472v-.13a2.474 2.474 0 012.478-2.473h44.518a2.475 2.475 0 012.478 2.473v.13a2.447 2.447 0 01-2.478 2.472zm0 9.54H50.56a2.474 2.474 0 01-2.478-2.472v-.13a2.474 2.474 0 012.478-2.473h44.518a2.473 2.473 0 012.478 2.473v.13a2.446 2.446 0 01-2.478 2.472zM63.385 59.72H50.56a2.475 2.475 0 01-2.478-2.473v-4.164a2.474 2.474 0 012.478-2.473h12.825a2.473 2.473 0 012.478 2.473v4.164a2.446 2.446 0 01-2.478 2.473zm50.43 52.052H100.99a2.471 2.471 0 01-2.478-2.473v-6.116a2.472 2.472 0 012.478-2.473h12.825a2.469 2.469 0 012.289 1.526c.125.3.189.622.189.947v6.116c.043 1.388-1.087 2.473-2.478 2.473z"/><path fill="url(#lpaint3_linear)" d="M47.002 100.36h-27.52v4.772h27.52v-4.772z"/><path fill="url(#lpaint4_linear)" d="M47.002 107.95h-27.52v4.772h27.52v-4.772z"/></g><defs><linearGradient id="lpaint0_linear" x1="-117.761" x2="-71.877" y1="115.952" y2="-252.794" gradientUnits="userSpaceOnUse"><stop stop-color="#56527B"/><stop offset=".11" stop-color="#4C4763"/><stop offset=".232" stop-color="#413C4E"/><stop offset=".36" stop-color="#37333D"/><stop offset=".495" stop-color="#2F2B31"/><stop offset=".638" stop-color="#282528"/><stop offset=".797" stop-color="#242122"/><stop offset="1" stop-color="#231F20"/></linearGradient><linearGradient id="lpaint1_linear" x1="-121.285" x2="-75.401" y1="115.506" y2="-253.24" gradientUnits="userSpaceOnUse"><stop stop-color="#56527B"/><stop offset=".11" stop-color="#4C4763"/><stop offset=".232" stop-color="#413C4E"/><stop offset=".36" stop-color="#37333D"/><stop offset=".495" stop-color="#2F2B31"/><stop offset=".638" stop-color="#282528"/><stop offset=".797" stop-color="#242122"/><stop offset="1" stop-color="#231F20"/></linearGradient><linearGradient id="lpaint2_linear" x1="-122.66" x2="-76.776" y1="115.344" y2="-253.402" gradientUnits="userSpaceOnUse"><stop stop-color="#56527B"/><stop offset=".11" stop-color="#4C4763"/><stop offset=".232" stop-color="#413C4E"/><stop offset=".36" stop-color="#37333D"/><stop offset=".495" stop-color="#2F2B31"/><stop offset=".638" stop-color="#282528"/><stop offset=".797" stop-color="#242122"/><stop offset="1" stop-color="#231F20"/></linearGradient><linearGradient id="lpaint3_linear" x1="-155.462" x2="-109.578" y1="111.257" y2="-257.489" gradientUnits="userSpaceOnUse"><stop stop-color="#56527B"/><stop offset=".11" stop-color="#4C4763"/><stop offset=".232" stop-color="#413C4E"/><stop offset=".36" stop-color="#37333D"/><stop offset=".495" stop-color="#2F2B31"/><stop offset=".638" stop-color="#282528"/><stop offset=".797" stop-color="#242122"/><stop offset="1" stop-color="#231F20"/></linearGradient><linearGradient id="lpaint4_linear" x1="-154.528" x2="-108.644" y1="111.371" y2="-257.375" gradientUnits="userSpaceOnUse"><stop stop-color="#56527B"/><stop offset=".11" stop-color="#4C4763"/><stop offset=".232" stop-color="#413C4E"/><stop offset=".36" stop-color="#37333D"/><stop offset=".495" stop-color="#2F2B31"/><stop offset=".638" stop-color="#282528"/><stop offset=".797" stop-color="#242122"/><stop offset="1" stop-color="#231F20"/></linearGradient><clipPath id="lclip0"><path fill="#fff" d="M0 0h146v128H0z" transform="translate(.512)"/></clipPath></defs></svg>