<svg width="144" height="45" viewBox="-2 -2 144 45" id="play-market" x="189" y="45" xmlns="http://www.w3.org/2000/svg"><defs><linearGradient x1="91.49%" y1="4.96%" x2="-38.317%" y2="71.909%" id="pa"><stop stop-color="#00A0FF" offset="0%"/><stop stop-color="#00A1FF" offset=".66%"/><stop stop-color="#00BEFF" offset="26.01%"/><stop stop-color="#00D2FF" offset="51.22%"/><stop stop-color="#00DFFF" offset="76.04%"/><stop stop-color="#00E3FF" offset="100%"/></linearGradient><linearGradient x1="107.586%" y1="50.016%" x2="-130.492%" y2="50.016%" id="pb"><stop stop-color="#FFE000" offset="0%"/><stop stop-color="#FFBD00" offset="40.87%"/><stop stop-color="orange" offset="77.54%"/><stop stop-color="#FF9C00" offset="100%"/></linearGradient><linearGradient x1="86.238%" y1="117.851%" x2="-50.131%" y2="294.785%" id="pc"><stop stop-color="#FF3A44" offset="0%"/><stop stop-color="#C31162" offset="100%"/></linearGradient><linearGradient x1="-18.801%" y1="-154.171%" x2="42.094%" y2="-75.137%" id="pd"><stop stop-color="#32A071" offset="0%"/><stop stop-color="#2DA771" offset="6.85%"/><stop stop-color="#15CF74" offset="47.62%"/><stop stop-color="#06E775" offset="80.09%"/><stop stop-color="#00F076" offset="100%"/></linearGradient></defs><g fill-rule="nonzero" fill="none"><path d="M134.168 40.825H5.184c-2.836 0-5.16-2.261-5.16-5.023V5.663C.025 2.902 2.349.64 5.185.64h128.984c2.837 0 5.16 2.262 5.16 5.023v30.14c0 2.76-2.323 5.022-5.16 5.022z" fill="#000" opacity=".401"/><path d="M48.954 10.931c0 .84-.258 1.51-.767 2.012-.584.594-1.345.893-2.277.893-.892 0-1.653-.304-2.277-.903-.626-.608-.938-1.354-.938-2.247 0-.893.312-1.639.938-2.241.624-.604 1.385-.908 2.277-.908.443 0 .866.089 1.27.255.402.167.73.393.967.672l-.539.53c-.414-.476-.977-.711-1.698-.711-.65 0-1.214.22-1.693.667-.473.447-.71 1.026-.71 1.736 0 .711.237 1.295.71 1.742a2.42 2.42 0 001.693.667c.69 0 1.27-.226 1.728-.672.302-.295.473-.702.518-1.222H45.91v-.726h2.997c.036.157.047.31.047.456zM53.71 8.415h-2.817v1.908h2.539v.726h-2.539v1.909h2.816v.74h-3.613V7.675h3.613zM57.065 13.698h-.797V8.415h-1.727v-.74h4.253v.74h-1.729v5.283zM61.871 13.698V7.675h.796v6.023zM66.195 13.698h-.79V8.415H63.67v-.74h4.257v.74h-1.733zM75.98 12.923c-.61.609-1.366.913-2.268.913-.907 0-1.663-.304-2.273-.913-.608-.608-.912-1.354-.912-2.237s.304-1.628.912-2.236c.61-.61 1.366-.913 2.273-.913.897 0 1.652.304 2.262.918.614.613.918 1.354.918 2.231 0 .883-.304 1.63-.912 2.237zm-3.951-.505c.459.45 1.018.677 1.683.677.66 0 1.224-.226 1.678-.677.458-.45.69-1.03.69-1.732s-.232-1.28-.69-1.731c-.454-.451-1.018-.677-1.678-.677-.665 0-1.224.226-1.683.677-.458.45-.69 1.03-.69 1.731 0 .702.232 1.281.69 1.732zM78.01 13.698V7.675h.967l3.008 4.684h.035l-.035-1.158V7.675h.796v6.023h-.83L78.8 8.783h-.035l.034 1.162v3.753h-.79z" stroke="#FFF" stroke-width=".625" fill="#FFF"/><path d="M70.331 22.493c-2.423 0-4.403 1.796-4.403 4.274 0 2.457 1.98 4.272 4.403 4.272 2.43 0 4.41-1.815 4.41-4.272 0-2.478-1.98-4.274-4.41-4.274zm0 6.863c-1.33 0-2.474-1.068-2.474-2.59 0-1.54 1.145-2.59 2.474-2.59 1.33 0 2.48 1.05 2.48 2.59 0 1.522-1.15 2.59-2.48 2.59zm-9.608-6.863c-2.428 0-4.403 1.796-4.403 4.274 0 2.457 1.975 4.272 4.403 4.272 2.428 0 4.404-1.815 4.404-4.272 0-2.478-1.976-4.274-4.404-4.274zm0 6.863c-1.33 0-2.479-1.068-2.479-2.59 0-1.54 1.148-2.59 2.48-2.59 1.33 0 2.473 1.05 2.473 2.59 0 1.522-1.144 2.59-2.474 2.59zM49.29 23.803v1.816h4.454c-.13 1.015-.479 1.76-1.013 2.28-.65.628-1.662 1.325-3.44 1.325-2.742 0-4.888-2.153-4.888-4.822 0-2.668 2.146-4.822 4.887-4.822 1.482 0 2.56.564 3.356 1.295l1.315-1.28c-1.113-1.035-2.594-1.83-4.67-1.83-3.76 0-6.918 2.978-6.918 6.637 0 3.66 3.159 6.637 6.917 6.637 2.032 0 3.558-.648 4.757-1.864 1.23-1.196 1.612-2.88 1.612-4.238 0-.422-.036-.81-.1-1.134H49.29zm46.752 1.408c-.363-.956-1.48-2.718-3.759-2.718-2.257 0-4.136 1.732-4.136 4.274 0 2.393 1.86 4.272 4.353 4.272a4.378 4.378 0 003.658-1.894l-1.496-.97c-.5.71-1.18 1.181-2.162 1.181-.976 0-1.677-.436-2.126-1.294l5.87-2.365-.202-.486zm-5.985 1.423a2.373 2.373 0 012.292-2.492c.766 0 1.416.373 1.633.907l-3.925 1.585zm-4.771 4.145h1.93V18.221h-1.93V30.78zm-3.16-7.334h-.065c-.433-.5-1.26-.952-2.307-.952-2.198 0-4.208 1.879-4.208 4.288 0 2.394 2.01 4.258 4.208 4.258 1.047 0 1.874-.456 2.307-.97h.065v.612c0 1.634-.897 2.512-2.343 2.512-1.179 0-1.91-.83-2.212-1.526l-1.678.682c.484 1.133 1.765 2.526 3.89 2.526 2.263 0 4.172-1.296 4.172-4.449v-7.673h-1.83v.692zm-2.207 5.911c-1.33 0-2.443-1.084-2.443-2.575 0-1.506 1.113-2.605 2.443-2.605 1.31 0 2.343 1.099 2.343 2.605 0 1.491-1.033 2.575-2.343 2.575zm25.157-11.135h-4.615V30.78h1.924v-4.758h2.69c2.138 0 4.234-1.506 4.234-3.9s-2.101-3.9-4.233-3.9zm.05 6.053h-2.74v-4.306h2.74a2.208 2.208 0 012.257 2.152c0 .972-.82 2.154-2.257 2.154zm11.896-1.805c-1.39 0-2.836.598-3.43 1.923l1.707.697c.368-.697 1.044-.923 1.758-.923.999 0 2.011.584 2.027 1.615v.132c-.349-.196-1.094-.486-2.011-.486-1.84 0-3.714.986-3.714 2.825 0 1.683 1.507 2.767 3.2 2.767 1.295 0 2.01-.569 2.459-1.23h.066v.97h1.858v-4.817c0-2.227-1.708-3.473-3.92-3.473zm-.232 6.882c-.63 0-1.506-.304-1.506-1.063 0-.972 1.093-1.345 2.04-1.345.848 0 1.245.182 1.76.422-.151 1.162-1.18 1.986-2.294 1.986zm10.924-6.607l-2.212 5.444h-.066l-2.287-5.444h-2.075l3.436 7.608-1.96 4.233h2.01l5.295-11.84h-2.141zm-17.347 8.035h1.93V18.221h-1.93V30.78z" fill="#FFF"/><path d="M10.792 32.786c-.303-.309-.478-.79-.478-1.412V9.156c0-.623.175-1.104.478-1.413l.075-.068L23.655 20.12v.294L10.867 32.86l-.075-.073z" fill="url(#pa)" transform="matrix(1 0 0 -1 0 41)"/><path d="M27.912 15.97l-4.257 4.15v.294l4.262 4.15.096-.053 5.048-2.797c1.441-.794 1.441-2.1 0-2.898l-5.048-2.792-.1-.054z" fill="url(#pb)" transform="matrix(1 0 0 -1 0 41)"/><path d="M28.013 16.024l-4.358 4.243L10.792 7.743c.479-.49 1.26-.549 2.147-.059l15.074 8.34" fill="url(#pc)" transform="matrix(1 0 0 -1 0 41)"/><path d="M28.013 24.51l-15.074 8.34c-.888.485-1.668.426-2.147-.064l12.863-12.519 4.358 4.244z" fill="url(#pd)" transform="matrix(1 0 0 -1 0 41)"/></g></svg>