<svg width="1260" height="67" viewBox="0 0 1260 67" fill="none" xmlns="http://www.w3.org/2000/svg">
<path d="M0 10C0 4.47715 4.47715 0 10 0H1250C1255.52 0 1260 4.47715 1260 10V56C1260 61.5228 1255.52 66 1250 66H9.99996C4.47711 66 0 61.5228 0 56V10Z" fill="url(#paint0_radial)"></path>
<path d="M1081.4 50.1586C1076.64 56.7736 1081.37 66 1089.52 66L1250 65.9999C1255.52 65.9999 1260 61.5228 1260 55.9999V10C1260 4.47716 1255.52 0 1250 0L1122.62 0C1119.41 0 1116.39 1.54757 1114.51 4.15857L1081.4 50.1586Z" fill="white" fill-opacity="0.39"></path>
<path d="M253.751 26.8899V35.804C253.745 37.0406 253.355 38.0521 252.58 38.8385C251.812 39.6248 250.768 40.066 249.447 40.1621L248.988 40.1801C247.553 40.1801 246.41 39.7929 245.557 39.0185C244.705 38.2442 244.273 37.1787 244.261 35.822V26.8899H245.971V35.768C245.971 36.7165 246.233 37.4548 246.755 37.9831C247.277 38.5053 248.021 38.7664 248.988 38.7664C249.966 38.7664 250.714 38.5053 251.23 37.9831C251.752 37.4608 252.013 36.7255 252.013 35.777V26.8899H253.751ZM257.794 30.2574L257.848 31.482C258.592 30.5456 259.565 30.0774 260.765 30.0774C262.824 30.0774 263.863 31.2389 263.881 33.562V40H262.215V33.553C262.209 32.8507 262.047 32.3314 261.729 31.9952C261.417 31.6591 260.927 31.491 260.261 31.491C259.721 31.491 259.247 31.6351 258.838 31.9232C258.43 32.2114 258.112 32.5895 257.884 33.0577V40H256.218V30.2574H257.794ZM268.203 40H266.537V26.1695H268.203V40ZM272.687 40H271.021V30.2574H272.687V40ZM270.886 27.6732C270.886 27.4031 270.967 27.175 271.129 26.9889C271.297 26.8028 271.543 26.7098 271.868 26.7098C272.192 26.7098 272.438 26.8028 272.606 26.9889C272.774 27.175 272.858 27.4031 272.858 27.6732C272.858 27.9434 272.774 28.1685 272.606 28.3485C272.438 28.5286 272.192 28.6187 271.868 28.6187C271.543 28.6187 271.297 28.5286 271.129 28.3485C270.967 28.1685 270.886 27.9434 270.886 27.6732ZM276.928 30.2574L276.973 31.3379C277.687 30.4975 278.651 30.0774 279.863 30.0774C281.226 30.0774 282.153 30.5996 282.646 31.6441C282.97 31.1759 283.39 30.7977 283.906 30.5096C284.428 30.2214 285.044 30.0774 285.752 30.0774C287.889 30.0774 288.976 31.2089 289.012 33.4719V40H287.346V33.571C287.346 32.8747 287.187 32.3554 286.869 32.0133C286.55 31.6651 286.016 31.491 285.266 31.491C284.648 31.491 284.134 31.6771 283.726 32.0493C283.318 32.4154 283.081 32.9107 283.015 33.535V40H281.34V33.616C281.34 32.1993 280.647 31.491 279.26 31.491C278.167 31.491 277.42 31.9562 277.018 32.8867V40H275.352V30.2574H276.928ZM293.343 40H291.677V30.2574H293.343V40ZM291.542 27.6732C291.542 27.4031 291.623 27.175 291.785 26.9889C291.953 26.8028 292.199 26.7098 292.523 26.7098C292.847 26.7098 293.093 26.8028 293.262 26.9889C293.43 27.175 293.514 27.4031 293.514 27.6732C293.514 27.9434 293.43 28.1685 293.262 28.3485C293.093 28.5286 292.847 28.6187 292.523 28.6187C292.199 28.6187 291.953 28.5286 291.785 28.3485C291.623 28.1685 291.542 27.9434 291.542 27.6732ZM298.277 27.8983V30.2574H300.096V31.545H298.277V37.5869C298.277 37.9771 298.358 38.2712 298.52 38.4693C298.682 38.6614 298.958 38.7574 299.348 38.7574C299.54 38.7574 299.805 38.7214 300.141 38.6494V40C299.703 40.1201 299.276 40.1801 298.862 40.1801C298.118 40.1801 297.557 39.955 297.178 39.5048C296.8 39.0546 296.611 38.4153 296.611 37.5869V31.545H294.837V30.2574H296.611V27.8983H298.277ZM306.093 40.1801C304.772 40.1801 303.697 39.7479 302.869 38.8835C302.041 38.0131 301.626 36.8515 301.626 35.3988V35.0927C301.626 34.1262 301.81 33.2648 302.176 32.5085C302.548 31.7461 303.064 31.1519 303.724 30.7257C304.391 30.2935 305.111 30.0774 305.885 30.0774C307.152 30.0774 308.137 30.4945 308.839 31.3289C309.541 32.1633 309.892 33.3579 309.892 34.9126V35.6059H303.292C303.316 36.5664 303.595 37.3438 304.13 37.938C304.67 38.5263 305.354 38.8204 306.183 38.8204C306.771 38.8204 307.269 38.7004 307.677 38.4603C308.085 38.2202 308.443 37.902 308.749 37.5058L309.766 38.2982C308.95 39.5528 307.725 40.1801 306.093 40.1801ZM305.885 31.446C305.213 31.446 304.649 31.6921 304.193 32.1843C303.736 32.6706 303.454 33.3549 303.346 34.2373H308.227V34.1112C308.179 33.2648 307.95 32.6105 307.542 32.1483C307.134 31.6801 306.582 31.446 305.885 31.446ZM311.423 35.0477C311.423 33.553 311.777 32.3524 312.486 31.446C313.194 30.5336 314.121 30.0774 315.268 30.0774C316.408 30.0774 317.312 30.4675 317.978 31.2479V26.1695H319.644V40H318.113L318.032 38.9555C317.366 39.7719 316.438 40.1801 315.25 40.1801C314.121 40.1801 313.2 39.7179 312.486 38.7934C311.777 37.869 311.423 36.6624 311.423 35.1737V35.0477ZM313.089 35.2368C313.089 36.3413 313.317 37.2057 313.773 37.83C314.229 38.4543 314.86 38.7664 315.664 38.7664C316.721 38.7664 317.492 38.2922 317.978 37.3438V32.8687C317.48 31.9502 316.715 31.491 315.682 31.491C314.866 31.491 314.229 31.8062 313.773 32.4365C313.317 33.0668 313.089 34.0002 313.089 35.2368ZM329.071 27.8983V30.2574H330.89V31.545H329.071V37.5869C329.071 37.9771 329.152 38.2712 329.314 38.4693C329.477 38.6614 329.753 38.7574 330.143 38.7574C330.335 38.7574 330.599 38.7214 330.935 38.6494V40C330.497 40.1201 330.071 40.1801 329.657 40.1801C328.912 40.1801 328.351 39.955 327.973 39.5048C327.595 39.0546 327.406 38.4153 327.406 37.5869V31.545H325.632V30.2574H327.406V27.8983H329.071ZM336.887 40.1801C335.566 40.1801 334.492 39.7479 333.663 38.8835C332.835 38.0131 332.421 36.8515 332.421 35.3988V35.0927C332.421 34.1262 332.604 33.2648 332.97 32.5085C333.342 31.7461 333.859 31.1519 334.519 30.7257C335.185 30.2935 335.906 30.0774 336.68 30.0774C337.946 30.0774 338.931 30.4945 339.633 31.3289C340.336 32.1633 340.687 33.3579 340.687 34.9126V35.6059H334.087C334.111 36.5664 334.39 37.3438 334.924 37.938C335.464 38.5263 336.149 38.8204 336.977 38.8204C337.565 38.8204 338.064 38.7004 338.472 38.4603C338.88 38.2202 339.237 37.902 339.543 37.5058L340.561 38.2982C339.744 39.5528 338.52 40.1801 336.887 40.1801ZM336.68 31.446C336.008 31.446 335.443 31.6921 334.987 32.1843C334.531 32.6706 334.249 33.3549 334.141 34.2373H339.021V34.1112C338.973 33.2648 338.745 32.6105 338.337 32.1483C337.928 31.6801 337.376 31.446 336.68 31.446ZM347.332 31.7521C347.08 31.7101 346.807 31.6891 346.512 31.6891C345.42 31.6891 344.679 32.1543 344.288 33.0848V40H342.623V30.2574H344.243L344.27 31.383C344.817 30.5126 345.591 30.0774 346.594 30.0774C346.918 30.0774 347.164 30.1194 347.332 30.2034V31.7521ZM350.438 30.2574L350.483 31.3379C351.198 30.4975 352.161 30.0774 353.374 30.0774C354.736 30.0774 355.664 30.5996 356.156 31.6441C356.48 31.1759 356.9 30.7977 357.417 30.5096C357.939 30.2214 358.554 30.0774 359.262 30.0774C361.399 30.0774 362.486 31.2089 362.522 33.4719V40H360.856V33.571C360.856 32.8747 360.697 32.3554 360.379 32.0133C360.061 31.6651 359.527 31.491 358.776 31.491C358.158 31.491 357.645 31.6771 357.237 32.0493C356.828 32.4154 356.591 32.9107 356.525 33.535V40H354.85V33.616C354.85 32.1993 354.157 31.491 352.77 31.491C351.678 31.491 350.931 31.9562 350.528 32.8867V40H348.863V30.2574H350.438ZM371.427 40H369.761V26.1695H371.427V40ZM373.66 35.0387C373.66 34.0842 373.846 33.2258 374.218 32.4635C374.597 31.7011 375.119 31.1128 375.785 30.6986C376.458 30.2844 377.223 30.0774 378.081 30.0774C379.408 30.0774 380.479 30.5366 381.296 31.455C382.118 32.3734 382.529 33.595 382.529 35.1197V35.2368C382.529 36.1852 382.346 37.0376 381.98 37.794C381.62 38.5443 381.101 39.1296 380.422 39.5498C379.75 39.97 378.976 40.1801 378.099 40.1801C376.779 40.1801 375.707 39.7209 374.885 38.8024C374.068 37.884 373.66 36.6684 373.66 35.1557V35.0387ZM375.335 35.2368C375.335 36.3173 375.584 37.1847 376.082 37.839C376.587 38.4933 377.259 38.8204 378.099 38.8204C378.946 38.8204 379.618 38.4903 380.116 37.83C380.614 37.1637 380.864 36.2332 380.864 35.0387C380.864 33.9702 380.608 33.1058 380.098 32.4455C379.594 31.7791 378.922 31.446 378.081 31.446C377.259 31.446 376.596 31.7731 376.091 32.4275C375.587 33.0818 375.335 34.0182 375.335 35.2368ZM390.633 40C390.537 39.8079 390.459 39.4657 390.399 38.9735C389.625 39.7779 388.7 40.1801 387.626 40.1801C386.665 40.1801 385.876 39.91 385.258 39.3697C384.645 38.8234 384.339 38.1331 384.339 37.2987C384.339 36.2843 384.723 35.4979 385.492 34.9396C386.266 34.3754 387.353 34.0932 388.751 34.0932H390.372V33.3279C390.372 32.7456 390.198 32.2834 389.85 31.9412C389.502 31.5931 388.988 31.419 388.31 31.419C387.716 31.419 387.218 31.5691 386.815 31.8692C386.413 32.1693 386.212 32.5325 386.212 32.9587H384.537C384.537 32.4725 384.708 32.0043 385.051 31.554C385.399 31.0978 385.867 30.7377 386.455 30.4735C387.049 30.2094 387.701 30.0774 388.409 30.0774C389.532 30.0774 390.411 30.3595 391.047 30.9237C391.684 31.482 392.014 32.2534 392.038 33.2378V37.7219C392.038 38.6164 392.152 39.3277 392.38 39.8559V40H390.633ZM387.869 38.7304C388.391 38.7304 388.886 38.5953 389.355 38.3252C389.823 38.0551 390.162 37.7039 390.372 37.2717V35.2728H389.066C387.025 35.2728 386.005 35.8701 386.005 37.0646C386.005 37.5869 386.179 37.9951 386.527 38.2892C386.875 38.5833 387.323 38.7304 387.869 38.7304ZM396.225 30.2574L396.279 31.482C397.023 30.5456 397.996 30.0774 399.196 30.0774C401.255 30.0774 402.294 31.2389 402.312 33.562V40H400.646V33.553C400.64 32.8507 400.478 32.3314 400.16 31.9952C399.847 31.6591 399.358 31.491 398.692 31.491C398.152 31.491 397.677 31.6351 397.269 31.9232C396.861 32.2114 396.543 32.5895 396.315 33.0577V40H394.649V30.2574H396.225ZM410.496 37.4158C410.496 36.9656 410.325 36.6174 409.983 36.3713C409.647 36.1192 409.056 35.9031 408.209 35.723C407.369 35.5429 406.7 35.3268 406.201 35.0747C405.709 34.8226 405.343 34.5224 405.103 34.1743C404.869 33.8261 404.752 33.4119 404.752 32.9317C404.752 32.1333 405.088 31.458 405.76 30.9057C406.439 30.3535 407.303 30.0774 408.353 30.0774C409.458 30.0774 410.352 30.3625 411.037 30.9328C411.727 31.503 412.072 32.2324 412.072 33.1208H410.397C410.397 32.6646 410.202 32.2714 409.812 31.9412C409.428 31.6111 408.942 31.446 408.353 31.446C407.747 31.446 407.273 31.5781 406.931 31.8422C406.589 32.1063 406.418 32.4515 406.418 32.8777C406.418 33.2799 406.577 33.583 406.895 33.7871C407.213 33.9912 407.786 34.1863 408.615 34.3724C409.449 34.5585 410.124 34.7806 410.641 35.0387C411.157 35.2968 411.538 35.6089 411.784 35.9751C412.036 36.3353 412.162 36.7765 412.162 37.2987C412.162 38.1691 411.814 38.8685 411.118 39.3967C410.421 39.919 409.518 40.1801 408.407 40.1801C407.627 40.1801 406.937 40.042 406.337 39.7659C405.736 39.4898 405.265 39.1056 404.923 38.6134C404.587 38.1151 404.419 37.5779 404.419 37.0016H406.084C406.114 37.5599 406.337 38.0041 406.751 38.3342C407.171 38.6584 407.723 38.8204 408.407 38.8204C409.038 38.8204 409.542 38.6944 409.92 38.4423C410.304 38.1841 410.496 37.842 410.496 37.4158ZM419.726 40V31.545H418.186V30.2574H419.726V29.258C419.726 28.2135 420.005 27.4061 420.563 26.8358C421.121 26.2656 421.911 25.9804 422.931 25.9804C423.315 25.9804 423.697 26.0315 424.075 26.1335L423.985 27.4841C423.703 27.4301 423.403 27.4031 423.084 27.4031C422.544 27.4031 422.127 27.5622 421.833 27.8803C421.539 28.1925 421.392 28.6427 421.392 29.231V30.2574H423.472V31.545H421.392V40H419.726ZM424.876 35.0387C424.876 34.0842 425.062 33.2258 425.434 32.4635C425.813 31.7011 426.335 31.1128 427.001 30.6986C427.674 30.2844 428.439 30.0774 429.297 30.0774C430.624 30.0774 431.695 30.5366 432.512 31.455C433.334 32.3734 433.745 33.595 433.745 35.1197V35.2368C433.745 36.1852 433.562 37.0376 433.196 37.794C432.836 38.5443 432.317 39.1296 431.638 39.5498C430.966 39.97 430.192 40.1801 429.315 40.1801C427.995 40.1801 426.923 39.7209 426.101 38.8024C425.284 37.884 424.876 36.6684 424.876 35.1557V35.0387ZM426.551 35.2368C426.551 36.3173 426.8 37.1847 427.298 37.839C427.803 38.4933 428.475 38.8204 429.315 38.8204C430.162 38.8204 430.834 38.4903 431.332 37.83C431.83 37.1637 432.08 36.2332 432.08 35.0387C432.08 33.9702 431.824 33.1058 431.314 32.4455C430.81 31.7791 430.138 31.446 429.297 31.446C428.475 31.446 427.812 31.7731 427.307 32.4275C426.803 33.0818 426.551 34.0182 426.551 35.2368ZM440.544 31.7521C440.291 31.7101 440.018 31.6891 439.724 31.6891C438.632 31.6891 437.89 32.1543 437.5 33.0848V40H435.834V30.2574H437.455L437.482 31.383C438.028 30.5126 438.803 30.0774 439.805 30.0774C440.129 30.0774 440.375 30.1194 440.544 30.2034V31.7521ZM452.609 40H450.007V29.9693L446.901 30.9328V28.8168L452.33 26.8718H452.609V40ZM465.701 34.5795C465.701 36.3923 465.326 37.779 464.576 38.7394C463.825 39.6999 462.727 40.1801 461.28 40.1801C459.852 40.1801 458.759 39.7089 458.003 38.7664C457.246 37.824 456.859 36.4733 456.841 34.7145V32.3014C456.841 30.4705 457.219 29.0809 457.976 28.1324C458.738 27.184 459.834 26.7098 461.262 26.7098C462.691 26.7098 463.783 27.181 464.54 28.1234C465.296 29.0599 465.683 30.4075 465.701 32.1663V34.5795ZM463.099 31.9322C463.099 30.8457 462.949 30.0563 462.649 29.5641C462.355 29.0659 461.893 28.8168 461.262 28.8168C460.65 28.8168 460.197 29.0539 459.903 29.5281C459.614 29.9963 459.461 30.7317 459.443 31.7341V34.9216C459.443 35.9901 459.587 36.7855 459.876 37.3077C460.17 37.824 460.638 38.0821 461.28 38.0821C461.917 38.0821 462.376 37.833 462.658 37.3348C462.94 36.8365 463.087 36.0742 463.099 35.0477V31.9322ZM467.43 29.411C467.43 28.6067 467.691 27.9554 468.214 27.4571C468.736 26.9529 469.42 26.7008 470.266 26.7008C471.125 26.7008 471.815 26.9499 472.337 27.4481C472.86 27.9404 473.121 28.6097 473.121 29.4561V30.1044C473.121 30.9147 472.86 31.566 472.337 32.0583C471.815 32.5505 471.131 32.7966 470.284 32.7966C469.432 32.7966 468.742 32.5505 468.214 32.0583C467.691 31.56 467.43 30.8907 467.43 30.0503V29.411ZM469.159 30.1044C469.159 30.4645 469.261 30.7557 469.465 30.9778C469.675 31.1939 469.948 31.3019 470.284 31.3019C470.621 31.3019 470.888 31.1909 471.086 30.9688C471.284 30.7467 471.383 30.4495 471.383 30.0774V29.411C471.383 29.0509 471.284 28.7597 471.086 28.5376C470.888 28.3155 470.615 28.2045 470.266 28.2045C469.936 28.2045 469.669 28.3155 469.465 28.5376C469.261 28.7537 469.159 29.0569 469.159 29.4471V30.1044ZM473.697 36.7855C473.697 35.9751 473.961 35.3238 474.489 34.8316C475.018 34.3333 475.702 34.0842 476.542 34.0842C477.395 34.0842 478.082 34.3303 478.604 34.8226C479.133 35.3088 479.397 35.9811 479.397 36.8395V37.4878C479.397 38.2922 479.139 38.9435 478.622 39.4417C478.106 39.934 477.419 40.1801 476.56 40.1801C475.696 40.1801 475.003 39.931 474.48 39.4327C473.958 38.9345 473.697 38.2742 473.697 37.4518V36.7855ZM475.426 37.4878C475.426 37.818 475.534 38.1001 475.75 38.3342C475.966 38.5683 476.236 38.6854 476.56 38.6854C477.293 38.6854 477.659 38.2802 477.659 37.4698V36.7855C477.659 36.4253 477.557 36.1372 477.353 35.9211C477.149 35.699 476.879 35.5879 476.542 35.5879C476.206 35.5879 475.936 35.699 475.732 35.9211C475.528 36.1372 475.426 36.4343 475.426 36.8125V37.4878ZM470.798 39.0185L469.528 38.3342L475.93 28.0874L477.2 28.7717L470.798 39.0185ZM493.353 37.2987H488.617L487.717 40H484.844L489.725 26.8899H492.228L497.135 40H494.263L493.353 37.2987ZM489.346 35.1107H492.624L490.976 30.2034L489.346 35.1107ZM501.061 35.3808V40H498.36V26.8899H503.474C504.458 26.8899 505.323 27.0699 506.067 27.4301C506.818 27.7903 507.394 28.3035 507.796 28.9698C508.198 29.6301 508.399 30.3835 508.399 31.2299C508.399 32.5145 507.958 33.529 507.076 34.2733C506.199 35.0117 504.984 35.3808 503.429 35.3808H501.061ZM501.061 33.1928H503.474C504.188 33.1928 504.732 33.0247 505.104 32.6886C505.482 32.3524 505.671 31.8722 505.671 31.2479C505.671 30.6056 505.482 30.0864 505.104 29.6902C504.726 29.294 504.203 29.0899 503.537 29.0779H501.061V33.1928ZM515.116 35.2008H512.964V40H510.263V26.8899H515.134C516.683 26.8899 517.878 27.235 518.718 27.9253C519.559 28.6157 519.979 29.5911 519.979 30.8517C519.979 31.7461 519.784 32.4935 519.393 33.0938C519.009 33.688 518.424 34.1623 517.638 34.5164L520.474 39.8739V40H517.575L515.116 35.2008ZM512.964 33.0127H515.143C515.822 33.0127 516.347 32.8416 516.719 32.4995C517.091 32.1513 517.277 31.6741 517.277 31.0678C517.277 30.4495 517.1 29.9633 516.746 29.6091C516.398 29.255 515.861 29.0779 515.134 29.0779H512.964V33.0127ZM535.349 37.7039L537.222 30.2574H538.888L536.051 40H534.701L532.333 32.6165L530.027 40H528.677L525.85 30.2574H527.506L529.424 37.5509L531.693 30.2574H533.035L535.349 37.7039ZM542.399 40H540.733V30.2574H542.399V40ZM540.598 27.6732C540.598 27.4031 540.679 27.175 540.842 26.9889C541.01 26.8028 541.256 26.7098 541.58 26.7098C541.904 26.7098 542.15 26.8028 542.318 26.9889C542.486 27.175 542.57 27.4031 542.57 27.6732C542.57 27.9434 542.486 28.1685 542.318 28.3485C542.15 28.5286 541.904 28.6187 541.58 28.6187C541.256 28.6187 541.01 28.5286 540.842 28.3485C540.679 28.1685 540.598 27.9434 540.598 27.6732ZM547.334 27.8983V30.2574H549.152V31.545H547.334V37.5869C547.334 37.9771 547.415 38.2712 547.577 38.4693C547.739 38.6614 548.015 38.7574 548.405 38.7574C548.597 38.7574 548.861 38.7214 549.197 38.6494V40C548.759 40.1201 548.333 40.1801 547.919 40.1801C547.175 40.1801 546.613 39.955 546.235 39.5048C545.857 39.0546 545.668 38.4153 545.668 37.5869V31.545H543.894V30.2574H545.668V27.8983H547.334ZM552.772 31.437C553.51 30.5306 554.471 30.0774 555.653 30.0774C557.712 30.0774 558.751 31.2389 558.769 33.562V40H557.103V33.553C557.097 32.8507 556.935 32.3314 556.617 31.9952C556.305 31.6591 555.816 31.491 555.149 31.491C554.609 31.491 554.135 31.6351 553.727 31.9232C553.318 32.2114 553 32.5895 552.772 33.0577V40H551.106V26.1695H552.772V31.437ZM575.742 35.8401C575.58 37.2267 575.067 38.2982 574.202 39.0546C573.344 39.8049 572.2 40.1801 570.772 40.1801C569.223 40.1801 567.98 39.6248 567.044 38.5143C566.113 37.4038 565.648 35.9181 565.648 34.0572V32.7966C565.648 31.5781 565.864 30.5066 566.296 29.5821C566.735 28.6577 567.353 27.9494 568.151 27.4571C568.95 26.9589 569.874 26.7098 570.925 26.7098C572.317 26.7098 573.434 27.1 574.274 27.8803C575.115 28.6547 575.604 29.7292 575.742 31.1038H574.004C573.854 30.0593 573.527 29.303 573.023 28.8348C572.524 28.3665 571.825 28.1324 570.925 28.1324C569.82 28.1324 568.953 28.5406 568.322 29.357C567.698 30.1734 567.386 31.3349 567.386 32.8416V34.1112C567.386 35.5339 567.683 36.6654 568.277 37.5058C568.872 38.3462 569.703 38.7664 570.772 38.7664C571.732 38.7664 572.467 38.5503 572.978 38.1181C573.494 37.6799 573.836 36.9206 574.004 35.8401H575.742ZM579.515 31.437C580.253 30.5306 581.213 30.0774 582.396 30.0774C584.455 30.0774 585.493 31.2389 585.511 33.562V40H583.846V33.553C583.84 32.8507 583.678 32.3314 583.359 31.9952C583.047 31.6591 582.558 31.491 581.892 31.491C581.352 31.491 580.877 31.6351 580.469 31.9232C580.061 32.2114 579.743 32.5895 579.515 33.0577V40H577.849V26.1695H579.515V31.437ZM594.02 40C593.924 39.8079 593.846 39.4657 593.786 38.9735C593.012 39.7779 592.088 40.1801 591.013 40.1801C590.053 40.1801 589.263 39.91 588.645 39.3697C588.033 38.8234 587.727 38.1331 587.727 37.2987C587.727 36.2843 588.111 35.4979 588.879 34.9396C589.653 34.3754 590.74 34.0932 592.139 34.0932H593.759V33.3279C593.759 32.7456 593.585 32.2834 593.237 31.9412C592.889 31.5931 592.376 31.419 591.697 31.419C591.103 31.419 590.605 31.5691 590.203 31.8692C589.8 32.1693 589.599 32.5325 589.599 32.9587H587.925C587.925 32.4725 588.096 32.0043 588.438 31.554C588.786 31.0978 589.254 30.7377 589.843 30.4735C590.437 30.2094 591.088 30.0774 591.796 30.0774C592.919 30.0774 593.798 30.3595 594.435 30.9237C595.071 31.482 595.401 32.2534 595.425 33.2378V37.7219C595.425 38.6164 595.539 39.3277 595.767 39.8559V40H594.02ZM591.256 38.7304C591.778 38.7304 592.274 38.5953 592.742 38.3252C593.21 38.0551 593.549 37.7039 593.759 37.2717V35.2728H592.454C590.413 35.2728 589.392 35.8701 589.392 37.0646C589.392 37.5869 589.566 37.9951 589.915 38.2892C590.263 38.5833 590.71 38.7304 591.256 38.7304ZM599.612 30.2574L599.666 31.482C600.41 30.5456 601.383 30.0774 602.583 30.0774C604.642 30.0774 605.681 31.2389 605.699 33.562V40H604.033V33.553C604.027 32.8507 603.865 32.3314 603.547 31.9952C603.235 31.6591 602.746 31.491 602.079 31.491C601.539 31.491 601.065 31.6351 600.657 31.9232C600.248 32.2114 599.93 32.5895 599.702 33.0577V40H598.036V30.2574H599.612ZM607.815 35.0477C607.815 33.529 608.166 32.3224 608.868 31.428C609.571 30.5276 610.501 30.0774 611.66 30.0774C612.848 30.0774 613.776 30.4975 614.442 31.3379L614.523 30.2574H616.045V39.7659C616.045 41.0265 615.67 42.0199 614.919 42.7463C614.175 43.4726 613.172 43.8358 611.912 43.8358C611.209 43.8358 610.522 43.6857 609.85 43.3856C609.178 43.0854 608.664 42.6743 608.31 42.152L609.175 41.1525C609.889 42.035 610.762 42.4762 611.795 42.4762C612.605 42.4762 613.235 42.2481 613.686 41.7918C614.142 41.3356 614.37 40.6933 614.37 39.8649V39.0275C613.704 39.7959 612.794 40.1801 611.642 40.1801C610.501 40.1801 609.577 39.7209 608.868 38.8024C608.166 37.884 607.815 36.6324 607.815 35.0477ZM609.49 35.2368C609.49 36.3353 609.715 37.1997 610.165 37.83C610.615 38.4543 611.246 38.7664 612.056 38.7664C613.106 38.7664 613.878 38.2892 614.37 37.3348V32.8867C613.86 31.9562 613.094 31.491 612.074 31.491C611.264 31.491 610.63 31.8062 610.174 32.4365C609.718 33.0668 609.49 34.0002 609.49 35.2368ZM622.609 40.1801C621.288 40.1801 620.214 39.7479 619.385 38.8835C618.557 38.0131 618.143 36.8515 618.143 35.3988V35.0927C618.143 34.1262 618.326 33.2648 618.692 32.5085C619.064 31.7461 619.58 31.1519 620.241 30.7257C620.907 30.2935 621.627 30.0774 622.402 30.0774C623.668 30.0774 624.653 30.4945 625.355 31.3289C626.057 32.1633 626.409 33.3579 626.409 34.9126V35.6059H619.809C619.833 36.5664 620.112 37.3438 620.646 37.938C621.186 38.5263 621.87 38.8204 622.699 38.8204C623.287 38.8204 623.785 38.7004 624.194 38.4603C624.602 38.2202 624.959 37.902 625.265 37.5058L626.283 38.2982C625.466 39.5528 624.242 40.1801 622.609 40.1801ZM622.402 31.446C621.729 31.446 621.165 31.6921 620.709 32.1843C620.253 32.6706 619.971 33.3549 619.863 34.2373H624.743V34.1112C624.695 33.2648 624.467 32.6105 624.059 32.1483C623.65 31.6801 623.098 31.446 622.402 31.446ZM638.681 40H636.944L630.343 29.8973V40H628.606V26.8899H630.343L636.962 37.0376V26.8899H638.681V40ZM651.837 33.8681C651.837 35.1527 651.62 36.2753 651.188 37.2357C650.756 38.1902 650.144 38.9195 649.351 39.4237C648.559 39.928 647.635 40.1801 646.578 40.1801C645.546 40.1801 644.63 39.928 643.832 39.4237C643.033 38.9135 642.412 38.1902 641.968 37.2537C641.53 36.3113 641.305 35.2218 641.293 33.9852V33.0397C641.293 31.7791 641.512 30.6656 641.95 29.6992C642.388 28.7327 643.006 27.9944 643.805 27.4841C644.609 26.9679 645.528 26.7098 646.56 26.7098C647.611 26.7098 648.535 26.9649 649.333 27.4751C650.138 27.9794 650.756 28.7147 651.188 29.6812C651.62 30.6416 651.837 31.7611 651.837 33.0397V33.8681ZM650.117 33.0217C650.117 31.467 649.805 30.2754 649.18 29.4471C648.556 28.6127 647.683 28.1955 646.56 28.1955C645.468 28.1955 644.606 28.6127 643.976 29.4471C643.352 30.2754 643.03 31.428 643.012 32.9047V33.8681C643.012 35.3748 643.328 36.5604 643.958 37.4248C644.594 38.2832 645.468 38.7124 646.578 38.7124C647.695 38.7124 648.559 38.3072 649.171 37.4968C649.784 36.6804 650.099 35.5129 650.117 33.9942V33.0217ZM657.257 35.8671L657.509 37.5959L657.878 36.0381L660.472 26.8899H661.93L664.46 36.0381L664.821 37.6229L665.1 35.8581L667.135 26.8899H668.873L665.694 40H664.118L661.417 30.4465L661.21 29.4471L661.003 30.4465L658.203 40H656.627L653.457 26.8899H655.186L657.257 35.8671ZM677.102 34.8676V40H675.374V26.8899H680.209C681.643 26.8899 682.766 27.256 683.576 27.9884C684.393 28.7207 684.801 29.6902 684.801 30.8967C684.801 32.1693 684.402 33.1508 683.603 33.8411C682.811 34.5254 681.674 34.8676 680.191 34.8676H677.102ZM677.102 33.4539H680.209C681.133 33.4539 681.842 33.2378 682.334 32.8056C682.826 32.3674 683.072 31.7371 683.072 30.9147C683.072 30.1344 682.826 29.5101 682.334 29.0419C681.842 28.5736 681.166 28.3305 680.308 28.3125H677.102V33.4539ZM691.455 31.7521C691.203 31.7101 690.93 31.6891 690.636 31.6891C689.543 31.6891 688.802 32.1543 688.412 33.0848V40H686.746V30.2574H688.367L688.394 31.383C688.94 30.5126 689.714 30.0774 690.717 30.0774C691.041 30.0774 691.287 30.1194 691.455 30.2034V31.7521ZM696.858 40.1801C695.537 40.1801 694.463 39.7479 693.634 38.8835C692.806 38.0131 692.392 36.8515 692.392 35.3988V35.0927C692.392 34.1262 692.575 33.2648 692.941 32.5085C693.313 31.7461 693.829 31.1519 694.49 30.7257C695.156 30.2935 695.876 30.0774 696.651 30.0774C697.917 30.0774 698.902 30.4945 699.604 31.3289C700.306 32.1633 700.657 33.3579 700.657 34.9126V35.6059H694.057C694.081 36.5664 694.36 37.3438 694.895 37.938C695.435 38.5263 696.119 38.8204 696.948 38.8204C697.536 38.8204 698.034 38.7004 698.442 38.4603C698.851 38.2202 699.208 37.902 699.514 37.5058L700.531 38.2982C699.715 39.5528 698.49 40.1801 696.858 40.1801ZM696.651 31.446C695.978 31.446 695.414 31.6921 694.958 32.1843C694.502 32.6706 694.219 33.3549 694.111 34.2373H698.992V34.1112C698.944 33.2648 698.715 32.6105 698.307 32.1483C697.899 31.6801 697.347 31.446 696.651 31.446ZM704.16 30.2574L704.205 31.3379C704.919 30.4975 705.883 30.0774 707.095 30.0774C708.458 30.0774 709.386 30.5996 709.878 31.6441C710.202 31.1759 710.622 30.7977 711.138 30.5096C711.661 30.2214 712.276 30.0774 712.984 30.0774C715.121 30.0774 716.208 31.2089 716.244 33.4719V40H714.578V33.571C714.578 32.8747 714.419 32.3554 714.101 32.0133C713.783 31.6651 713.248 31.491 712.498 31.491C711.88 31.491 711.366 31.6771 710.958 32.0493C710.55 32.4154 710.313 32.9107 710.247 33.535V40H708.572V33.616C708.572 32.1993 707.879 31.491 706.492 31.491C705.4 31.491 704.652 31.9562 704.25 32.8867V40H702.584V30.2574H704.16ZM720.575 40H718.909V30.2574H720.575V40ZM718.774 27.6732C718.774 27.4031 718.855 27.175 719.017 26.9889C719.185 26.8028 719.431 26.7098 719.755 26.7098C720.08 26.7098 720.326 26.8028 720.494 26.9889C720.662 27.175 720.746 27.4031 720.746 27.6732C720.746 27.9434 720.662 28.1685 720.494 28.3485C720.326 28.5286 720.08 28.6187 719.755 28.6187C719.431 28.6187 719.185 28.5286 719.017 28.3485C718.855 28.1685 718.774 27.9434 718.774 27.6732ZM729.264 39.0365C728.616 39.7989 727.664 40.1801 726.409 40.1801C725.371 40.1801 724.579 39.8799 724.032 39.2797C723.492 38.6734 723.219 37.779 723.213 36.5964V30.2574H724.879V36.5514C724.879 38.0281 725.479 38.7664 726.68 38.7664C727.952 38.7664 728.799 38.2922 729.219 37.3438V30.2574H730.885V40H729.3L729.264 39.0365ZM734.991 30.2574L735.036 31.3379C735.75 30.4975 736.713 30.0774 737.926 30.0774C739.289 30.0774 740.216 30.5996 740.708 31.6441C741.032 31.1759 741.453 30.7977 741.969 30.5096C742.491 30.2214 743.106 30.0774 743.815 30.0774C745.952 30.0774 747.038 31.2089 747.074 33.4719V40H745.408V33.571C745.408 32.8747 745.249 32.3554 744.931 32.0133C744.613 31.6651 744.079 31.491 743.328 31.491C742.71 31.491 742.197 31.6771 741.789 32.0493C741.38 32.4154 741.143 32.9107 741.077 33.535V40H739.403V33.616C739.403 32.1993 738.709 31.491 737.323 31.491C736.23 31.491 735.483 31.9562 735.081 32.8867V40H733.415V30.2574H734.991ZM756.664 26.8899L760.95 37.5869L765.236 26.8899H767.478V40H765.749V34.8946L765.911 29.384L761.607 40H760.283L755.988 29.411L756.159 34.8946V40H754.431V26.8899H756.664ZM774.312 40.1801C772.991 40.1801 771.917 39.7479 771.088 38.8835C770.26 38.0131 769.846 36.8515 769.846 35.3988V35.0927C769.846 34.1262 770.029 33.2648 770.395 32.5085C770.767 31.7461 771.283 31.1519 771.944 30.7257C772.61 30.2935 773.33 30.0774 774.105 30.0774C775.371 30.0774 776.356 30.4945 777.058 31.3289C777.761 32.1633 778.112 33.3579 778.112 34.9126V35.6059H771.512C771.536 36.5664 771.815 37.3438 772.349 37.938C772.889 38.5263 773.574 38.8204 774.402 38.8204C774.99 38.8204 775.488 38.7004 775.897 38.4603C776.305 38.2202 776.662 37.902 776.968 37.5058L777.986 38.2982C777.169 39.5528 775.945 40.1801 774.312 40.1801ZM774.105 31.446C773.432 31.446 772.868 31.6921 772.412 32.1843C771.956 32.6706 771.674 33.3549 771.566 34.2373H776.446V34.1112C776.398 33.2648 776.17 32.6105 775.762 32.1483C775.353 31.6801 774.801 31.446 774.105 31.446ZM781.614 30.2574L781.659 31.3379C782.374 30.4975 783.337 30.0774 784.55 30.0774C785.912 30.0774 786.84 30.5996 787.332 31.6441C787.656 31.1759 788.076 30.7977 788.593 30.5096C789.115 30.2214 789.73 30.0774 790.438 30.0774C792.575 30.0774 793.662 31.2089 793.698 33.4719V40H792.032V33.571C792.032 32.8747 791.873 32.3554 791.555 32.0133C791.237 31.6651 790.703 31.491 789.952 31.491C789.334 31.491 788.821 31.6771 788.412 32.0493C788.004 32.4154 787.767 32.9107 787.701 33.535V40H786.026V33.616C786.026 32.1993 785.333 31.491 783.946 31.491C782.854 31.491 782.107 31.9562 781.704 32.8867V40H780.039V30.2574H781.614ZM804.467 35.2368C804.467 36.7255 804.125 37.923 803.441 38.8295C802.756 39.7299 801.838 40.1801 800.685 40.1801C799.455 40.1801 798.503 39.7449 797.831 38.8745L797.75 40H796.219V26.1695H797.885V31.3289C798.557 30.4945 799.485 30.0774 800.667 30.0774C801.85 30.0774 802.777 30.5246 803.45 31.419C804.128 32.3134 804.467 33.538 804.467 35.0927V35.2368ZM802.801 35.0477C802.801 33.9131 802.582 33.0367 802.144 32.4184C801.706 31.8002 801.075 31.491 800.253 31.491C799.155 31.491 798.365 32.0013 797.885 33.0217V37.2357C798.395 38.2562 799.191 38.7664 800.271 38.7664C801.069 38.7664 801.691 38.4573 802.135 37.839C802.579 37.2207 802.801 36.2903 802.801 35.0477ZM810.617 40.1801C809.296 40.1801 808.222 39.7479 807.393 38.8835C806.565 38.0131 806.151 36.8515 806.151 35.3988V35.0927C806.151 34.1262 806.334 33.2648 806.7 32.5085C807.072 31.7461 807.588 31.1519 808.249 30.7257C808.915 30.2935 809.635 30.0774 810.41 30.0774C811.676 30.0774 812.661 30.4945 813.363 31.3289C814.066 32.1633 814.417 33.3579 814.417 34.9126V35.6059H807.817C807.841 36.5664 808.12 37.3438 808.654 37.938C809.194 38.5263 809.879 38.8204 810.707 38.8204C811.295 38.8204 811.793 38.7004 812.202 38.4603C812.61 38.2202 812.967 37.902 813.273 37.5058L814.291 38.2982C813.474 39.5528 812.25 40.1801 810.617 40.1801ZM810.41 31.446C809.737 31.446 809.173 31.6921 808.717 32.1843C808.261 32.6706 807.979 33.3549 807.871 34.2373H812.751V34.1112C812.703 33.2648 812.475 32.6105 812.067 32.1483C811.658 31.6801 811.106 31.446 810.41 31.446ZM821.062 31.7521C820.81 31.7101 820.537 31.6891 820.242 31.6891C819.15 31.6891 818.409 32.1543 818.018 33.0848V40H816.353V30.2574H817.973L818 31.383C818.547 30.5126 819.321 30.0774 820.323 30.0774C820.648 30.0774 820.894 30.1194 821.062 30.2034V31.7521ZM828.274 37.4158C828.274 36.9656 828.103 36.6174 827.761 36.3713C827.425 36.1192 826.834 35.9031 825.987 35.723C825.147 35.5429 824.477 35.3268 823.979 35.0747C823.487 34.8226 823.121 34.5224 822.881 34.1743C822.647 33.8261 822.529 33.4119 822.529 32.9317C822.529 32.1333 822.866 31.458 823.538 30.9057C824.216 30.3535 825.081 30.0774 826.131 30.0774C827.236 30.0774 828.13 30.3625 828.814 30.9328C829.505 31.503 829.85 32.2324 829.85 33.1208H828.175C828.175 32.6646 827.98 32.2714 827.59 31.9412C827.206 31.6111 826.719 31.446 826.131 31.446C825.525 31.446 825.051 31.5781 824.709 31.8422C824.366 32.1063 824.195 32.4515 824.195 32.8777C824.195 33.2799 824.354 33.583 824.673 33.7871C824.991 33.9912 825.564 34.1863 826.392 34.3724C827.227 34.5585 827.902 34.7806 828.418 35.0387C828.934 35.2968 829.316 35.6089 829.562 35.9751C829.814 36.3353 829.94 36.7765 829.94 37.2987C829.94 38.1691 829.592 38.8685 828.895 39.3967C828.199 39.919 827.296 40.1801 826.185 40.1801C825.405 40.1801 824.715 40.042 824.114 39.7659C823.514 39.4898 823.043 39.1056 822.701 38.6134C822.364 38.1151 822.196 37.5779 822.196 37.0016H823.862C823.892 37.5599 824.114 38.0041 824.528 38.3342C824.949 38.6584 825.501 38.8204 826.185 38.8204C826.816 38.8204 827.32 38.6944 827.698 38.4423C828.082 38.1841 828.274 37.842 828.274 37.4158ZM833.776 31.437C834.514 30.5306 835.475 30.0774 836.657 30.0774C838.716 30.0774 839.755 31.2389 839.773 33.562V40H838.107V33.553C838.101 32.8507 837.939 32.3314 837.621 31.9952C837.308 31.6591 836.819 31.491 836.153 31.491C835.613 31.491 835.138 31.6351 834.73 31.9232C834.322 32.2114 834.004 32.5895 833.776 33.0577V40H832.11V26.1695H833.776V31.437ZM844.077 40H842.411V30.2574H844.077V40ZM842.276 27.6732C842.276 27.4031 842.357 27.175 842.519 26.9889C842.687 26.8028 842.933 26.7098 843.257 26.7098C843.581 26.7098 843.827 26.8028 843.996 26.9889C844.164 27.175 844.248 27.4031 844.248 27.6732C844.248 27.9434 844.164 28.1685 843.996 28.3485C843.827 28.5286 843.581 28.6187 843.257 28.6187C842.933 28.6187 842.687 28.5286 842.519 28.3485C842.357 28.1685 842.276 27.9434 842.276 27.6732ZM854.981 35.2368C854.981 36.7195 854.642 37.914 853.963 38.8204C853.285 39.7269 852.366 40.1801 851.208 40.1801C850.025 40.1801 849.095 39.8049 848.417 39.0546V43.7458H846.751V30.2574H848.273L848.354 31.3379C849.032 30.4975 849.974 30.0774 851.181 30.0774C852.351 30.0774 853.276 30.5186 853.954 31.401C854.639 32.2834 854.981 33.511 854.981 35.0837V35.2368ZM853.315 35.0477C853.315 33.9492 853.081 33.0818 852.613 32.4455C852.144 31.8092 851.502 31.491 850.686 31.491C849.677 31.491 848.921 31.9382 848.417 32.8326V37.4878C848.915 38.3762 849.677 38.8204 850.704 38.8204C851.502 38.8204 852.135 38.5053 852.604 37.875C853.078 37.2387 853.315 36.2963 853.315 35.0477Z" fill="white"></path>
<path d="M178.599 50.1586C183.36 56.7736 178.633 66 170.482 66L10 65.9999C4.47715 65.9999 0 61.5228 0 55.9999V10C0 4.47716 4.47715 0 10 0L137.376 0C140.593 0 143.614 1.54757 145.493 4.15857L178.599 50.1586Z" fill="white" fill-opacity="0.39"></path>
<g filter="url(#filter0_d)">
<rect class="coin-rabbit-banner__button" x="887" y="17" width="156" height="35" rx="8.19584" fill="#323442"></rect>
</g>
<path d="M912.861 30.5316H914.812V37.0866C914.812 37.6893 914.677 38.2225 914.409 38.6864C914.144 39.1459 913.769 39.5014 913.284 39.7529C912.798 40.0043 912.25 40.1301 911.638 40.1301C910.637 40.1301 909.857 39.8764 909.297 39.3692C908.738 38.8576 908.458 38.1358 908.458 37.2037H910.422C910.422 37.6676 910.52 38.0101 910.715 38.2312C910.91 38.4523 911.218 38.5628 911.638 38.5628C912.011 38.5628 912.308 38.4349 912.529 38.1791C912.75 37.9234 912.861 37.5592 912.861 37.0866V30.5316ZM926.059 35.4804C926.059 36.4125 925.894 37.2297 925.564 37.932C925.235 38.6344 924.762 39.1763 924.147 39.5578C923.536 39.9393 922.833 40.1301 922.04 40.1301C921.255 40.1301 920.555 39.9415 919.939 39.5643C919.324 39.1871 918.847 38.6495 918.509 37.9515C918.171 37.2492 917.999 36.4428 917.995 35.5324V35.0642C917.995 34.1321 918.162 33.3127 918.496 32.606C918.834 31.895 919.309 31.3509 919.92 30.9738C920.535 30.5923 921.238 30.4015 922.027 30.4015C922.816 30.4015 923.516 30.5923 924.127 30.9738C924.743 31.3509 925.218 31.895 925.551 32.606C925.89 33.3127 926.059 34.1299 926.059 35.0577V35.4804ZM924.082 35.0512C924.082 34.0584 923.904 33.304 923.549 32.7881C923.193 32.2722 922.686 32.0143 922.027 32.0143C921.372 32.0143 920.867 32.27 920.512 32.7816C920.156 33.2889 919.976 34.0345 919.972 35.0187V35.4804C919.972 36.4472 920.15 37.1972 920.505 37.7304C920.861 38.2637 921.372 38.5303 922.04 38.5303C922.694 38.5303 923.197 38.2745 923.549 37.763C923.9 37.247 924.077 36.497 924.082 35.5129V35.0512ZM931.349 40H929.398V30.5316H931.349V40ZM942.661 40H940.71L936.912 33.7701V40H934.961V30.5316H936.912L940.716 36.7745V30.5316H942.661V40ZM953.228 36.6639V40H951.277V30.5316H954.971C955.682 30.5316 956.306 30.6616 956.844 30.9217C957.386 31.1819 957.802 31.5525 958.092 32.0338C958.383 32.5107 958.528 33.0547 958.528 33.666C958.528 34.5938 958.209 35.3265 957.572 35.8641C956.939 36.3973 956.061 36.6639 954.938 36.6639H953.228ZM953.228 35.0837H954.971C955.487 35.0837 955.879 34.9623 956.148 34.7195C956.421 34.4767 956.557 34.1299 956.557 33.679C956.557 33.2152 956.421 32.8401 956.148 32.554C955.875 32.2679 955.497 32.1205 955.016 32.1118H953.228V35.0837ZM965.177 36.5339H963.623V40H961.672V30.5316H965.19C966.309 30.5316 967.171 30.7808 967.778 31.2794C968.385 31.778 968.689 32.4825 968.689 33.3929C968.689 34.0389 968.548 34.5786 968.266 35.0122C967.989 35.4414 967.566 35.7839 966.998 36.0396L969.046 39.909V40H966.952L965.177 36.5339ZM963.623 34.9536H965.197C965.687 34.9536 966.066 34.8301 966.335 34.583C966.603 34.3315 966.738 33.9868 966.738 33.549C966.738 33.1024 966.61 32.7513 966.354 32.4955C966.103 32.2397 965.715 32.1118 965.19 32.1118H963.623V34.9536ZM977.673 35.8966H973.927V38.4328H978.323V40H971.976V30.5316H978.31V32.1118H973.927V34.3684H977.673V35.8966ZM983.815 30.5316L986.247 37.3988L988.666 30.5316H991.228V40H989.271V37.4118L989.466 32.9442L986.91 40H985.57L983.021 32.9507L983.216 37.4118V40H981.265V30.5316H983.815ZM996.804 40H994.853V30.5316H996.804V40ZM1007.58 30.5316V36.768C1007.58 37.8041 1007.26 38.6235 1006.61 39.2261C1005.96 39.8288 1005.08 40.1301 1003.95 40.1301C1002.85 40.1301 1001.97 39.8374 1001.32 39.2521C1000.67 38.6669 1000.34 37.8627 1000.33 36.8395V30.5316H1002.28V36.781C1002.28 37.4009 1002.42 37.854 1002.72 38.1401C1003.02 38.4219 1003.43 38.5628 1003.95 38.5628C1005.05 38.5628 1005.61 37.9862 1005.63 36.833V30.5316H1007.58ZM1013.53 30.5316L1015.96 37.3988L1018.38 30.5316H1020.94V40H1018.99V37.4118L1019.18 32.9442L1016.63 40H1015.29L1012.74 32.9507L1012.93 37.4118V40H1010.98V30.5316H1013.53Z" fill="white"></path>
<path d="M73.4575 45.9898L74.5273 48.0027L78.4371 48.1435C79.2306 48.1721 79.8549 48.8412 79.8315 49.6377C79.8159 50.1733 79.5117 50.6304 79.0726 50.8638C78.8588 50.9775 78.6129 51.0381 78.353 51.0285L74.4361 50.8872L72.3618 54.2129C72.2244 54.4337 72.0363 54.6038 71.8227 54.7173C71.3839 54.9505 70.8347 54.9473 70.3819 54.6604C69.7084 54.2339 69.5031 53.3421 69.9234 52.6687L71.9942 49.3491L70.9244 47.3362C70.795 47.3185 70.666 47.2934 70.5387 47.2549L64.9756 45.579C64.0052 45.2865 63.3107 44.4445 63.2063 43.4332C63.1019 42.4219 63.6109 41.4623 64.5022 40.9886L71.7886 37.1157C72.6802 36.6418 73.7601 36.7569 74.5399 37.4092C75.3197 38.0614 75.6291 39.1082 75.3284 40.0763L73.6058 45.6251C73.5664 45.7521 73.5153 45.873 73.4575 45.9898ZM82.9561 17.4758C86.3005 20.3952 97.5773 30.9998 95.9073 39.8872C94.2917 48.4875 87.4992 54.7751 84.5986 57.4598C84.1525 57.8725 83.7676 58.2291 83.5418 58.464C81.6262 60.4579 80.1586 61.2658 79.9974 61.3514C79.8363 61.4371 78.3453 62.2014 75.6208 62.6742C75.3002 62.7296 74.7892 62.8496 74.1974 62.9882C70.3494 63.8905 61.3379 66.0031 53.3055 62.5309C45.0046 58.9429 42.5238 43.6633 41.9747 39.2582C40.0565 38.9169 36.421 37.8432 34.6506 34.5124C32.347 30.1784 33.6378 23.8292 37.2084 21.9313C37.2557 21.9061 37.3033 21.8818 37.3516 21.8584C39.7542 20.6865 43.0423 22.1257 44.9339 23.1908C45.4959 22.1801 46.3986 20.9526 47.7097 20.2557L63.9978 11.5982C65.309 10.9013 66.8314 10.8398 67.9836 10.9395C68.159 8.77567 68.8058 5.24505 71.1213 3.9092C71.168 3.8821 71.2142 3.85655 71.2618 3.83123C74.8322 1.93352 80.817 4.41567 83.1206 8.74965C84.891 12.0805 83.7471 15.6945 82.9561 17.4758ZM57.6695 39.469C59.3379 38.5822 60.1969 36.6685 59.7588 34.8147C59.6143 34.2024 59.092 33.7516 58.4681 33.7007L53.2619 33.2752C52.6365 33.2241 52.0542 33.5853 51.8207 34.1676C51.3584 35.3213 51.4291 36.6141 52.0141 37.7147C53.1019 39.7613 55.6391 40.5482 57.6695 39.469ZM80.5643 41.0277C78.6712 37.466 75.5156 35.3182 71.185 34.6437C69.4797 34.3783 67.7714 34.6666 66.2456 35.4776C64.7196 36.2887 63.525 37.5433 62.7909 39.1054C60.9273 43.0721 60.9422 46.8893 62.8354 50.451C65.7756 55.9827 70.8523 56.3181 74.5935 55.6253C75.9873 55.3669 77.2815 54.679 78.2754 53.6683C80.9421 50.9552 83.5046 46.5597 80.5643 41.0277ZM76.061 24.9331C75.476 23.8324 74.4441 23.0508 73.2291 22.7884C72.6158 22.6561 71.99 22.9367 71.6831 23.4836L69.1233 28.0369C68.8164 28.5826 68.8978 29.2677 69.3246 29.73C70.616 31.1302 72.6828 31.4888 74.3512 30.6021C76.382 29.523 77.1489 26.9799 76.061 24.9331Z" fill="#323441"></path>
<path d="M1227.95 40.1124C1232.2 33.5982 1229.18 27.3886 1226.99 25.0151C1226.51 24.4884 1225.67 24.3118 1225.08 24.7268C1224.5 25.1313 1224.27 25.8005 1224.56 26.4258C1224.58 26.7233 1224.59 28.3018 1222.65 31.6413C1222.29 32.2599 1221.33 33.9032 1217.91 32.1386C1217.53 31.9456 1217.2 31.7451 1216.93 31.5722C1216.95 30.9343 1216.9 30.0572 1216.77 28.809C1216.55 26.7351 1215.38 25.096 1213.39 24.0686C1212.23 23.4744 1210.78 23.1032 1209.41 23.0504C1207.94 22.9939 1205 21.8974 1203.86 21.4258C1202.81 20.7679 1200.21 19.0108 1199.31 17.8481C1198.47 16.761 1197.33 15.7968 1196.17 15.2026C1194.18 14.1752 1192.16 14.1757 1190.35 15.2041C1189.26 15.8232 1188.51 16.2883 1188.01 16.6747C1187.71 16.558 1187.35 16.4034 1186.98 16.2104C1183.55 14.4457 1184.33 12.7121 1184.63 12.0597C1186.22 8.5379 1187.51 7.6301 1187.76 7.4771C1188.44 7.35177 1188.85 6.77015 1188.85 6.06815C1188.84 5.34864 1188.21 4.76666 1187.5 4.67731C1184.3 4.27329 1177.49 5.42238 1174.65 12.663C1172.69 17.6743 1173.82 20.6766 1175.23 22.3642C1173.04 23.02 1170.5 24.0969 1169.62 25.7083C1169.01 26.8188 1168.84 27.8602 1169.12 28.8033C1169.42 29.8019 1170.19 30.6048 1171.46 31.2579C1172.03 31.5549 1172.73 31.8303 1173.58 32.1002C1175.54 32.72 1177.55 33.1923 1178.83 33.4672C1178.58 35.3858 1178.17 38.9595 1178.09 41.4864C1178 44.1747 1177.46 46.4652 1177.27 47.1944C1176.47 48.2782 1173.83 52.2091 1174.93 55.6921C1175.8 58.4271 1179.15 60.633 1181.8 62.0019C1182.25 62.233 1182.59 62.3883 1182.73 62.4536C1182.87 62.5319 1183.19 62.7129 1183.63 62.9438C1186.29 64.3127 1190.03 65.7592 1192.76 64.8757C1196.24 63.7511 1197.91 59.3207 1198.32 58.0379C1198.81 57.4575 1200.35 55.6842 1202.49 54.0534C1204.5 52.5201 1207.17 50.1076 1208.59 48.797C1209.56 49.6731 1211.11 51.0344 1212.75 52.271C1213.47 52.81 1214.1 53.2167 1214.67 53.5136C1215.94 54.1669 1217.04 54.3215 1218.02 53.9868C1218.96 53.6706 1219.71 52.9309 1220.26 51.7881C1221.05 50.1303 1220.46 47.436 1219.72 45.2728C1221.91 45.4466 1225.01 44.6214 1227.95 40.1124ZM1183.76 31.7435C1184.31 30.6854 1185.29 29.9449 1186.46 29.7119C1187.13 29.5757 1187.81 29.9453 1188.06 30.5902L1189.81 35.0301C1190.06 35.6751 1189.82 36.4116 1189.23 36.7814C1188.08 37.5063 1186.62 37.5726 1185.41 36.9543C1183.53 35.9819 1182.79 33.644 1183.76 31.7435ZM1179.34 56.2362C1179.07 56.208 1178.8 56.1296 1178.56 56.0035C1177.39 55.4015 1176.89 53.8533 1177.33 52.1505C1177.83 50.1942 1179.27 48.8857 1180.75 49.0393C1181.03 49.0675 1181.29 49.1462 1181.54 49.2719C1182.7 49.8739 1183.2 51.4222 1182.77 53.1248C1182.27 55.0812 1180.83 56.3897 1179.34 56.2362ZM1194.29 60.8865C1193.16 62.2276 1191.61 62.7249 1190.44 62.1229C1190.44 62.1229 1190.44 62.1229 1190.44 62.1228C1190.19 61.9966 1189.98 61.8276 1189.79 61.6197C1188.81 60.4994 1189.04 58.5672 1190.34 57.0256C1191.47 55.6845 1193.02 55.1875 1194.19 55.7895C1194.43 55.9153 1194.65 56.0843 1194.83 56.2919C1195.82 57.4127 1195.59 59.345 1194.29 60.8865ZM1201.93 45.4588C1200.73 44.8405 1199.93 43.6124 1199.85 42.2536C1199.81 41.5609 1200.27 40.9355 1200.94 40.7667L1205.57 39.6057C1206.24 39.4375 1206.94 39.7733 1207.22 40.405C1207.71 41.4892 1207.67 42.7179 1207.13 43.776C1206.15 45.6762 1203.82 46.4314 1201.93 45.4588Z" fill="#343645"></path>
<defs>
<filter id="filter0_d" x="878.804" y="10.8531" width="176.49" height="55.4896" filterUnits="userSpaceOnUse" color-interpolation-filters="sRGB">
<feFlood flood-opacity="0" result="BackgroundImageFix"></feFlood>
<feColorMatrix in="SourceAlpha" type="matrix" values="0 0 0 0 0 0 0 0 0 0 0 0 0 0 0 0 0 0 127 0"></feColorMatrix>
<feOffset dx="2.04896" dy="4.09792"></feOffset>
<feGaussianBlur stdDeviation="5.1224"></feGaussianBlur>
<feColorMatrix type="matrix" values="0 0 0 0 0.168627 0 0 0 0 0.168627 0 0 0 0 0.211765 0 0 0 0.34 0"></feColorMatrix>
<feBlend mode="normal" in2="BackgroundImageFix" result="effect1_dropShadow"></feBlend>
<feBlend mode="normal" in="SourceGraphic" in2="effect1_dropShadow" result="shape"></feBlend>
</filter>
<radialGradient id="paint0_radial" cx="0" cy="0" r="1" gradientUnits="userSpaceOnUse" gradientTransform="translate(658.474 18.9346) rotate(102.729) scale(191.538 3656.09)">
<stop stop-color="#373B4A"></stop>
<stop offset="1" stop-color="#2D2D3A"></stop>
</radialGradient>
</defs>
</svg>