<svg width="110" height="22" viewBox="-2 -2 110 22" id="stars" x="189" y="130" xmlns="http://www.w3.org/2000/svg"><g fill="none" fill-rule="evenodd"><rect fill="#3A5A3D" width="18" height="18" rx="2"/><path d="M16 7h-5.356L9 2.028 7.356 7H2l4.38 3.06-1.705 4.97L9 11.95l4.325 3.08-1.71-4.97" fill-rule="nonzero" fill="#FFF"/><g transform="translate(22)"><rect fill="#3A5A3D" width="18" height="18" rx="2"/><path d="M16 7h-5.356L9 2.028 7.356 7H2l4.38 3.06-1.705 4.97L9 11.95l4.325 3.08-1.71-4.97" fill-rule="nonzero" fill="#FFF"/></g><g transform="translate(44)"><rect fill="#3A5A3D" width="18" height="18" rx="2"/><path d="M16 7h-5.356L9 2.028 7.356 7H2l4.38 3.06-1.705 4.97L9 11.95l4.325 3.08-1.71-4.97" fill-rule="nonzero" fill="#FFF"/></g><g transform="translate(66)"><rect fill="#3A5A3D" width="18" height="18" rx="2"/><path d="M16 7h-5.356L9 2.028 7.356 7H2l4.38 3.06-1.705 4.97L9 11.95l4.325 3.08-1.71-4.97" fill-rule="nonzero" fill="#FFF"/></g><g transform="translate(88)"><rect fill="#3A5A3D" width="18" height="18" rx="2"/><path d="M16 7h-5.356L9 2.028 7.356 7H2l4.38 3.06-1.705 4.97L9 11.95l4.325 3.08-1.71-4.97" fill-rule="nonzero" fill="#FFF"/></g></g></svg>