<svg width="124" height="89" viewBox="-2 -2 112 89" fill="none" id="trustpilot-fresh" y="196" xmlns="http://www.w3.org/2000/svg"><path d="M10.781 75.4H6.468v3.527h5.01V80H5.155v-9.953h6.255v1.08H6.468v3.2h4.313v1.072zm4.908-.096l1.64-2.7h1.477l-2.42 3.657L18.881 80h-1.463l-1.709-2.769L14 80h-1.47l2.496-3.74-2.42-3.657h1.463l1.62 2.7zm7.587 3.8c.451 0 .846-.136 1.183-.41.337-.273.524-.615.56-1.025h1.197a2.293 2.293 0 01-.438 1.21 2.875 2.875 0 01-1.08.916c-.447.228-.92.342-1.422.342-1.007 0-1.81-.335-2.406-1.005-.593-.675-.889-1.595-.889-2.762v-.212c0-.72.132-1.36.397-1.92.264-.561.642-.996 1.134-1.306.497-.31 1.083-.465 1.757-.465.83 0 1.518.248 2.065.745.551.497.845 1.141.882 1.934h-1.197c-.036-.478-.218-.87-.547-1.175-.323-.31-.724-.465-1.203-.465-.642 0-1.141.232-1.497.697-.35.46-.526 1.128-.526 2.003v.24c0 .852.175 1.508.526 1.968.351.46.852.69 1.504.69zM31 80.138c-1.003 0-1.818-.328-2.447-.985-.63-.66-.944-1.542-.944-2.645v-.233c0-.733.14-1.387.417-1.962a3.283 3.283 0 011.176-1.353 2.958 2.958 0 011.64-.492c.963 0 1.71.317 2.243.95.533.633.8 1.54.8 2.72v.527h-5.01c.017.73.23 1.32.635 1.77.41.447.93.67 1.558.67.447 0 .825-.09 1.135-.273.31-.182.581-.424.814-.725l.772.602c-.62.953-1.55 1.429-2.789 1.429zm-.157-6.631c-.51 0-.939.187-1.285.56-.347.37-.56.89-.643 1.559h3.705v-.096c-.036-.642-.21-1.139-.52-1.49-.31-.355-.729-.533-1.257-.533zM37.022 80h-1.265V69.5h1.265V80zm3.698 0h-1.265V69.5h1.265V80zm5.392.137c-1.002 0-1.818-.328-2.447-.985-.629-.66-.943-1.542-.943-2.645v-.233c0-.733.139-1.387.417-1.962a3.284 3.284 0 011.176-1.353 2.958 2.958 0 011.64-.492c.962 0 1.71.317 2.242.95.534.633.8 1.54.8 2.72v.527h-5.01c.018.73.23 1.32.635 1.77.41.447.93.67 1.559.67.447 0 .825-.09 1.135-.273a2.85 2.85 0 00.813-.725l.773.602c-.62.953-1.55 1.429-2.79 1.429zm-.157-6.631c-.51 0-.938.187-1.285.56-.346.37-.56.89-.642 1.559h3.705v-.096c-.037-.642-.21-1.139-.52-1.49-.31-.355-.729-.533-1.258-.533zm6.002-.903l.04.93c.566-.71 1.304-1.066 2.215-1.066 1.564 0 2.352.882 2.366 2.645V80h-1.265v-4.894c-.005-.534-.128-.928-.369-1.183-.237-.255-.608-.383-1.114-.383-.41 0-.77.11-1.08.328-.31.219-.552.506-.725.862V80H50.76v-7.397h1.197zm8.537-1.79v1.79h1.381v.978h-1.38v4.587c0 .296.06.52.184.67.123.146.332.219.629.219.145 0 .346-.028.601-.082V80a3.669 3.669 0 01-.97.137c-.566 0-.992-.171-1.279-.513-.287-.342-.43-.827-.43-1.456v-4.587h-1.347v-.978h1.346v-1.79h1.265zm10.772 5.16h-2.338V80H67.61v-9.953h3.295c1.121 0 1.983.255 2.584.766.606.51.91 1.253.91 2.228 0 .62-.17 1.16-.507 1.62-.332.46-.797.805-1.394 1.032l2.338 4.225V80h-1.408l-2.16-4.026zM68.928 74.9h2.017c.652 0 1.169-.168 1.552-.506.387-.337.58-.788.58-1.353 0-.615-.184-1.087-.553-1.415-.364-.328-.893-.495-1.586-.499h-2.01V74.9zM80.904 80c-.072-.146-.132-.406-.177-.78-.588.611-1.29.917-2.106.917-.729 0-1.328-.205-1.798-.615a2.016 2.016 0 01-.697-1.573c0-.77.292-1.367.875-1.79.588-.43 1.413-.643 2.475-.643h1.23v-.581c0-.442-.132-.793-.396-1.053-.265-.264-.654-.397-1.17-.397-.45 0-.829.114-1.134.342-.305.228-.458.504-.458.827h-1.272c0-.369.13-.724.39-1.066a2.7 2.7 0 011.067-.82c.45-.2.945-.301 1.483-.301.852 0 1.52.214 2.003.642.483.424.734 1.01.752 1.757v3.404c0 .68.086 1.22.26 1.62V80h-1.327zm-2.098-.964c.396 0 .772-.102 1.128-.308.355-.205.613-.471.772-.8v-1.517h-.991c-1.55 0-2.324.454-2.324 1.36 0 .397.132.707.396.93.264.224.604.335 1.019.335zm7.156-8.224v1.791h1.381v.978h-1.38v4.587c0 .296.06.52.184.67.123.146.333.219.629.219.146 0 .346-.028.601-.082V80a3.668 3.668 0 01-.97.137c-.565 0-.992-.171-1.279-.513-.287-.342-.43-.827-.43-1.456v-4.587H83.35v-.978h1.347v-1.79h1.264zM90.494 80h-1.265v-7.397h1.265V80zm-1.367-9.358c0-.206.061-.379.184-.52.128-.141.315-.212.56-.212.247 0 .434.07.562.212a.747.747 0 01.19.52.722.722 0 01-.19.512c-.128.137-.315.205-.561.205-.246 0-.433-.068-.56-.205a.738.738 0 01-.185-.512zm4.887 1.962l.04.93c.566-.712 1.304-1.067 2.216-1.067 1.563 0 2.351.882 2.365 2.645V80H97.37v-4.894c-.004-.534-.127-.928-.369-1.183-.237-.255-.608-.383-1.114-.383-.41 0-.77.11-1.08.328-.31.219-.552.506-.725.862V80h-1.264v-7.397h1.196zm6.521 3.636c0-1.153.266-2.069.8-2.748.533-.683 1.239-1.025 2.119-1.025.902 0 1.606.319 2.112.957l.062-.82h1.155v7.218c0 .957-.285 1.712-.855 2.263-.565.551-1.326.827-2.283.827a3.8 3.8 0 01-1.565-.342c-.511-.228-.9-.54-1.169-.936l.656-.759c.542.67 1.205 1.005 1.989 1.005.615 0 1.094-.173 1.436-.52.346-.346.519-.834.519-1.463v-.635c-.506.583-1.196.875-2.071.875-.866 0-1.568-.349-2.105-1.046-.534-.697-.8-1.648-.8-2.85zm1.271.144c0 .834.171 1.49.513 1.969.342.474.82.71 1.435.71.798 0 1.384-.362 1.757-1.086V74.6c-.387-.707-.968-1.06-1.743-1.06-.615 0-1.096.24-1.442.718-.347.478-.52 1.187-.52 2.126zM28.67 10.175h10.843v2.018h-4.27v11.379h-2.34V12.193h-4.25l.017-2.018zm10.378 3.697h2v1.876h.037c.071-.268.196-.518.375-.768a2.97 2.97 0 01.66-.68c.25-.214.537-.374.858-.5.304-.124.625-.196.947-.196.25 0 .429.018.518.018.09.018.196.036.286.036v2.054c-.143-.036-.304-.053-.465-.071-.16-.018-.303-.036-.464-.036a2.48 2.48 0 00-1.018.214c-.322.143-.59.357-.84.625a3.387 3.387 0 00-.572 1.037c-.142.41-.214.893-.214 1.428v4.61h-2.143l.035-9.647zm15.505 9.7h-2.107v-1.358h-.036c-.268.5-.661.875-1.18 1.18a3.111 3.111 0 01-1.589.446c-1.268 0-2.197-.304-2.769-.947-.571-.625-.857-1.59-.857-2.858v-6.163h2.143v5.948c0 .858.161 1.465.5 1.805.322.357.786.536 1.376.536.447 0 .822-.072 1.125-.215.304-.143.554-.321.733-.554.196-.232.321-.518.41-.84.09-.32.126-.678.126-1.053v-5.627h2.143v9.7h-.018zm3.644-3.108c.072.625.304 1.053.715 1.321.41.25.91.376 1.483.376.196 0 .428-.018.678-.054.25-.036.5-.09.715-.179.232-.089.41-.214.554-.393a.915.915 0 00.196-.66c-.018-.268-.107-.5-.304-.68-.196-.178-.428-.303-.714-.428a6.199 6.199 0 00-1-.268c-.376-.072-.75-.16-1.144-.25-.393-.09-.786-.197-1.16-.322a3.329 3.329 0 01-1.001-.518 2.229 2.229 0 01-.697-.821c-.178-.34-.268-.733-.268-1.233 0-.536.125-.965.393-1.322.25-.357.59-.643.983-.857a4.46 4.46 0 011.322-.465c.482-.089.946-.125 1.375-.125.5 0 .983.054 1.429.161.447.107.875.268 1.233.518.375.232.678.554.91.929.25.375.394.84.465 1.376h-2.233c-.107-.518-.34-.858-.697-1.037a2.877 2.877 0 00-1.268-.268c-.143 0-.34.018-.536.036a3.159 3.159 0 00-.59.143c-.178.072-.339.179-.464.304a.715.715 0 00-.196.518c0 .268.09.464.268.625.178.16.41.286.714.41a6.21 6.21 0 001 .269c.376.071.769.16 1.162.25.393.09.768.196 1.143.321s.715.286 1 .518c.286.215.536.483.715.804.178.322.268.733.268 1.197 0 .572-.125 1.054-.393 1.465a3.34 3.34 0 01-1.018.982c-.411.25-.893.429-1.394.554a7.483 7.483 0 01-1.518.179 6.399 6.399 0 01-1.697-.215A4.321 4.321 0 0157.268 23a3 3 0 01-.893-1.054c-.214-.41-.34-.91-.357-1.5h2.161v.018h.018zm7.056-6.592h1.626v-2.93h2.143v2.912h1.93v1.59h-1.93v5.18c0 .233.018.411.036.59.018.16.071.303.125.41a.699.699 0 00.304.25c.143.054.321.09.571.09.143 0 .304 0 .447-.018.143-.018.303-.036.446-.071v1.661c-.232.036-.464.054-.696.072-.232.035-.447.035-.697.035-.572 0-1.018-.053-1.358-.16a1.95 1.95 0 01-.803-.465 1.661 1.661 0 01-.393-.768 6.106 6.106 0 01-.125-1.072v-5.716h-1.626v-1.626.036zm7.199 0h2.018v1.322h.036c.304-.572.715-.965 1.25-1.215a4.05 4.05 0 011.751-.375c.768 0 1.43.125 2 .411a3.753 3.753 0 011.412 1.108 4.62 4.62 0 01.84 1.643c.178.625.285 1.304.285 2 0 .662-.089 1.287-.25 1.894-.178.607-.428 1.161-.768 1.626a3.8 3.8 0 01-1.304 1.125c-.536.286-1.143.429-1.858.429a5.46 5.46 0 01-.928-.09 3.95 3.95 0 01-.894-.268 3.2 3.2 0 01-.786-.482 2.722 2.722 0 01-.607-.679h-.036v4.841H72.47v-13.29h-.018zm7.484 4.859c0-.429-.053-.858-.178-1.268a3.234 3.234 0 00-.518-1.09 2.857 2.857 0 00-.84-.768c-.34-.197-.732-.286-1.16-.286-.894 0-1.573.304-2.037.929-.447.625-.679 1.465-.679 2.5 0 .5.054.947.179 1.358.125.411.285.768.535 1.072.233.304.519.536.858.715.34.178.715.268 1.161.268.5 0 .893-.108 1.233-.304.339-.197.607-.465.84-.768.213-.322.374-.679.464-1.09.089-.429.142-.84.142-1.268zm3.77-8.556h2.143v2.018h-2.144v-2.018zm0 3.697h2.143v9.7h-2.144v-9.7zm4.054-3.697h2.144v13.397H87.76V10.175zm8.682 13.665c-.768 0-1.465-.125-2.072-.393a4.703 4.703 0 01-1.537-1.054c-.41-.447-.732-1-.946-1.626a6.352 6.352 0 01-.34-2.054c0-.732.108-1.411.34-2.036a4.752 4.752 0 01.947-1.626c.41-.446.928-.804 1.536-1.054a5.422 5.422 0 012.072-.393c.768 0 1.465.125 2.072.393.607.25 1.107.608 1.536 1.054.411.447.732 1 .947 1.626a6.25 6.25 0 01.339 2.036c0 .75-.107 1.43-.339 2.054-.232.625-.536 1.161-.947 1.626-.41.446-.929.804-1.536 1.054a5.356 5.356 0 01-2.072.393zm0-1.697c.464 0 .893-.108 1.232-.304.358-.197.625-.464.858-.786.232-.322.393-.697.5-1.09a4.898 4.898 0 000-2.483 3.204 3.204 0 00-.5-1.09 2.714 2.714 0 00-.858-.767 2.52 2.52 0 00-1.232-.304c-.465 0-.893.107-1.233.304a2.737 2.737 0 00-.857.768 3.202 3.202 0 00-.5 1.09 4.864 4.864 0 000 2.482c.107.411.268.768.5 1.09.232.322.518.59.857.786.358.214.768.304 1.233.304zm5.537-8.27h1.626v-2.93h2.143v2.911h1.93v1.59h-1.93v5.18c0 .233.018.411.036.59.018.16.072.303.125.41a.703.703 0 00.304.25c.143.054.321.09.571.09.143 0 .304 0 .447-.018.143-.018.304-.036.447-.071v1.661c-.233.036-.465.054-.697.072-.232.035-.447.035-.697.035-.571 0-1.018-.053-1.357-.16a1.944 1.944 0 01-.804-.465 1.652 1.652 0 01-.393-.768 6.058 6.058 0 01-.125-1.072v-5.716h-1.626v-1.626.036z" fill="#fff"/><path d="M16.362 10.175h9.807l-5.544 4.02-.003-.009-5.575 4.049 3.633-.943 2.577 7.959-7.931-5.77-7.932 5.77 3.037-9.325L.5 10.156l9.807.018L13.343.85l3.02 9.325zM.5 36.922h19.675v19.675H.5z" fill="#00B67A"/><path d="M12.023 45.157h5.465l-3.09 2.241-.001-.005-3.107 2.256 2.025-.525 1.436 4.435-4.42-3.215-4.42 3.215 1.692-5.196-4.42-3.216 5.465.01 1.693-5.196 1.682 5.196z" fill="#fff"/><path fill="#00B67A" d="M44.23 36.922h19.675v19.675H44.23z"/><path d="M55.76 45.157h5.465l-3.09 2.241-.002-.005-3.107 2.256 2.025-.525 1.436 4.435-4.42-3.215-4.42 3.215 1.692-5.196-4.42-3.216 5.466.01 1.692-5.196 1.682 5.196z" fill="#fff"/><path fill="#00B67A" d="M22.297 36.922h19.675v19.675H22.297z"/><path d="M33.819 45.157h5.465l-3.09 2.241-.001-.005-3.107 2.256 2.024-.525 1.437 4.435-4.42-3.215-4.42 3.215 1.692-5.196-4.42-3.216 5.465.01 1.692-5.196 1.683 5.196z" fill="#fff"/><path fill="#00B67A" d="M66.026 36.922h19.675v19.675H66.026z"/><path d="M77.554 45.157h5.465l-3.09 2.241-.001-.005-3.107 2.256 2.024-.525 1.436 4.435-4.42-3.215-4.42 3.215 1.693-5.196-4.42-3.216 5.465.01 1.692-5.196 1.683 5.196z" fill="#fff"/><path fill="#00B67A" d="M87.682 36.922h19.675v19.675H87.682z"/><path d="M99.205 45.157h5.466l-3.09 2.241-.002-.005-3.106 2.256 2.024-.525 1.436 4.435-4.42-3.215-4.42 3.215 1.692-5.196-4.42-3.216 5.466.01 1.692-5.196 1.682 5.196z" fill="#fff"/></svg>