<svg width="136" height="40" fill="none" viewBox="-2 -2 136 40" id="visa-master" x="189" y="90" xmlns="http://www.w3.org/2000/svg"><path d="M23.488 26.986l3.338-19.457h5.311L28.8 26.986h-5.311zM48.07 8.008c-1.062-.404-2.706-.807-4.754-.807-5.236 0-8.953 2.624-8.979 6.41-.025 2.8 2.63 4.34 4.654 5.274 2.074.959 2.757 1.564 2.757 2.423-.026 1.312-1.644 1.892-3.187 1.892-2.124 0-3.263-.303-5.008-1.01l-.682-.302-.734 4.34c1.24.556 3.54 1.01 5.918 1.035 5.59 0 9.206-2.6 9.257-6.637.025-2.22-1.391-3.886-4.451-5.274-1.847-.909-2.985-1.489-2.985-2.423 0-.807.961-1.665 3.035-1.665a9.627 9.627 0 013.97.757l.481.227.708-4.24zM61.677 7.554H57.58c-1.265 0-2.226.353-2.782 1.615l-7.891 17.817h5.59l1.112-2.928h6.803c.152.682.658 2.902.658 2.902H66L61.677 7.554zm-6.55 12.542c.43-1.11 2.124-5.425 2.124-5.425-.026.05.43-1.136.708-1.868l.354 1.666s1.012 4.643 1.24 5.602h-4.427v.025zM19.037 7.554l-5.185 13.249-.556-2.7c-.961-3.08-3.996-6.46-7.36-8.152l4.755 17.01h5.614l8.371-19.407h-5.64z" fill="#fff"/><path d="M9.021 7.554H.448l-.076.404c6.652 1.615 11.077 5.501 12.898 10.17L11.4 9.194c-.304-1.236-1.214-1.615-2.378-1.64z" fill="#F79E1B"/><path d="M130.963 35.511v.087h.144l.029-.03c0-.028 0-.028-.029-.028h-.144v-.029zm.086-.057c.058 0 .087 0 .116.029.028.028.028.057.028.086 0 .029 0 .057-.028.057-.029.029-.058.029-.087.029l.115.144h-.086l-.115-.144h-.029v.144h-.086v-.345h.172zm-.028.46c.028 0 .086 0 .115-.03.029-.028.057-.028.086-.057.029-.028.058-.057.058-.086.029-.029.029-.086.029-.115 0-.028 0-.086-.029-.115-.029-.028-.029-.057-.058-.086-.029-.028-.057-.057-.086-.057-.029-.029-.087-.029-.115-.029-.029 0-.087 0-.116.029-.028.029-.057.029-.086.057-.029.029-.057.058-.057.086-.029.03-.029.087-.029.115 0 .029 0 .087.029.115.028.029.028.058.057.086.029.03.058.058.086.058a.221.221 0 00.116.029zm0-.661c.057 0 .115 0 .144.029a.406.406 0 01.115.086c.029.029.057.086.086.115.029.057.029.086.029.143 0 .058 0 .087-.029.144a.397.397 0 01-.086.115c-.029.029-.087.057-.115.086-.058.029-.087.029-.144.029-.058 0-.116 0-.144-.029-.029-.029-.087-.057-.115-.086-.029-.029-.058-.086-.087-.115-.029-.058-.029-.086-.029-.144 0-.057 0-.086.029-.143.029-.058.058-.086.087-.115.028-.029.086-.058.115-.086.057-.03.086-.03.144-.03zm-35.238-1.35c0-.661.432-1.207 1.151-1.207.691 0 1.152.517 1.152 1.207 0 .69-.46 1.206-1.151 1.206-.72 0-1.152-.546-1.152-1.206zm3.052 0v-1.896H98v.46c-.26-.345-.662-.546-1.18-.546-1.066 0-1.9.833-1.9 1.982s.834 1.982 1.9 1.982c.546 0 .92-.201 1.18-.546v.46h.835v-1.896zm27.752 0c0-.661.432-1.207 1.152-1.207.691 0 1.151.517 1.151 1.207 0 .69-.46 1.206-1.151 1.206-.691 0-1.152-.546-1.152-1.206zm3.081 0v-3.39h-.835v1.953c-.259-.344-.662-.545-1.181-.545-1.065 0-1.9.833-1.9 1.982s.835 1.982 1.9 1.982c.547 0 .922-.201 1.181-.546v.46h.835v-1.896zm-20.642-1.236c.518 0 .864.345.95.92h-1.958c.087-.546.432-.92 1.008-.92zm.029-.746c-1.094 0-1.872.804-1.872 1.982 0 1.206.806 1.982 1.929 1.982.576 0 1.094-.144 1.555-.517l-.403-.604c-.317.26-.72.403-1.094.403-.518 0-1.008-.259-1.123-.92h2.793c0-.114.028-.2.028-.316-.028-1.206-.748-2.01-1.813-2.01zm9.903 1.982c0-.661.432-1.207 1.152-1.207.691 0 1.151.517 1.151 1.207 0 .69-.46 1.206-1.151 1.206-.691 0-1.152-.546-1.152-1.206zm3.08 0v-1.896h-.834v.46c-.26-.345-.663-.546-1.181-.546-1.065 0-1.9.833-1.9 1.982s.835 1.982 1.9 1.982c.547 0 .921-.201 1.181-.546v.46h.834v-1.896zm-7.715 0c0 1.149.806 1.982 2.015 1.982.576 0 .95-.115 1.353-.46l-.403-.66c-.316.23-.633.344-.979.344-.662 0-1.151-.488-1.151-1.206s.489-1.207 1.151-1.207c.346 0 .691.115.979.345l.403-.66c-.403-.317-.777-.46-1.353-.46-1.209 0-2.015.833-2.015 1.982zm10.594-1.982c-.46 0-.777.23-1.007.545v-.46h-.806v3.764h.835v-2.126c0-.632.259-.977.806-.977.172 0 .345.03.518.087l.259-.776a4.763 4.763 0 00-.605-.057zm-22.023.402c-.403-.259-.95-.402-1.555-.402-.95 0-1.583.46-1.583 1.206 0 .603.46 1.005 1.295 1.12l.375.058c.46.057.662.172.662.402 0 .287-.288.46-.864.46-.576 0-.979-.173-1.267-.403l-.374.633c.461.344 1.008.488 1.641.488 1.094 0 1.727-.517 1.727-1.235 0-.661-.489-1.006-1.324-1.12l-.374-.058c-.346-.058-.634-.115-.634-.374 0-.287.26-.43.72-.43.49 0 .95.172 1.181.316l.374-.661zm10.594-.402c-.46 0-.777.23-1.007.545v-.46h-.807v3.764h.835v-2.126c0-.632.259-.977.806-.977.173 0 .346.03.519.087l.259-.776a4.763 4.763 0 00-.605-.057zm-6.996.086h-1.353v-1.15h-.835v1.15h-.777v.747h.777v1.723c0 .862.346 1.408 1.325 1.408.345 0 .777-.115 1.036-.287l-.23-.69a1.524 1.524 0 01-.72.201c-.403 0-.547-.258-.547-.632v-1.695h1.353v-.775h-.029zm-12.293 3.792v-2.356c0-.89-.575-1.494-1.496-1.494-.49 0-.98.144-1.325.661-.259-.43-.662-.66-1.238-.66-.403 0-.806.114-1.094.545v-.46h-.835V35.8h.835v-2.097c0-.661.375-1.006.922-1.006s.834.345.834 1.006v2.097h.835v-2.097c0-.661.375-1.006.922-1.006s.834.345.834 1.006v2.097h.806z" fill="#E6E7E8"/><path d="M115.118 25.609h-12.46V3.27h12.46v22.338z" fill="#FF5F00"/><path d="M103.441 14.45c0-4.54 2.13-8.561 5.441-11.176A14.223 14.223 0 00100.073.23c-7.86 0-14.222 6.349-14.222 14.191 0 7.843 6.362 14.191 14.222 14.191 3.31 0 6.362-1.149 8.809-3.045a13.997 13.997 0 01-5.441-11.117z" fill="#EB001B"/><path d="M131.896 14.45c0 7.841-6.362 14.19-14.222 14.19-3.31 0-6.362-1.15-8.809-3.045 3.311-2.614 5.441-6.636 5.441-11.175 0-4.538-2.13-8.56-5.441-11.174A14.223 14.223 0 01117.674.2c7.86.028 14.222 6.406 14.222 14.248z" fill="#F79E1B"/></svg>