
<svg width="200" height="129" fill="none" xmlns="http://www.w3.org/2000/svg"><path opacity=".6" d="M108.025 37.438c0-19.024 15.422-34.445 34.445-34.445 19.024 0 34.445 15.421 34.445 34.444 0 19.024-15.421 34.445-34.445 34.445a34.298 34.298 0 01-15.635-3.745" stroke="#BFA1FE" stroke-width="1.5"/><path d="M115.373 37.437c0-14.965 12.131-27.096 27.096-27.096s27.096 12.131 27.096 27.096-12.131 27.096-27.096 27.096a26.973 26.973 0 01-15.509-4.875" stroke="#BFA1FE" stroke-width=".851" stroke-linecap="round" stroke-dasharray="0.85 5.1"/><path stroke="#BFA1FE" stroke-width="1.701" d="M130.193 38.159l12.785-12.785 12.784 12.785-12.784 12.784z"/><path opacity=".6" d="M72.25 62.515a34.375 34.375 0 00-15.314-3.575c-19.063 0-34.516 15.454-34.516 34.516 0 19.063 15.453 34.517 34.516 34.517 17.04 0 31.195-12.347 34.009-28.582" stroke="#BFA1FE" stroke-width="1.5"/><path d="M84.032 93.456c0 14.965-12.132 27.096-27.096 27.096-14.965 0-27.096-12.131-27.096-27.096S41.97 66.36 56.936 66.36c5.92 0 11.395 1.898 15.852 5.119" stroke="#BFA1FE" stroke-width=".851" stroke-linecap="round" stroke-dasharray="0.85 5.1"/><path d="M58.028 79.196v3.262M53.269 79.196v3.262M58.807 105.894v2.138M53.696 105.894v2.138" stroke="#BFA1FE" stroke-width="1.701" stroke-linecap="round"/><path d="M49.384 82.658h9.486a4.693 4.693 0 014.693 4.694v0a4.693 4.693 0 01-4.693 4.693h-9.486v-9.387z" stroke="#BFA1FE" stroke-width="1.701" stroke-linejoin="round"/><path d="M49.384 92.044h11.205a5.104 5.104 0 015.105 5.105v2.772a5.105 5.105 0 01-5.105 5.105H49.384V92.044z" stroke="#BFA1FE" stroke-width="1.701" stroke-linejoin="round"/><path opacity=".6" d="M177.038 93.457v20.56c0 5.638-4.57 10.208-10.208 10.208h-29.329M21.94 35.805v-20.56c0-5.637 4.57-10.208 10.208-10.208h29.329" stroke="#BFA1FE" stroke-width="1.5" stroke-linecap="round" stroke-linejoin="round"/><path opacity=".6" d="M141.415 128.219l-4-4 4-4M57.563 1.043l4 4-4 4" stroke="#BFA1FE" stroke-width="1.5" stroke-linecap="round" stroke-linejoin="round"/><path d="M99.392 33.216l.14-.078.185.11c.492.296 1.208.719 2.102 1.232a148.673 148.673 0 007.173 3.856c5.417 2.719 12.261 5.701 18.11 6.809v17.493a45.46 45.46 0 01-27.546 41.782 45.46 45.46 0 01-27.547-41.782V45.069c6.133-1.625 12.992-4.6 18.37-7.193 2.826-1.363 5.26-2.63 6.988-3.555.864-.464 1.552-.842 2.025-1.105z" stroke="#BFA1FE" stroke-width="2.3"/><path opacity=".16" d="M99.307 103.455V33.489l12.378 6.458 14.666 5.651-.673 2.96V74.93l-10.225 18.3-16.146 10.225z" fill="#BFA1FE"/></svg>