
<svg width="85" height="93" fill="none" xmlns="http://www.w3.org/2000/svg"><path opacity=".5" d="M2.643 36.996l8.436-7.1a2 2 0 011.288-.47H32.22m49.879 7.57l-6.909-6.978a2 2 0 00-1.421-.592h-19.83M17 91.613H7.473v-2.632H2.74a2 2 0 01-2-2V39.14a2 2 0 012-2H82a2 2 0 012 2V86.98a2 2 0 01-2 2h-4.537v2.67h-9.718m-50.744-.038v-2.632m0 2.632v-2.632m0 0h50.744m0 0v2.67m0-2.67v2.67" stroke="#BFA1FE" stroke-linecap="round" stroke-linejoin="round"/><rect opacity=".5" x="7.023" y="43.423" width="70.693" height="39.274" rx="2" stroke="#BFA1FE" stroke-linecap="round" stroke-linejoin="round"/><path d="M23.497 33.21h38.89" stroke="#BFA1FE" stroke-width="1.5" stroke-linecap="round" stroke-linejoin="round"/><path d="M29.731 71.095h7.092M14.107 71.095H21.2" stroke="#BFA1FE" stroke-width="1.116" stroke-linecap="round" stroke-linejoin="round"/><circle cx="25.465" cy="71.094" r="4.267" stroke="#BFA1FE" stroke-width="1.3"/><circle cx="25.465" cy="71.094" stroke="#BFA1FE" stroke-width="1.3" r="1.523"/><path d="M58.84 17.333c0 7.695-5.474 14.111-12.74 15.568-1.014.203-3.138.31-3.138.31s-2.124-.107-3.138-.31c-7.266-1.457-12.74-7.874-12.74-15.568 0-8.77 7.109-15.878 15.878-15.878 8.77 0 15.878 7.108 15.878 15.878z" stroke="#BFA1FE" stroke-width="1.5"/><circle cx="42.961" cy="17.333" r="12.258" stroke="#BFA1FE" stroke-width=".5" stroke-linecap="round" stroke-dasharray="0.5 3"/><path stroke="#BFA1FE" stroke-width="1.5" d="M37.807 17.665l5.387-5.388 5.388 5.388-5.388 5.387z"/><circle cx="54.002" cy="64.163" r="1.102" fill="#BFA1FE"/><circle cx="54.002" cy="68.549" r="1.102" fill="#BFA1FE"/><circle cx="54.002" cy="72.936" r="1.102" fill="#BFA1FE"/><circle cx="58.843" cy="64.163" r="1.102" fill="#BFA1FE"/><circle cx="58.843" cy="68.549" r="1.102" fill="#BFA1FE"/><circle cx="58.843" cy="72.936" r="1.102" fill="#BFA1FE"/><circle cx="63.682" cy="64.163" r="1.102" fill="#BFA1FE"/><circle cx="63.682" cy="68.549" r="1.102" fill="#BFA1FE"/><circle cx="63.682" cy="72.936" r="1.102" fill="#BFA1FE"/><rect opacity=".16" x="52.772" y="53.536" width="12.013" height="4.386" rx="1" fill="#BFA1FE"/></svg>