
<svg width="200" height="97" fill="none" xmlns="http://www.w3.org/2000/svg"><path opacity=".6" d="M149.441 18.815a33.65 33.65 0 0115.044-3.526c18.659 0 33.785 15.126 33.785 33.785s-15.126 33.785-33.785 33.785a33.645 33.645 0 01-15.059-3.534M50.828 18.815a33.645 33.645 0 00-15.043-3.526C17.125 15.289 2 30.415 2 49.074s15.126 33.785 33.785 33.785a33.646 33.646 0 0015.059-3.534" stroke="#BFA1FE" stroke-width="1.5"/><path d="M153.425 26.561a24.897 24.897 0 0110.878-2.485c13.806 0 24.998 11.192 24.998 24.998 0 13.806-11.192 24.999-24.998 24.999-3.899 0-7.589-.893-10.878-2.485M46.844 26.561a24.9 24.9 0 00-10.879-2.485c-13.806 0-24.998 11.192-24.998 24.998 0 13.806 11.192 24.999 24.998 24.999 3.9 0 7.59-.893 10.879-2.485" stroke="#BFA1FE" stroke-width="1.165" stroke-linecap="round" stroke-dasharray="0.73 4.37"/><path d="M165.709 37.242l-7.744 21.33h14.129" stroke="#BFA1FE" stroke-width="1.796" stroke-linecap="round" stroke-linejoin="round"/><path d="M157.426 51.235h7.403" stroke="#BFA1FE" stroke-width="1.796" stroke-linecap="round"/><path d="M21.66 58.516h6.95V42.39c0-.87 1.112-1.232 1.624-.53l8.498 11.67 4.45-5.642" stroke="#BFA1FE" stroke-width="1.796" stroke-linecap="round" stroke-linejoin="round"/><circle cx="99.887" cy="49.074" r="33.785" stroke="#BFA1FE" stroke-width="1.777" stroke-linecap="round" stroke-dasharray="0.98 5.9"/><path d="M102.026 29.272v3.4M96.043 29.272v3.4M103.098 65.008v2.63M96.043 65.008v2.63" stroke="#BFA1FE" stroke-width="2.3" stroke-linecap="round"/><path d="M90.15 32.946h14.83a5.902 5.902 0 015.902 5.902v1.087a5.902 5.902 0 01-5.902 5.902H90.15v-12.89zM90.15 45.837h15.39a7.01 7.01 0 017.01 7.01v3.808a7.01 7.01 0 01-7.01 7.01H90.15V45.837z" stroke="#BFA1FE" stroke-width="2.3" stroke-linejoin="round"/><circle cx="100.386" cy="49.074" r="45.41" stroke="#BFA1FE" stroke-width="2.3"/></svg>