
<svg width="92" height="80" fill="none" xmlns="http://www.w3.org/2000/svg"><path d="M50.866 24.263c0-11.181 9.064-20.245 20.245-20.245 11.181 0 20.245 9.064 20.245 20.245 0 11.18-9.064 20.245-20.245 20.245-3.308 0-6.432-.794-9.19-2.201" stroke="#BFA1FE"/><path d="M55.185 24.263c0-8.796 7.13-15.926 15.925-15.926 8.796 0 15.926 7.13 15.926 15.926 0 8.795-7.13 15.925-15.926 15.925-3.39 0-6.533-1.059-9.115-2.865" stroke="#BFA1FE" stroke-width=".5" stroke-linecap="round" stroke-dasharray="0.5 3"/><path stroke="#BFA1FE" d="M63.896 24.687l7.514-7.514 7.513 7.514L71.41 32.2zM29.84 39.002a20.205 20.205 0 00-9.001-2.101C9.635 36.901.552 45.984.552 57.188c0 11.204 9.083 20.287 20.287 20.287 10.015 0 18.335-7.256 19.988-16.799"/><path d="M36.765 57.188c0 8.796-7.13 15.926-15.926 15.926S4.913 65.984 4.913 57.188c0-8.795 7.13-15.925 15.926-15.925 3.479 0 6.698 1.115 9.317 3.008" stroke="#BFA1FE" stroke-width=".5" stroke-linecap="round" stroke-dasharray="0.5 3"/><path d="M21.481 48.807v1.917M18.685 48.807v1.917M21.94 64.498v1.257M18.934 64.498v1.257" stroke="#BFA1FE" stroke-linecap="round"/><path d="M16.398 50.842h5.576a2.758 2.758 0 012.759 2.758v0a2.758 2.758 0 01-2.759 2.759h-5.576v-5.517z" stroke="#BFA1FE" stroke-linejoin="round"/><path d="M16.398 56.358h6.587a3 3 0 013 3v1.63a3 3 0 01-3 3h-6.587v-7.63z" stroke="#BFA1FE" stroke-linejoin="round"/><path d="M.552 22.102V10.018a6 6 0 016-6H20.87" stroke="#BFA1FE" stroke-linecap="round" stroke-linejoin="round"/><path d="M18.598.64l3.378 3.378-3.378 3.378M91.43 57.188v12.084a6 6 0 01-6 6H71.11" stroke="#BFA1FE" stroke-linecap="round" stroke-linejoin="round"/><path d="M73.384 78.65l-3.378-3.377 3.378-3.378" stroke="#BFA1FE" stroke-linecap="round" stroke-linejoin="round"/><path d="M45.829 21.847l.045-.026.071.043a87.46 87.46 0 005.456 2.993c3.167 1.59 7.168 3.335 10.604 3.997v10.221A26.646 26.646 0 0145.89 63.551a26.646 26.646 0 01-16.117-24.478V28.805c3.598-.96 7.61-2.7 10.755-4.218a110.232 110.232 0 005.302-2.74z" stroke="#BFA1FE" stroke-width="1.5"/><path opacity=".16" d="M45.742 63.065V21.942l7.276 3.796 8.62 3.321-.396 1.74v15.5l-6.01 10.755-9.49 6.01z" fill="#BFA1FE"/></svg>