
<svg width="200" height="160" fill="none" xmlns="http://www.w3.org/2000/svg"><path opacity=".5" d="M32.723 65.072L47.01 53.048a3.387 3.387 0 012.181-.795H82.81m84.467 12.819l-11.699-11.816a3.39 3.39 0 00-2.407-1.003h-33.582M57.038 157.564H40.902v-4.458h-8.013a3.386 3.386 0 01-3.387-3.386V68.703a3.387 3.387 0 013.387-3.387h134.223a3.386 3.386 0 013.386 3.387v81.017a3.386 3.386 0 01-3.386 3.386h-7.685v4.522h-16.456m-85.933-.064v-4.458m0 4.458v-4.458m0 0h85.933m0 0v4.522m0-4.522v4.522" stroke="#BFA1FE" stroke-width="1.693" stroke-linecap="round" stroke-linejoin="round"/><rect opacity=".5" x="40.141" y="75.957" width="119.714" height="66.508" rx="3.387" stroke="#BFA1FE" stroke-width="1.693" stroke-linecap="round" stroke-linejoin="round"/><path d="M68.037 58.663h65.859" stroke="#BFA1FE" stroke-width="2.54" stroke-linecap="round" stroke-linejoin="round"/><path d="M78.596 122.817h12.009M52.14 122.817h12.008" stroke="#BFA1FE" stroke-width="1.889" stroke-linecap="round" stroke-linejoin="round"/><circle cx="71.374" cy="122.816" r="7.225" stroke="#BFA1FE" stroke-width="2.201"/><circle cx="71.371" cy="122.817" r="2.579" stroke="#BFA1FE" stroke-width="2.201"/><path d="M127.892 31.774c0 13.03-9.269 23.896-21.574 26.363-1.718.345-5.314.525-5.314.525s-3.597-.18-5.315-.525C83.385 55.67 74.115 44.805 74.115 31.774c0-14.85 12.039-26.889 26.889-26.889s26.888 12.039 26.888 26.889z" stroke="#BFA1FE" stroke-width="2.54"/><circle cx="101.001" cy="31.774" r="20.759" stroke="#BFA1FE" stroke-width=".847" stroke-linecap="round" stroke-dasharray="0.85 5.08"/><path stroke="#BFA1FE" stroke-width="2.54" d="M92.27 32.337l9.123-9.123 9.123 9.123-9.123 9.123z"/><circle cx="119.694" cy="111.078" r="1.867" fill="#BFA1FE"/><circle cx="119.694" cy="118.506" r="1.867" fill="#BFA1FE"/><circle cx="119.694" cy="125.934" r="1.867" fill="#BFA1FE"/><circle cx="127.894" cy="111.078" r="1.867" fill="#BFA1FE"/><circle cx="127.894" cy="118.506" r="1.867" fill="#BFA1FE"/><circle cx="127.894" cy="125.934" r="1.867" fill="#BFA1FE"/><circle cx="136.088" cy="111.078" r="1.867" fill="#BFA1FE"/><circle cx="136.088" cy="118.506" r="1.867" fill="#BFA1FE"/><circle cx="136.088" cy="125.934" r="1.867" fill="#BFA1FE"/><rect opacity=".16" x="117.615" y="93.082" width="20.343" height="7.428" rx="1.693" fill="#BFA1FE"/></svg>