
<svg width="150" height="53" fill="none" xmlns="http://www.w3.org/2000/svg"><path opacity=".65" d="M145.376 23.05l3.743 3.743-3.743 3.743M4.467 30.536L.723 26.793l3.744-3.744" stroke="#BFA1FE" stroke-linecap="round" stroke-linejoin="round"/><path d="M101.793 9.607a18.729 18.729 0 018.374-1.962c10.386 0 18.806 8.42 18.806 18.806 0 10.386-8.42 18.806-18.806 18.806-3.012 0-5.859-.708-8.383-1.967M46.9 9.607a18.729 18.729 0 00-8.374-1.962c-10.387 0-18.807 8.42-18.807 18.806 0 10.386 8.42 18.806 18.807 18.806 3.012 0 5.858-.708 8.382-1.967" stroke="#BFA1FE"/><path d="M104.011 13.919a13.856 13.856 0 016.055-1.383c7.685 0 13.915 6.23 13.915 13.915 0 7.685-6.23 13.914-13.915 13.914-2.17 0-4.225-.496-6.055-1.383M44.682 13.919a13.858 13.858 0 00-6.056-1.383c-7.685 0-13.915 6.23-13.915 13.915 0 7.685 6.23 13.914 13.915 13.914 2.17 0 4.225-.496 6.056-1.383" stroke="#BFA1FE" stroke-width=".648" stroke-linecap="round" stroke-dasharray="0.41 2.43"/><path d="M110.848 19.864l-4.311 11.873h7.865" stroke="#BFA1FE" stroke-linecap="round" stroke-linejoin="round"/><path d="M106.236 27.654h4.121" stroke="#BFA1FE" stroke-linecap="round"/><path d="M30.663 31.706h3.869V22.73a.5.5 0 01.904-.294l4.73 6.495 2.477-3.14" stroke="#BFA1FE" stroke-linecap="round" stroke-linejoin="round"/><circle cx="74.209" cy="26.451" r="18.806" stroke="#BFA1FE" stroke-width=".876" stroke-linecap="round" stroke-dasharray="0.55 3.29"/><path d="M75.4 15.428v1.892M72.068 15.428v1.892M75.995 35.58v1.463M72.068 35.58v1.463" stroke="#BFA1FE" stroke-width="1.301" stroke-linecap="round"/><path d="M68.788 17.473h8.255a3.285 3.285 0 013.285 3.286v.604a3.285 3.285 0 01-3.285 3.286h-8.255v-7.176zM68.788 24.649h8.566a3.902 3.902 0 013.902 3.902v2.12a3.902 3.902 0 01-3.902 3.901h-8.566V24.65z" stroke="#BFA1FE" stroke-width="1.301" stroke-linejoin="round"/><circle cx="74.486" cy="26.451" r="25.277" stroke="#BFA1FE" stroke-width="1.5"/></svg>