
<svg width="75" height="40" fill="none" xmlns="http://www.w3.org/2000/svg"><path d="M19.418 7.118h7.422V8.5h-2.923v7.789h-1.602v-7.79h-2.91l.012-1.381zm7.104 2.531h1.37v1.284h.024a1.61 1.61 0 01.256-.526c.123-.171.27-.33.453-.464.171-.147.367-.257.587-.343.208-.085.428-.134.648-.134.171 0 .293.012.355.012.06.012.134.024.195.024v1.406c-.098-.024-.208-.036-.318-.048-.11-.013-.208-.025-.318-.025-.244 0-.477.049-.697.147-.22.098-.403.244-.574.428a2.319 2.319 0 00-.392.709 2.993 2.993 0 00-.146.978v3.155h-1.468l.025-6.603zm10.613 6.64h-1.442v-.93h-.025c-.183.343-.452.6-.807.807a2.13 2.13 0 01-1.088.306c-.868 0-1.504-.208-1.896-.648-.39-.428-.586-1.088-.586-1.956V9.649h1.467v4.072c0 .587.11 1.002.342 1.235.22.244.538.367.942.367.305 0 .562-.05.77-.147.208-.098.38-.22.502-.38.134-.158.22-.354.28-.574.062-.22.086-.464.086-.721V9.649h1.468v6.64h-.013zm2.495-2.128c.049.428.208.722.489.905.281.171.623.257 1.015.257.134 0 .293-.013.465-.037.17-.024.342-.061.489-.122a.86.86 0 00.379-.27.626.626 0 00.134-.452.658.658 0 00-.208-.464 1.735 1.735 0 00-.489-.294 4.238 4.238 0 00-.685-.183c-.256-.05-.513-.11-.782-.171a8.465 8.465 0 01-.795-.22 2.28 2.28 0 01-.685-.355 1.527 1.527 0 01-.477-.563c-.122-.232-.183-.5-.183-.843 0-.367.086-.66.269-.905a1.95 1.95 0 01.672-.587c.27-.147.575-.257.905-.318a5.18 5.18 0 01.942-.086c.342 0 .672.037.978.11.306.074.6.184.844.355.257.159.465.38.624.636.17.257.269.575.317.941H42.32c-.073-.354-.232-.586-.477-.709a1.969 1.969 0 00-.868-.183c-.098 0-.232.012-.367.024a2.158 2.158 0 00-.403.098.957.957 0 00-.318.208.489.489 0 00-.135.355c0 .183.061.317.183.428.123.11.282.195.49.28.195.074.428.135.684.184.257.05.526.11.795.171.27.061.526.135.783.22.257.086.489.196.684.355.196.147.367.33.49.55.122.22.183.502.183.82 0 .39-.086.721-.269 1.002a2.286 2.286 0 01-.697.673 3.458 3.458 0 01-.954.379 5.12 5.12 0 01-1.04.122 4.38 4.38 0 01-1.16-.147 2.96 2.96 0 01-.93-.428 2.053 2.053 0 01-.611-.721 2.356 2.356 0 01-.245-1.027h1.48v.012h.012zm4.83-4.512h1.112V7.644h1.468v1.993h1.32v1.088h-1.32v3.546c0 .16.012.281.024.404a.85.85 0 00.086.28.478.478 0 00.208.172c.098.037.22.061.391.061.098 0 .208 0 .306-.012s.208-.024.305-.049v1.137a6.263 6.263 0 01-.477.05c-.158.024-.305.024-.476.024-.392 0-.697-.037-.93-.11a1.334 1.334 0 01-.55-.318 1.136 1.136 0 01-.269-.526 4.17 4.17 0 01-.086-.734v-3.913H44.46V9.625v.024zm4.928 0h1.381v.905h.025c.208-.391.489-.66.856-.832a2.772 2.772 0 011.198-.256c.526 0 .978.085 1.37.28.39.184.709.429.965.759.257.318.453.697.575 1.125.122.428.196.893.196 1.37 0 .452-.061.88-.171 1.296a3.599 3.599 0 01-.526 1.112 2.601 2.601 0 01-.893.77c-.367.196-.782.294-1.271.294-.208 0-.429-.024-.636-.061a2.7 2.7 0 01-.612-.184 2.191 2.191 0 01-.538-.33 1.864 1.864 0 01-.416-.464h-.024v3.313H49.4V9.65h-.012zm5.123 3.326a2.98 2.98 0 00-.122-.868 2.213 2.213 0 00-.355-.746 1.955 1.955 0 00-.575-.526 1.564 1.564 0 00-.795-.196c-.61 0-1.075.208-1.393.636-.306.428-.465 1.003-.465 1.712 0 .343.037.648.122.93.086.28.196.525.367.733.159.208.355.367.587.49.232.121.49.183.795.183.342 0 .611-.074.843-.208.233-.135.416-.318.575-.526.147-.22.257-.465.318-.746.061-.293.098-.575.098-.868zm2.58-5.857h1.467V8.5h-1.467V7.118zm0 2.531h1.467v6.64h-1.467v-6.64zm2.776-2.531h1.467v9.17h-1.467v-9.17zm5.942 9.354c-.525 0-1.002-.085-1.418-.269a3.218 3.218 0 01-1.052-.721 3.138 3.138 0 01-.648-1.113 4.347 4.347 0 01-.232-1.406c0-.502.073-.966.232-1.394a3.25 3.25 0 01.648-1.113c.282-.306.636-.55 1.052-.721a3.711 3.711 0 011.418-.27c.526 0 1.003.086 1.419.27.415.17.758.415 1.051.721.282.306.502.685.648 1.113.147.428.233.892.233 1.394 0 .513-.074.978-.233 1.406a3.46 3.46 0 01-.648 1.113c-.281.305-.636.55-1.051.721-.416.171-.88.27-1.419.27zm0-1.162c.318 0 .612-.073.844-.207a1.77 1.77 0 00.587-.538c.159-.22.269-.477.342-.746a3.357 3.357 0 000-1.7 2.193 2.193 0 00-.342-.746 1.858 1.858 0 00-.587-.526 1.725 1.725 0 00-.844-.207 1.69 1.69 0 00-.843.207 1.873 1.873 0 00-.587.526c-.16.22-.27.465-.343.746a3.33 3.33 0 000 1.7c.074.28.184.525.343.746.159.22.354.403.587.538.244.146.525.207.843.207zM69.6 9.65h1.114V7.644h1.467v1.993h1.32v1.088h-1.32v3.546c0 .16.012.281.024.404a.85.85 0 00.086.28.477.477 0 00.208.172c.098.037.22.061.391.061.098 0 .208 0 .306-.012s.208-.024.306-.049v1.137c-.16.025-.319.037-.477.05-.16.024-.306.024-.477.024-.392 0-.697-.037-.93-.11a1.334 1.334 0 01-.55-.318 1.136 1.136 0 01-.269-.526 4.16 4.16 0 01-.085-.734v-3.913H69.6V9.625v.024z" fill="#fff"/><path d="M10.993 7.118h6.713L13.91 9.87l-.002-.006-3.816 2.771 2.486-.645 1.764 5.448-5.429-3.95-5.429 3.95 2.079-6.383-5.43-3.95 6.714.013L8.926.735l2.067 6.383zM.135 25.735h14v14h-14z" fill="#00B67A"/><path d="M8.29 31.065h3.74l-2.114 1.534-.001-.004-2.127 1.545 1.386-.36.983 3.036-3.026-2.2-3.026 2.2 1.159-3.557-3.026-2.201 3.741.007 1.159-3.557 1.152 3.557z" fill="#fff"/><path fill="#00B67A" d="M30.135 25.735h14v14h-14z"/><path d="M37.961 31.065h3.742l-2.115 1.534-.002-.004-2.126 1.545 1.386-.36.983 3.036-3.026-2.2-3.026 2.2 1.159-3.557-3.026-2.201 3.741.007 1.159-3.557 1.151 3.557z" fill="#fff"/><path fill="#00B67A" d="M15.135 25.735h14v14h-14z"/><path d="M22.943 31.065h3.741l-2.115 1.534-.001-.004-2.127 1.545 1.386-.36.983 3.036-3.026-2.2-3.025 2.2 1.158-3.557-3.025-2.201 3.74.007 1.16-3.557 1.15 3.557z" fill="#fff"/><path fill="#00B67A" d="M45.135 25.735h14v14h-14z"/><path d="M52.88 31.065h3.741l-2.114 1.534-.002-.004-2.126 1.545 1.386-.36.983 3.036-3.026-2.2-3.026 2.2 1.159-3.557-3.026-2.201 3.741.007 1.159-3.557 1.151 3.557z" fill="#fff"/><path fill="#00B67A" d="M60.135 25.735h14v14h-14z"/><path d="M67.702 31.065h3.74l-2.114 1.534-.001-.004L67.2 34.14l1.386-.36.983 3.036-3.026-2.2-3.025 2.2 1.158-3.557-3.026-2.201 3.741.007 1.159-3.557 1.152 3.557z" fill="#fff"/></svg>